<?xml version="1.0" encoding="UTF-8" standalone="no"?>
<!-- This is a Stata 17.0 generated SVG file (http://www.stata.com) -->

<svg version="1.1" width="5.500in" height="4.000in" viewBox="0 0 3960 2880" xmlns="http://www.w3.org/2000/svg" xmlns:xlink="http://www.w3.org/1999/xlink">
	<desc>Stata Graph - Graph</desc>
	<rect x="0" y="0" width="3960" height="2880" style="fill:#EAF2F3;stroke:none"/>
	<rect x="0.00" y="0.00" width="3959.88" height="2880.00" style="fill:#EAF2F3"/>
	<rect x="2.88" y="2.88" width="3954.12" height="2874.24" style="fill:none;stroke:#EAF2F3;stroke-width:5.76"/>
	<rect x="290.81" y="100.86" width="3568.21" height="1992.81" style="fill:#FFFFFF"/>
	<rect x="293.69" y="103.74" width="3562.45" height="1987.05" style="fill:none;stroke:#FFFFFF;stroke-width:5.76"/>
	<line x1="290.81" y1="2030.31" x2="3859.02" y2="2030.31" style="stroke:#EAF2F3;stroke-width:8.64"/>
	<line x1="290.81" y1="1678.23" x2="3859.02" y2="1678.23" style="stroke:#EAF2F3;stroke-width:8.64"/>
	<line x1="290.81" y1="1326.15" x2="3859.02" y2="1326.15" style="stroke:#EAF2F3;stroke-width:8.64"/>
	<line x1="290.81" y1="974.07" x2="3859.02" y2="974.07" style="stroke:#EAF2F3;stroke-width:8.64"/>
	<line x1="290.81" y1="621.86" x2="3859.02" y2="621.86" style="stroke:#EAF2F3;stroke-width:8.64"/>
	<line x1="290.81" y1="269.78" x2="3859.02" y2="269.78" style="stroke:#EAF2F3;stroke-width:8.64"/>
	<circle cx="371.25" cy="1326.15" r="26.35" style="fill:#1A476F"/>
	<circle cx="371.25" cy="1326.15" r="22.03" style="fill:none;stroke:#1A476F;stroke-width:8.64"/>
	<circle cx="388.45" cy="1466.98" r="26.35" style="fill:#1A476F"/>
	<circle cx="388.45" cy="1466.98" r="22.03" style="fill:none;stroke:#1A476F;stroke-width:8.64"/>
	<circle cx="405.65" cy="1396.56" r="26.35" style="fill:#1A476F"/>
	<circle cx="405.65" cy="1396.56" r="22.03" style="fill:none;stroke:#1A476F;stroke-width:8.64"/>
	<circle cx="422.85" cy="1502.25" r="26.35" style="fill:#1A476F"/>
	<circle cx="422.85" cy="1502.25" r="22.03" style="fill:none;stroke:#1A476F;stroke-width:8.64"/>
	<circle cx="440.18" cy="1502.25" r="26.35" style="fill:#1A476F"/>
	<circle cx="440.18" cy="1502.25" r="22.03" style="fill:none;stroke:#1A476F;stroke-width:8.64"/>
	<circle cx="457.38" cy="1502.25" r="26.35" style="fill:#1A476F"/>
	<circle cx="457.38" cy="1502.25" r="22.03" style="fill:none;stroke:#1A476F;stroke-width:8.64"/>
	<circle cx="474.58" cy="1396.56" r="26.35" style="fill:#1A476F"/>
	<circle cx="474.58" cy="1396.56" r="22.03" style="fill:none;stroke:#1A476F;stroke-width:8.64"/>
	<circle cx="491.78" cy="1326.15" r="26.35" style="fill:#1A476F"/>
	<circle cx="491.78" cy="1326.15" r="22.03" style="fill:none;stroke:#1A476F;stroke-width:8.64"/>
	<circle cx="508.98" cy="1361.42" r="26.35" style="fill:#1A476F"/>
	<circle cx="508.98" cy="1361.42" r="22.03" style="fill:none;stroke:#1A476F;stroke-width:8.64"/>
	<circle cx="526.18" cy="1431.83" r="26.35" style="fill:#1A476F"/>
	<circle cx="526.18" cy="1431.83" r="22.03" style="fill:none;stroke:#1A476F;stroke-width:8.64"/>
	<circle cx="543.39" cy="1572.66" r="26.35" style="fill:#1A476F"/>
	<circle cx="543.39" cy="1572.66" r="22.03" style="fill:none;stroke:#1A476F;stroke-width:8.64"/>
	<circle cx="560.59" cy="1396.56" r="26.35" style="fill:#1A476F"/>
	<circle cx="560.59" cy="1396.56" r="22.03" style="fill:none;stroke:#1A476F;stroke-width:8.64"/>
	<circle cx="577.79" cy="1607.81" r="26.35" style="fill:#1A476F"/>
	<circle cx="577.79" cy="1607.81" r="22.03" style="fill:none;stroke:#1A476F;stroke-width:8.64"/>
	<circle cx="594.99" cy="1572.66" r="26.35" style="fill:#1A476F"/>
	<circle cx="594.99" cy="1572.66" r="22.03" style="fill:none;stroke:#1A476F;stroke-width:8.64"/>
	<circle cx="612.19" cy="1361.42" r="26.35" style="fill:#1A476F"/>
	<circle cx="612.19" cy="1361.42" r="22.03" style="fill:none;stroke:#1A476F;stroke-width:8.64"/>
	<circle cx="629.39" cy="1643.08" r="26.35" style="fill:#1A476F"/>
	<circle cx="629.39" cy="1643.08" r="22.03" style="fill:none;stroke:#1A476F;stroke-width:8.64"/>
	<circle cx="646.59" cy="1466.98" r="26.35" style="fill:#1A476F"/>
	<circle cx="646.59" cy="1466.98" r="22.03" style="fill:none;stroke:#1A476F;stroke-width:8.64"/>
	<circle cx="663.80" cy="1361.42" r="26.35" style="fill:#1A476F"/>
	<circle cx="663.80" cy="1361.42" r="22.03" style="fill:none;stroke:#1A476F;stroke-width:8.64"/>
	<circle cx="681.00" cy="1396.56" r="26.35" style="fill:#1A476F"/>
	<circle cx="681.00" cy="1396.56" r="22.03" style="fill:none;stroke:#1A476F;stroke-width:8.64"/>
	<circle cx="698.20" cy="1643.08" r="26.35" style="fill:#1A476F"/>
	<circle cx="698.20" cy="1643.08" r="22.03" style="fill:none;stroke:#1A476F;stroke-width:8.64"/>
	<circle cx="715.40" cy="1643.08" r="26.35" style="fill:#1A476F"/>
	<circle cx="715.40" cy="1643.08" r="22.03" style="fill:none;stroke:#1A476F;stroke-width:8.64"/>
	<circle cx="732.60" cy="1431.83" r="26.35" style="fill:#1A476F"/>
	<circle cx="732.60" cy="1431.83" r="22.03" style="fill:none;stroke:#1A476F;stroke-width:8.64"/>
	<circle cx="749.80" cy="1854.33" r="26.35" style="fill:#1A476F"/>
	<circle cx="749.80" cy="1854.33" r="22.03" style="fill:none;stroke:#1A476F;stroke-width:8.64"/>
	<circle cx="767.13" cy="1396.56" r="26.35" style="fill:#1A476F"/>
	<circle cx="767.13" cy="1396.56" r="22.03" style="fill:none;stroke:#1A476F;stroke-width:8.64"/>
	<circle cx="784.33" cy="1361.42" r="26.35" style="fill:#1A476F"/>
	<circle cx="784.33" cy="1361.42" r="22.03" style="fill:none;stroke:#1A476F;stroke-width:8.64"/>
	<circle cx="801.53" cy="1748.77" r="26.35" style="fill:#1A476F"/>
	<circle cx="801.53" cy="1748.77" r="22.03" style="fill:none;stroke:#1A476F;stroke-width:8.64"/>
	<circle cx="818.73" cy="1854.33" r="26.35" style="fill:#1A476F"/>
	<circle cx="818.73" cy="1854.33" r="22.03" style="fill:none;stroke:#1A476F;stroke-width:8.64"/>
	<circle cx="835.93" cy="1607.81" r="26.35" style="fill:#1A476F"/>
	<circle cx="835.93" cy="1607.81" r="22.03" style="fill:none;stroke:#1A476F;stroke-width:8.64"/>
	<circle cx="853.13" cy="1748.77" r="26.35" style="fill:#1A476F"/>
	<circle cx="853.13" cy="1748.77" r="22.03" style="fill:none;stroke:#1A476F;stroke-width:8.64"/>
	<circle cx="870.33" cy="1819.18" r="26.35" style="fill:#1A476F"/>
	<circle cx="870.33" cy="1819.18" r="22.03" style="fill:none;stroke:#1A476F;stroke-width:8.64"/>
	<circle cx="887.54" cy="1678.23" r="26.35" style="fill:#1A476F"/>
	<circle cx="887.54" cy="1678.23" r="22.03" style="fill:none;stroke:#1A476F;stroke-width:8.64"/>
	<circle cx="904.74" cy="1572.66" r="26.35" style="fill:#1A476F"/>
	<circle cx="904.74" cy="1572.66" r="22.03" style="fill:none;stroke:#1A476F;stroke-width:8.64"/>
	<circle cx="921.94" cy="1924.74" r="26.35" style="fill:#1A476F"/>
	<circle cx="921.94" cy="1924.74" r="22.03" style="fill:none;stroke:#1A476F;stroke-width:8.64"/>
	<circle cx="939.14" cy="1502.25" r="26.35" style="fill:#1A476F"/>
	<circle cx="939.14" cy="1502.25" r="22.03" style="fill:none;stroke:#1A476F;stroke-width:8.64"/>
	<circle cx="956.34" cy="1995.16" r="26.35" style="fill:#1A476F"/>
	<circle cx="956.34" cy="1995.16" r="22.03" style="fill:none;stroke:#1A476F;stroke-width:8.64"/>
	<circle cx="973.54" cy="1502.25" r="26.35" style="fill:#1A476F"/>
	<circle cx="973.54" cy="1502.25" r="22.03" style="fill:none;stroke:#1A476F;stroke-width:8.64"/>
	<circle cx="990.74" cy="1466.98" r="26.35" style="fill:#1A476F"/>
	<circle cx="990.74" cy="1466.98" r="22.03" style="fill:none;stroke:#1A476F;stroke-width:8.64"/>
	<circle cx="1007.94" cy="1713.50" r="26.35" style="fill:#1A476F"/>
	<circle cx="1007.94" cy="1713.50" r="22.03" style="fill:none;stroke:#1A476F;stroke-width:8.64"/>
	<circle cx="1025.15" cy="1572.66" r="26.35" style="fill:#1A476F"/>
	<circle cx="1025.15" cy="1572.66" r="22.03" style="fill:none;stroke:#1A476F;stroke-width:8.64"/>
	<circle cx="1042.35" cy="1572.66" r="26.35" style="fill:#1A476F"/>
	<circle cx="1042.35" cy="1572.66" r="22.03" style="fill:none;stroke:#1A476F;stroke-width:8.64"/>
	<circle cx="1059.55" cy="1537.39" r="26.35" style="fill:#1A476F"/>
	<circle cx="1059.55" cy="1537.39" r="22.03" style="fill:none;stroke:#1A476F;stroke-width:8.64"/>
	<circle cx="1076.87" cy="1607.81" r="26.35" style="fill:#1A476F"/>
	<circle cx="1076.87" cy="1607.81" r="22.03" style="fill:none;stroke:#1A476F;stroke-width:8.64"/>
	<circle cx="1094.07" cy="1643.08" r="26.35" style="fill:#1A476F"/>
	<circle cx="1094.07" cy="1643.08" r="22.03" style="fill:none;stroke:#1A476F;stroke-width:8.64"/>
	<circle cx="1111.28" cy="1960.01" r="26.35" style="fill:#1A476F"/>
	<circle cx="1111.28" cy="1960.01" r="22.03" style="fill:none;stroke:#1A476F;stroke-width:8.64"/>
	<circle cx="1128.48" cy="1431.83" r="26.35" style="fill:#1A476F"/>
	<circle cx="1128.48" cy="1431.83" r="22.03" style="fill:none;stroke:#1A476F;stroke-width:8.64"/>
	<circle cx="1145.68" cy="2030.43" r="26.35" style="fill:#1A476F"/>
	<circle cx="1145.68" cy="2030.43" r="22.03" style="fill:none;stroke:#1A476F;stroke-width:8.64"/>
	<circle cx="1162.88" cy="1960.01" r="26.35" style="fill:#1A476F"/>
	<circle cx="1162.88" cy="1960.01" r="22.03" style="fill:none;stroke:#1A476F;stroke-width:8.64"/>
	<circle cx="1180.08" cy="1607.81" r="26.35" style="fill:#1A476F"/>
	<circle cx="1180.08" cy="1607.81" r="22.03" style="fill:none;stroke:#1A476F;stroke-width:8.64"/>
	<circle cx="1197.28" cy="1713.50" r="26.35" style="fill:#1A476F"/>
	<circle cx="1197.28" cy="1713.50" r="22.03" style="fill:none;stroke:#1A476F;stroke-width:8.64"/>
	<circle cx="1214.48" cy="1960.01" r="26.35" style="fill:#1A476F"/>
	<circle cx="1214.48" cy="1960.01" r="22.03" style="fill:none;stroke:#1A476F;stroke-width:8.64"/>
	<circle cx="1231.68" cy="1889.60" r="26.35" style="fill:#1A476F"/>
	<circle cx="1231.68" cy="1889.60" r="22.03" style="fill:none;stroke:#1A476F;stroke-width:8.64"/>
	<circle cx="1248.89" cy="1924.74" r="26.35" style="fill:#1A476F"/>
	<circle cx="1248.89" cy="1924.74" r="22.03" style="fill:none;stroke:#1A476F;stroke-width:8.64"/>
	<circle cx="1266.09" cy="1960.01" r="26.35" style="fill:#1A476F"/>
	<circle cx="1266.09" cy="1960.01" r="22.03" style="fill:none;stroke:#1A476F;stroke-width:8.64"/>
	<circle cx="1283.29" cy="1924.74" r="26.35" style="fill:#1A476F"/>
	<circle cx="1283.29" cy="1924.74" r="22.03" style="fill:none;stroke:#1A476F;stroke-width:8.64"/>
	<circle cx="1300.49" cy="1889.60" r="26.35" style="fill:#1A476F"/>
	<circle cx="1300.49" cy="1889.60" r="22.03" style="fill:none;stroke:#1A476F;stroke-width:8.64"/>
	<circle cx="1317.69" cy="1924.74" r="26.35" style="fill:#1A476F"/>
	<circle cx="1317.69" cy="1924.74" r="22.03" style="fill:none;stroke:#1A476F;stroke-width:8.64"/>
	<circle cx="1334.89" cy="1678.23" r="26.35" style="fill:#1A476F"/>
	<circle cx="1334.89" cy="1678.23" r="22.03" style="fill:none;stroke:#1A476F;stroke-width:8.64"/>
	<circle cx="1352.09" cy="1995.16" r="26.35" style="fill:#1A476F"/>
	<circle cx="1352.09" cy="1995.16" r="22.03" style="fill:none;stroke:#1A476F;stroke-width:8.64"/>
	<circle cx="1369.29" cy="1783.91" r="26.35" style="fill:#1A476F"/>
	<circle cx="1369.29" cy="1783.91" r="22.03" style="fill:none;stroke:#1A476F;stroke-width:8.64"/>
	<circle cx="1386.50" cy="1995.16" r="26.35" style="fill:#1A476F"/>
	<circle cx="1386.50" cy="1995.16" r="22.03" style="fill:none;stroke:#1A476F;stroke-width:8.64"/>
	<circle cx="1403.82" cy="1889.60" r="26.35" style="fill:#1A476F"/>
	<circle cx="1403.82" cy="1889.60" r="22.03" style="fill:none;stroke:#1A476F;stroke-width:8.64"/>
	<circle cx="1421.02" cy="1960.01" r="26.35" style="fill:#1A476F"/>
	<circle cx="1421.02" cy="1960.01" r="22.03" style="fill:none;stroke:#1A476F;stroke-width:8.64"/>
	<circle cx="1438.22" cy="1678.23" r="26.35" style="fill:#1A476F"/>
	<circle cx="1438.22" cy="1678.23" r="22.03" style="fill:none;stroke:#1A476F;stroke-width:8.64"/>
	<circle cx="1455.42" cy="1748.77" r="26.35" style="fill:#1A476F"/>
	<circle cx="1455.42" cy="1748.77" r="22.03" style="fill:none;stroke:#1A476F;stroke-width:8.64"/>
	<circle cx="1472.63" cy="1713.50" r="26.35" style="fill:#1A476F"/>
	<circle cx="1472.63" cy="1713.50" r="22.03" style="fill:none;stroke:#1A476F;stroke-width:8.64"/>
	<circle cx="1489.83" cy="1678.23" r="26.35" style="fill:#1A476F"/>
	<circle cx="1489.83" cy="1678.23" r="22.03" style="fill:none;stroke:#1A476F;stroke-width:8.64"/>
	<circle cx="1507.03" cy="1819.18" r="26.35" style="fill:#1A476F"/>
	<circle cx="1507.03" cy="1819.18" r="22.03" style="fill:none;stroke:#1A476F;stroke-width:8.64"/>
	<circle cx="1524.23" cy="1960.01" r="26.35" style="fill:#1A476F"/>
	<circle cx="1524.23" cy="1960.01" r="22.03" style="fill:none;stroke:#1A476F;stroke-width:8.64"/>
	<circle cx="1541.43" cy="1713.50" r="26.35" style="fill:#1A476F"/>
	<circle cx="1541.43" cy="1713.50" r="22.03" style="fill:none;stroke:#1A476F;stroke-width:8.64"/>
	<circle cx="1558.63" cy="1889.60" r="26.35" style="fill:#1A476F"/>
	<circle cx="1558.63" cy="1889.60" r="22.03" style="fill:none;stroke:#1A476F;stroke-width:8.64"/>
	<circle cx="1575.83" cy="1502.25" r="26.35" style="fill:#1A476F"/>
	<circle cx="1575.83" cy="1502.25" r="22.03" style="fill:none;stroke:#1A476F;stroke-width:8.64"/>
	<circle cx="1593.03" cy="1995.16" r="26.35" style="fill:#1A476F"/>
	<circle cx="1593.03" cy="1995.16" r="22.03" style="fill:none;stroke:#1A476F;stroke-width:8.64"/>
	<circle cx="1610.24" cy="1854.33" r="26.35" style="fill:#1A476F"/>
	<circle cx="1610.24" cy="1854.33" r="22.03" style="fill:none;stroke:#1A476F;stroke-width:8.64"/>
	<circle cx="1627.44" cy="1889.60" r="26.35" style="fill:#1A476F"/>
	<circle cx="1627.44" cy="1889.60" r="22.03" style="fill:none;stroke:#1A476F;stroke-width:8.64"/>
	<circle cx="1644.64" cy="1924.74" r="26.35" style="fill:#1A476F"/>
	<circle cx="1644.64" cy="1924.74" r="22.03" style="fill:none;stroke:#1A476F;stroke-width:8.64"/>
	<circle cx="1661.84" cy="1643.08" r="26.35" style="fill:#1A476F"/>
	<circle cx="1661.84" cy="1643.08" r="22.03" style="fill:none;stroke:#1A476F;stroke-width:8.64"/>
	<circle cx="1679.04" cy="1819.18" r="26.35" style="fill:#1A476F"/>
	<circle cx="1679.04" cy="1819.18" r="22.03" style="fill:none;stroke:#1A476F;stroke-width:8.64"/>
	<circle cx="1696.24" cy="2030.43" r="26.35" style="fill:#1A476F"/>
	<circle cx="1696.24" cy="2030.43" r="22.03" style="fill:none;stroke:#1A476F;stroke-width:8.64"/>
	<circle cx="1713.44" cy="1678.23" r="26.35" style="fill:#1A476F"/>
	<circle cx="1713.44" cy="1678.23" r="22.03" style="fill:none;stroke:#1A476F;stroke-width:8.64"/>
	<circle cx="1730.77" cy="1995.16" r="26.35" style="fill:#1A476F"/>
	<circle cx="1730.77" cy="1995.16" r="22.03" style="fill:none;stroke:#1A476F;stroke-width:8.64"/>
	<circle cx="1747.97" cy="1783.91" r="26.35" style="fill:#1A476F"/>
	<circle cx="1747.97" cy="1783.91" r="22.03" style="fill:none;stroke:#1A476F;stroke-width:8.64"/>
	<circle cx="1765.17" cy="1466.98" r="26.35" style="fill:#1A476F"/>
	<circle cx="1765.17" cy="1466.98" r="22.03" style="fill:none;stroke:#1A476F;stroke-width:8.64"/>
	<circle cx="1782.37" cy="1502.25" r="26.35" style="fill:#1A476F"/>
	<circle cx="1782.37" cy="1502.25" r="22.03" style="fill:none;stroke:#1A476F;stroke-width:8.64"/>
	<circle cx="1799.57" cy="1854.33" r="26.35" style="fill:#1A476F"/>
	<circle cx="1799.57" cy="1854.33" r="22.03" style="fill:none;stroke:#1A476F;stroke-width:8.64"/>
	<circle cx="1816.77" cy="1537.39" r="26.35" style="fill:#1A476F"/>
	<circle cx="1816.77" cy="1537.39" r="22.03" style="fill:none;stroke:#1A476F;stroke-width:8.64"/>
	<circle cx="1833.98" cy="1924.74" r="26.35" style="fill:#1A476F"/>
	<circle cx="1833.98" cy="1924.74" r="22.03" style="fill:none;stroke:#1A476F;stroke-width:8.64"/>
	<circle cx="1851.18" cy="1678.23" r="26.35" style="fill:#1A476F"/>
	<circle cx="1851.18" cy="1678.23" r="22.03" style="fill:none;stroke:#1A476F;stroke-width:8.64"/>
	<circle cx="1868.38" cy="1854.33" r="26.35" style="fill:#1A476F"/>
	<circle cx="1868.38" cy="1854.33" r="22.03" style="fill:none;stroke:#1A476F;stroke-width:8.64"/>
	<circle cx="1885.58" cy="1924.74" r="26.35" style="fill:#1A476F"/>
	<circle cx="1885.58" cy="1924.74" r="22.03" style="fill:none;stroke:#1A476F;stroke-width:8.64"/>
	<circle cx="1902.78" cy="1502.25" r="26.35" style="fill:#1A476F"/>
	<circle cx="1902.78" cy="1502.25" r="22.03" style="fill:none;stroke:#1A476F;stroke-width:8.64"/>
	<circle cx="1919.98" cy="1361.42" r="26.35" style="fill:#1A476F"/>
	<circle cx="1919.98" cy="1361.42" r="22.03" style="fill:none;stroke:#1A476F;stroke-width:8.64"/>
	<circle cx="1937.18" cy="1502.25" r="26.35" style="fill:#1A476F"/>
	<circle cx="1937.18" cy="1502.25" r="22.03" style="fill:none;stroke:#1A476F;stroke-width:8.64"/>
	<circle cx="1954.38" cy="1255.73" r="26.35" style="fill:#1A476F"/>
	<circle cx="1954.38" cy="1255.73" r="22.03" style="fill:none;stroke:#1A476F;stroke-width:8.64"/>
	<circle cx="1971.59" cy="1150.17" r="26.35" style="fill:#1A476F"/>
	<circle cx="1971.59" cy="1150.17" r="22.03" style="fill:none;stroke:#1A476F;stroke-width:8.64"/>
	<circle cx="1988.79" cy="1361.42" r="26.35" style="fill:#1A476F"/>
	<circle cx="1988.79" cy="1361.42" r="22.03" style="fill:none;stroke:#1A476F;stroke-width:8.64"/>
	<circle cx="2005.99" cy="1537.39" r="26.35" style="fill:#1A476F"/>
	<circle cx="2005.99" cy="1537.39" r="22.03" style="fill:none;stroke:#1A476F;stroke-width:8.64"/>
	<circle cx="2023.19" cy="1960.01" r="26.35" style="fill:#1A476F"/>
	<circle cx="2023.19" cy="1960.01" r="22.03" style="fill:none;stroke:#1A476F;stroke-width:8.64"/>
	<circle cx="2040.51" cy="1150.17" r="26.35" style="fill:#1A476F"/>
	<circle cx="2040.51" cy="1150.17" r="22.03" style="fill:none;stroke:#1A476F;stroke-width:8.64"/>
	<circle cx="2057.72" cy="1537.39" r="26.35" style="fill:#1A476F"/>
	<circle cx="2057.72" cy="1537.39" r="22.03" style="fill:none;stroke:#1A476F;stroke-width:8.64"/>
	<circle cx="2074.92" cy="1150.17" r="26.35" style="fill:#1A476F"/>
	<circle cx="2074.92" cy="1150.17" r="22.03" style="fill:none;stroke:#1A476F;stroke-width:8.64"/>
	<circle cx="2092.12" cy="269.91" r="26.35" style="fill:#1A476F"/>
	<circle cx="2092.12" cy="269.91" r="22.03" style="fill:none;stroke:#1A476F;stroke-width:8.64"/>
	<circle cx="2109.32" cy="586.72" r="26.35" style="fill:#1A476F"/>
	<circle cx="2109.32" cy="586.72" r="22.03" style="fill:none;stroke:#1A476F;stroke-width:8.64"/>
	<circle cx="2126.52" cy="621.99" r="26.35" style="fill:#1A476F"/>
	<circle cx="2126.52" cy="621.99" r="22.03" style="fill:none;stroke:#1A476F;stroke-width:8.64"/>
	<circle cx="2143.72" cy="516.30" r="26.35" style="fill:#1A476F"/>
	<circle cx="2143.72" cy="516.30" r="22.03" style="fill:none;stroke:#1A476F;stroke-width:8.64"/>
	<circle cx="2160.92" cy="445.89" r="26.35" style="fill:#1A476F"/>
	<circle cx="2160.92" cy="445.89" r="22.03" style="fill:none;stroke:#1A476F;stroke-width:8.64"/>
	<circle cx="2178.12" cy="657.13" r="26.35" style="fill:#1A476F"/>
	<circle cx="2178.12" cy="657.13" r="22.03" style="fill:none;stroke:#1A476F;stroke-width:8.64"/>
	<circle cx="2195.32" cy="445.89" r="26.35" style="fill:#1A476F"/>
	<circle cx="2195.32" cy="445.89" r="22.03" style="fill:none;stroke:#1A476F;stroke-width:8.64"/>
	<circle cx="2212.53" cy="445.89" r="26.35" style="fill:#1A476F"/>
	<circle cx="2212.53" cy="445.89" r="22.03" style="fill:none;stroke:#1A476F;stroke-width:8.64"/>
	<circle cx="2229.73" cy="445.89" r="26.35" style="fill:#1A476F"/>
	<circle cx="2229.73" cy="445.89" r="22.03" style="fill:none;stroke:#1A476F;stroke-width:8.64"/>
	<circle cx="2246.93" cy="375.47" r="26.35" style="fill:#1A476F"/>
	<circle cx="2246.93" cy="375.47" r="22.03" style="fill:none;stroke:#1A476F;stroke-width:8.64"/>
	<circle cx="2264.13" cy="516.30" r="26.35" style="fill:#1A476F"/>
	<circle cx="2264.13" cy="516.30" r="22.03" style="fill:none;stroke:#1A476F;stroke-width:8.64"/>
	<circle cx="2281.33" cy="516.30" r="26.35" style="fill:#1A476F"/>
	<circle cx="2281.33" cy="516.30" r="22.03" style="fill:none;stroke:#1A476F;stroke-width:8.64"/>
	<circle cx="2298.53" cy="833.23" r="26.35" style="fill:#1A476F"/>
	<circle cx="2298.53" cy="833.23" r="22.03" style="fill:none;stroke:#1A476F;stroke-width:8.64"/>
	<circle cx="2315.73" cy="586.72" r="26.35" style="fill:#1A476F"/>
	<circle cx="2315.73" cy="586.72" r="22.03" style="fill:none;stroke:#1A476F;stroke-width:8.64"/>
	<circle cx="2332.94" cy="305.05" r="26.35" style="fill:#1A476F"/>
	<circle cx="2332.94" cy="305.05" r="22.03" style="fill:none;stroke:#1A476F;stroke-width:8.64"/>
	<circle cx="2350.14" cy="797.96" r="26.35" style="fill:#1A476F"/>
	<circle cx="2350.14" cy="797.96" r="22.03" style="fill:none;stroke:#1A476F;stroke-width:8.64"/>
	<circle cx="2367.46" cy="516.30" r="26.35" style="fill:#1A476F"/>
	<circle cx="2367.46" cy="516.30" r="22.03" style="fill:none;stroke:#1A476F;stroke-width:8.64"/>
	<circle cx="2384.66" cy="481.16" r="26.35" style="fill:#1A476F"/>
	<circle cx="2384.66" cy="481.16" r="22.03" style="fill:none;stroke:#1A476F;stroke-width:8.64"/>
	<circle cx="2401.86" cy="481.16" r="26.35" style="fill:#1A476F"/>
	<circle cx="2401.86" cy="481.16" r="22.03" style="fill:none;stroke:#1A476F;stroke-width:8.64"/>
	<circle cx="2419.07" cy="586.72" r="26.35" style="fill:#1A476F"/>
	<circle cx="2419.07" cy="586.72" r="22.03" style="fill:none;stroke:#1A476F;stroke-width:8.64"/>
	<circle cx="2436.27" cy="586.72" r="26.35" style="fill:#1A476F"/>
	<circle cx="2436.27" cy="586.72" r="22.03" style="fill:none;stroke:#1A476F;stroke-width:8.64"/>
	<circle cx="2453.47" cy="551.57" r="26.35" style="fill:#1A476F"/>
	<circle cx="2453.47" cy="551.57" r="22.03" style="fill:none;stroke:#1A476F;stroke-width:8.64"/>
	<circle cx="2470.67" cy="1079.75" r="26.35" style="fill:#1A476F"/>
	<circle cx="2470.67" cy="1079.75" r="22.03" style="fill:none;stroke:#1A476F;stroke-width:8.64"/>
	<circle cx="2487.87" cy="410.74" r="26.35" style="fill:#1A476F"/>
	<circle cx="2487.87" cy="410.74" r="22.03" style="fill:none;stroke:#1A476F;stroke-width:8.64"/>
	<circle cx="2505.07" cy="305.05" r="26.35" style="fill:#1A476F"/>
	<circle cx="2505.07" cy="305.05" r="22.03" style="fill:none;stroke:#1A476F;stroke-width:8.64"/>
	<circle cx="2522.27" cy="903.65" r="26.35" style="fill:#1A476F"/>
	<circle cx="2522.27" cy="903.65" r="22.03" style="fill:none;stroke:#1A476F;stroke-width:8.64"/>
	<circle cx="2539.47" cy="903.65" r="26.35" style="fill:#1A476F"/>
	<circle cx="2539.47" cy="903.65" r="22.03" style="fill:none;stroke:#1A476F;stroke-width:8.64"/>
	<circle cx="2556.68" cy="727.55" r="26.35" style="fill:#1A476F"/>
	<circle cx="2556.68" cy="727.55" r="22.03" style="fill:none;stroke:#1A476F;stroke-width:8.64"/>
	<circle cx="2573.88" cy="833.23" r="26.35" style="fill:#1A476F"/>
	<circle cx="2573.88" cy="833.23" r="22.03" style="fill:none;stroke:#1A476F;stroke-width:8.64"/>
	<circle cx="2591.08" cy="762.82" r="26.35" style="fill:#1A476F"/>
	<circle cx="2591.08" cy="762.82" r="22.03" style="fill:none;stroke:#1A476F;stroke-width:8.64"/>
	<circle cx="2608.28" cy="621.99" r="26.35" style="fill:#1A476F"/>
	<circle cx="2608.28" cy="621.99" r="22.03" style="fill:none;stroke:#1A476F;stroke-width:8.64"/>
	<circle cx="2625.48" cy="692.40" r="26.35" style="fill:#1A476F"/>
	<circle cx="2625.48" cy="692.40" r="22.03" style="fill:none;stroke:#1A476F;stroke-width:8.64"/>
	<circle cx="2642.68" cy="1150.17" r="26.35" style="fill:#1A476F"/>
	<circle cx="2642.68" cy="1150.17" r="22.03" style="fill:none;stroke:#1A476F;stroke-width:8.64"/>
	<circle cx="2659.88" cy="516.30" r="26.35" style="fill:#1A476F"/>
	<circle cx="2659.88" cy="516.30" r="22.03" style="fill:none;stroke:#1A476F;stroke-width:8.64"/>
	<circle cx="2677.21" cy="938.92" r="26.35" style="fill:#1A476F"/>
	<circle cx="2677.21" cy="938.92" r="22.03" style="fill:none;stroke:#1A476F;stroke-width:8.64"/>
	<circle cx="2694.41" cy="657.13" r="26.35" style="fill:#1A476F"/>
	<circle cx="2694.41" cy="657.13" r="22.03" style="fill:none;stroke:#1A476F;stroke-width:8.64"/>
	<circle cx="2711.61" cy="516.30" r="26.35" style="fill:#1A476F"/>
	<circle cx="2711.61" cy="516.30" r="22.03" style="fill:none;stroke:#1A476F;stroke-width:8.64"/>
	<circle cx="2728.81" cy="833.23" r="26.35" style="fill:#1A476F"/>
	<circle cx="2728.81" cy="833.23" r="22.03" style="fill:none;stroke:#1A476F;stroke-width:8.64"/>
	<circle cx="2746.01" cy="657.13" r="26.35" style="fill:#1A476F"/>
	<circle cx="2746.01" cy="657.13" r="22.03" style="fill:none;stroke:#1A476F;stroke-width:8.64"/>
	<circle cx="2763.21" cy="516.30" r="26.35" style="fill:#1A476F"/>
	<circle cx="2763.21" cy="516.30" r="22.03" style="fill:none;stroke:#1A476F;stroke-width:8.64"/>
	<circle cx="2780.42" cy="481.16" r="26.35" style="fill:#1A476F"/>
	<circle cx="2780.42" cy="481.16" r="22.03" style="fill:none;stroke:#1A476F;stroke-width:8.64"/>
	<circle cx="2797.62" cy="727.55" r="26.35" style="fill:#1A476F"/>
	<circle cx="2797.62" cy="727.55" r="22.03" style="fill:none;stroke:#1A476F;stroke-width:8.64"/>
	<circle cx="2814.82" cy="868.38" r="26.35" style="fill:#1A476F"/>
	<circle cx="2814.82" cy="868.38" r="22.03" style="fill:none;stroke:#1A476F;stroke-width:8.64"/>
	<circle cx="2832.02" cy="974.07" r="26.35" style="fill:#1A476F"/>
	<circle cx="2832.02" cy="974.07" r="22.03" style="fill:none;stroke:#1A476F;stroke-width:8.64"/>
	<circle cx="2849.22" cy="375.47" r="26.35" style="fill:#1A476F"/>
	<circle cx="2849.22" cy="375.47" r="22.03" style="fill:none;stroke:#1A476F;stroke-width:8.64"/>
	<circle cx="2866.42" cy="1185.31" r="26.35" style="fill:#1A476F"/>
	<circle cx="2866.42" cy="1185.31" r="22.03" style="fill:none;stroke:#1A476F;stroke-width:8.64"/>
	<circle cx="2883.62" cy="1009.34" r="26.35" style="fill:#1A476F"/>
	<circle cx="2883.62" cy="1009.34" r="22.03" style="fill:none;stroke:#1A476F;stroke-width:8.64"/>
	<circle cx="2900.82" cy="727.55" r="26.35" style="fill:#1A476F"/>
	<circle cx="2900.82" cy="727.55" r="22.03" style="fill:none;stroke:#1A476F;stroke-width:8.64"/>
	<circle cx="2918.03" cy="797.96" r="26.35" style="fill:#1A476F"/>
	<circle cx="2918.03" cy="797.96" r="22.03" style="fill:none;stroke:#1A476F;stroke-width:8.64"/>
	<circle cx="2935.23" cy="903.65" r="26.35" style="fill:#1A476F"/>
	<circle cx="2935.23" cy="903.65" r="22.03" style="fill:none;stroke:#1A476F;stroke-width:8.64"/>
	<circle cx="2952.43" cy="833.23" r="26.35" style="fill:#1A476F"/>
	<circle cx="2952.43" cy="833.23" r="22.03" style="fill:none;stroke:#1A476F;stroke-width:8.64"/>
	<circle cx="2969.63" cy="1044.48" r="26.35" style="fill:#1A476F"/>
	<circle cx="2969.63" cy="1044.48" r="22.03" style="fill:none;stroke:#1A476F;stroke-width:8.64"/>
	<circle cx="2986.83" cy="1185.31" r="26.35" style="fill:#1A476F"/>
	<circle cx="2986.83" cy="1185.31" r="22.03" style="fill:none;stroke:#1A476F;stroke-width:8.64"/>
	<circle cx="3004.16" cy="938.92" r="26.35" style="fill:#1A476F"/>
	<circle cx="3004.16" cy="938.92" r="22.03" style="fill:none;stroke:#1A476F;stroke-width:8.64"/>
	<circle cx="3021.36" cy="833.23" r="26.35" style="fill:#1A476F"/>
	<circle cx="3021.36" cy="833.23" r="22.03" style="fill:none;stroke:#1A476F;stroke-width:8.64"/>
	<circle cx="3038.56" cy="1079.75" r="26.35" style="fill:#1A476F"/>
	<circle cx="3038.56" cy="1079.75" r="22.03" style="fill:none;stroke:#1A476F;stroke-width:8.64"/>
	<circle cx="3055.76" cy="727.55" r="26.35" style="fill:#1A476F"/>
	<circle cx="3055.76" cy="727.55" r="22.03" style="fill:none;stroke:#1A476F;stroke-width:8.64"/>
	<circle cx="3072.96" cy="1114.90" r="26.35" style="fill:#1A476F"/>
	<circle cx="3072.96" cy="1114.90" r="22.03" style="fill:none;stroke:#1A476F;stroke-width:8.64"/>
	<circle cx="3090.16" cy="868.38" r="26.35" style="fill:#1A476F"/>
	<circle cx="3090.16" cy="868.38" r="22.03" style="fill:none;stroke:#1A476F;stroke-width:8.64"/>
	<circle cx="3107.36" cy="938.92" r="26.35" style="fill:#1A476F"/>
	<circle cx="3107.36" cy="938.92" r="22.03" style="fill:none;stroke:#1A476F;stroke-width:8.64"/>
	<circle cx="3124.56" cy="833.23" r="26.35" style="fill:#1A476F"/>
	<circle cx="3124.56" cy="833.23" r="22.03" style="fill:none;stroke:#1A476F;stroke-width:8.64"/>
	<circle cx="3141.77" cy="1079.75" r="26.35" style="fill:#1A476F"/>
	<circle cx="3141.77" cy="1079.75" r="22.03" style="fill:none;stroke:#1A476F;stroke-width:8.64"/>
	<circle cx="3158.97" cy="903.65" r="26.35" style="fill:#1A476F"/>
	<circle cx="3158.97" cy="903.65" r="22.03" style="fill:none;stroke:#1A476F;stroke-width:8.64"/>
	<circle cx="3176.17" cy="762.82" r="26.35" style="fill:#1A476F"/>
	<circle cx="3176.17" cy="762.82" r="22.03" style="fill:none;stroke:#1A476F;stroke-width:8.64"/>
	<circle cx="3193.37" cy="657.13" r="26.35" style="fill:#1A476F"/>
	<circle cx="3193.37" cy="657.13" r="22.03" style="fill:none;stroke:#1A476F;stroke-width:8.64"/>
	<circle cx="3210.57" cy="833.23" r="26.35" style="fill:#1A476F"/>
	<circle cx="3210.57" cy="833.23" r="22.03" style="fill:none;stroke:#1A476F;stroke-width:8.64"/>
	<circle cx="3227.77" cy="868.38" r="26.35" style="fill:#1A476F"/>
	<circle cx="3227.77" cy="868.38" r="22.03" style="fill:none;stroke:#1A476F;stroke-width:8.64"/>
	<circle cx="3244.97" cy="1079.75" r="26.35" style="fill:#1A476F"/>
	<circle cx="3244.97" cy="1079.75" r="22.03" style="fill:none;stroke:#1A476F;stroke-width:8.64"/>
	<circle cx="3262.17" cy="797.96" r="26.35" style="fill:#1A476F"/>
	<circle cx="3262.17" cy="797.96" r="22.03" style="fill:none;stroke:#1A476F;stroke-width:8.64"/>
	<circle cx="3279.38" cy="833.23" r="26.35" style="fill:#1A476F"/>
	<circle cx="3279.38" cy="833.23" r="22.03" style="fill:none;stroke:#1A476F;stroke-width:8.64"/>
	<circle cx="3296.58" cy="445.89" r="26.35" style="fill:#1A476F"/>
	<circle cx="3296.58" cy="445.89" r="22.03" style="fill:none;stroke:#1A476F;stroke-width:8.64"/>
	<circle cx="3313.78" cy="1114.90" r="26.35" style="fill:#1A476F"/>
	<circle cx="3313.78" cy="1114.90" r="22.03" style="fill:none;stroke:#1A476F;stroke-width:8.64"/>
	<circle cx="3331.10" cy="1079.75" r="26.35" style="fill:#1A476F"/>
	<circle cx="3331.10" cy="1079.75" r="22.03" style="fill:none;stroke:#1A476F;stroke-width:8.64"/>
	<circle cx="3348.30" cy="903.65" r="26.35" style="fill:#1A476F"/>
	<circle cx="3348.30" cy="903.65" r="22.03" style="fill:none;stroke:#1A476F;stroke-width:8.64"/>
	<circle cx="3365.51" cy="868.38" r="26.35" style="fill:#1A476F"/>
	<circle cx="3365.51" cy="868.38" r="22.03" style="fill:none;stroke:#1A476F;stroke-width:8.64"/>
	<circle cx="3382.71" cy="797.96" r="26.35" style="fill:#1A476F"/>
	<circle cx="3382.71" cy="797.96" r="22.03" style="fill:none;stroke:#1A476F;stroke-width:8.64"/>
	<circle cx="3399.91" cy="868.38" r="26.35" style="fill:#1A476F"/>
	<circle cx="3399.91" cy="868.38" r="22.03" style="fill:none;stroke:#1A476F;stroke-width:8.64"/>
	<circle cx="3417.11" cy="1150.17" r="26.35" style="fill:#1A476F"/>
	<circle cx="3417.11" cy="1150.17" r="22.03" style="fill:none;stroke:#1A476F;stroke-width:8.64"/>
	<circle cx="3434.31" cy="762.82" r="26.35" style="fill:#1A476F"/>
	<circle cx="3434.31" cy="762.82" r="22.03" style="fill:none;stroke:#1A476F;stroke-width:8.64"/>
	<circle cx="3451.51" cy="938.92" r="26.35" style="fill:#1A476F"/>
	<circle cx="3451.51" cy="938.92" r="22.03" style="fill:none;stroke:#1A476F;stroke-width:8.64"/>
	<circle cx="3468.71" cy="727.55" r="26.35" style="fill:#1A476F"/>
	<circle cx="3468.71" cy="727.55" r="22.03" style="fill:none;stroke:#1A476F;stroke-width:8.64"/>
	<circle cx="3485.91" cy="586.72" r="26.35" style="fill:#1A476F"/>
	<circle cx="3485.91" cy="586.72" r="22.03" style="fill:none;stroke:#1A476F;stroke-width:8.64"/>
	<circle cx="3503.12" cy="727.55" r="26.35" style="fill:#1A476F"/>
	<circle cx="3503.12" cy="727.55" r="22.03" style="fill:none;stroke:#1A476F;stroke-width:8.64"/>
	<circle cx="3520.32" cy="868.38" r="26.35" style="fill:#1A476F"/>
	<circle cx="3520.32" cy="868.38" r="22.03" style="fill:none;stroke:#1A476F;stroke-width:8.64"/>
	<circle cx="3537.52" cy="481.16" r="26.35" style="fill:#1A476F"/>
	<circle cx="3537.52" cy="481.16" r="22.03" style="fill:none;stroke:#1A476F;stroke-width:8.64"/>
	<circle cx="3554.72" cy="1079.75" r="26.35" style="fill:#1A476F"/>
	<circle cx="3554.72" cy="1079.75" r="22.03" style="fill:none;stroke:#1A476F;stroke-width:8.64"/>
	<circle cx="3571.92" cy="727.55" r="26.35" style="fill:#1A476F"/>
	<circle cx="3571.92" cy="727.55" r="22.03" style="fill:none;stroke:#1A476F;stroke-width:8.64"/>
	<circle cx="3589.12" cy="974.07" r="26.35" style="fill:#1A476F"/>
	<circle cx="3589.12" cy="974.07" r="22.03" style="fill:none;stroke:#1A476F;stroke-width:8.64"/>
	<circle cx="3606.32" cy="1009.34" r="26.35" style="fill:#1A476F"/>
	<circle cx="3606.32" cy="1009.34" r="22.03" style="fill:none;stroke:#1A476F;stroke-width:8.64"/>
	<circle cx="3623.52" cy="445.89" r="26.35" style="fill:#1A476F"/>
	<circle cx="3623.52" cy="445.89" r="22.03" style="fill:none;stroke:#1A476F;stroke-width:8.64"/>
	<circle cx="3640.85" cy="305.05" r="26.35" style="fill:#1A476F"/>
	<circle cx="3640.85" cy="305.05" r="22.03" style="fill:none;stroke:#1A476F;stroke-width:8.64"/>
	<circle cx="3658.05" cy="621.99" r="26.35" style="fill:#1A476F"/>
	<circle cx="3658.05" cy="621.99" r="22.03" style="fill:none;stroke:#1A476F;stroke-width:8.64"/>
	<circle cx="3675.25" cy="481.16" r="26.35" style="fill:#1A476F"/>
	<circle cx="3675.25" cy="481.16" r="22.03" style="fill:none;stroke:#1A476F;stroke-width:8.64"/>
	<circle cx="3692.45" cy="164.22" r="26.35" style="fill:#1A476F"/>
	<circle cx="3692.45" cy="164.22" r="22.03" style="fill:none;stroke:#1A476F;stroke-width:8.64"/>
	<circle cx="3709.65" cy="305.05" r="26.35" style="fill:#1A476F"/>
	<circle cx="3709.65" cy="305.05" r="22.03" style="fill:none;stroke:#1A476F;stroke-width:8.64"/>
	<circle cx="3726.86" cy="692.40" r="26.35" style="fill:#1A476F"/>
	<circle cx="3726.86" cy="692.40" r="22.03" style="fill:none;stroke:#1A476F;stroke-width:8.64"/>
	<circle cx="3744.06" cy="1009.34" r="26.35" style="fill:#1A476F"/>
	<circle cx="3744.06" cy="1009.34" r="22.03" style="fill:none;stroke:#1A476F;stroke-width:8.64"/>
	<circle cx="3761.26" cy="621.99" r="26.35" style="fill:#1A476F"/>
	<circle cx="3761.26" cy="621.99" r="22.03" style="fill:none;stroke:#1A476F;stroke-width:8.64"/>
	<circle cx="3778.46" cy="621.99" r="26.35" style="fill:#1A476F"/>
	<circle cx="3778.46" cy="621.99" r="22.03" style="fill:none;stroke:#1A476F;stroke-width:8.64"/>
	<circle cx="3795.66" cy="974.07" r="26.35" style="fill:#1A476F"/>
	<circle cx="3795.66" cy="974.07" r="22.03" style="fill:none;stroke:#1A476F;stroke-width:8.64"/>
	<path d=" M371.25 1575.76 L1223.02 1660.03 L2074.92 1744.19" stroke-linejoin="round" style="fill:none;stroke:#90353B;stroke-width:8.64"/>
	<path d=" M2092.12 613.57 L2943.89 732.13 L3795.66 850.81" stroke-linejoin="round" style="fill:none;stroke:#55752F;stroke-width:8.64"/>
	<line x1="290.81" y1="2093.67" x2="290.81" y2="100.86" style="stroke:#000000;stroke-width:5.76"/>
	<line x1="290.81" y1="2030.31" x2="250.84" y2="2030.31" style="stroke:#000000;stroke-width:5.76"/>
	<text x="200.73" y="2030.31" style="font-family:'Helvetica';font-size:99.99px;fill:#000000" transform="rotate(-90 200.73,2030.31)" text-anchor="middle">40</text>
	<line x1="290.81" y1="1678.23" x2="250.84" y2="1678.23" style="stroke:#000000;stroke-width:5.76"/>
	<text x="200.73" y="1678.23" style="font-family:'Helvetica';font-size:99.99px;fill:#000000" transform="rotate(-90 200.73,1678.23)" text-anchor="middle">50</text>
	<line x1="290.81" y1="1326.15" x2="250.84" y2="1326.15" style="stroke:#000000;stroke-width:5.76"/>
	<text x="200.73" y="1326.15" style="font-family:'Helvetica';font-size:99.99px;fill:#000000" transform="rotate(-90 200.73,1326.15)" text-anchor="middle">60</text>
	<line x1="290.81" y1="974.07" x2="250.84" y2="974.07" style="stroke:#000000;stroke-width:5.76"/>
	<text x="200.73" y="974.07" style="font-family:'Helvetica';font-size:99.99px;fill:#000000" transform="rotate(-90 200.73,974.07)" text-anchor="middle">70</text>
	<line x1="290.81" y1="621.86" x2="250.84" y2="621.86" style="stroke:#000000;stroke-width:5.76"/>
	<text x="200.73" y="621.86" style="font-family:'Helvetica';font-size:99.99px;fill:#000000" transform="rotate(-90 200.73,621.86)" text-anchor="middle">80</text>
	<line x1="290.81" y1="269.78" x2="250.84" y2="269.78" style="stroke:#000000;stroke-width:5.76"/>
	<text x="200.73" y="269.78" style="font-family:'Helvetica';font-size:99.99px;fill:#000000" transform="rotate(-90 200.73,269.78)" text-anchor="middle">90</text>
	<line x1="290.81" y1="2093.67" x2="3859.02" y2="2093.67" style="stroke:#000000;stroke-width:5.76"/>
	<line x1="354.17" y1="2093.67" x2="354.17" y2="2133.64" style="stroke:#000000;stroke-width:5.76"/>
	<text x="354.17" y="2223.62" style="font-family:'Helvetica';font-size:99.99px;fill:#000000" text-anchor="middle">0</text>
	<line x1="1214.48" y1="2093.67" x2="1214.48" y2="2133.64" style="stroke:#000000;stroke-width:5.76"/>
	<text x="1214.48" y="2223.62" style="font-family:'Helvetica';font-size:99.99px;fill:#000000" text-anchor="middle">50</text>
	<line x1="2074.92" y1="2093.67" x2="2074.92" y2="2133.64" style="stroke:#000000;stroke-width:5.76"/>
	<text x="2074.92" y="2223.62" style="font-family:'Helvetica';font-size:99.99px;fill:#000000" text-anchor="middle">100</text>
	<line x1="2935.35" y1="2093.67" x2="2935.35" y2="2133.64" style="stroke:#000000;stroke-width:5.76"/>
	<text x="2935.35" y="2223.62" style="font-family:'Helvetica';font-size:99.99px;fill:#000000" text-anchor="middle">150</text>
	<line x1="3795.66" y1="2093.67" x2="3795.66" y2="2133.64" style="stroke:#000000;stroke-width:5.76"/>
	<text x="3795.66" y="2223.62" style="font-family:'Helvetica';font-size:99.99px;fill:#000000" text-anchor="middle">200</text>
	<text x="2074.92" y="2333.64" style="font-family:'Helvetica';font-size:99.99px;fill:#000000" text-anchor="middle">x</text>
	<rect x="944.09" y="2418.27" width="2261.78" height="326.34" style="fill:#FFFFFF"/>
	<rect x="946.97" y="2421.15" width="2256.02" height="320.58" style="fill:none;stroke:#000000;stroke-width:5.76"/>
	<circle cx="1174.39" cy="2511.46" r="26.35" style="fill:#1A476F"/>
	<circle cx="1174.39" cy="2511.46" r="22.03" style="fill:none;stroke:#1A476F;stroke-width:8.64"/>
	<line x1="2144.96" y1="2511.46" x2="2519.30" y2="2511.46" style="stroke:#90353B;stroke-width:8.64"/>
	<line x1="987.28" y1="2651.43" x2="1361.62" y2="2651.43" style="stroke:#55752F;stroke-width:8.64"/>
	<text x="1421.64" y="2546.49" style="font-family:'Helvetica';font-size:99.99px;fill:#000000">y</text>
	<text x="2579.32" y="2546.49" style="font-family:'Helvetica';font-size:99.99px;fill:#000000">Fitted values</text>
	<text x="1421.64" y="2686.46" style="font-family:'Helvetica';font-size:99.99px;fill:#000000">Fitted values</text>
</svg>
