<?xml version="1.0" encoding="UTF-8" standalone="no"?>
<!-- This is a Stata 17.0 generated SVG file (http://www.stata.com) -->

<svg version="1.1" width="5.500in" height="4.000in" viewBox="0 0 3960 2880" xmlns="http://www.w3.org/2000/svg" xmlns:xlink="http://www.w3.org/1999/xlink">
	<desc>Stata Graph - Graph</desc>
	<rect x="0" y="0" width="3960" height="2880" style="fill:#EAF2F3;stroke:none"/>
	<rect x="0.00" y="0.00" width="3959.88" height="2880.00" style="fill:#EAF2F3"/>
	<rect x="2.88" y="2.88" width="3954.12" height="2874.24" style="fill:none;stroke:#EAF2F3;stroke-width:5.76"/>
	<rect x="290.81" y="100.86" width="3568.21" height="2132.77" style="fill:#FFFFFF"/>
	<rect x="293.69" y="103.74" width="3562.45" height="2127.01" style="fill:none;stroke:#FFFFFF;stroke-width:5.76"/>
	<line x1="290.81" y1="2170.27" x2="3859.02" y2="2170.27" style="stroke:#EAF2F3;stroke-width:8.64"/>
	<line x1="290.81" y1="1791.83" x2="3859.02" y2="1791.83" style="stroke:#EAF2F3;stroke-width:8.64"/>
	<line x1="290.81" y1="1413.27" x2="3859.02" y2="1413.27" style="stroke:#EAF2F3;stroke-width:8.64"/>
	<line x1="290.81" y1="1034.71" x2="3859.02" y2="1034.71" style="stroke:#EAF2F3;stroke-width:8.64"/>
	<line x1="290.81" y1="656.27" x2="3859.02" y2="656.27" style="stroke:#EAF2F3;stroke-width:8.64"/>
	<line x1="290.81" y1="277.70" x2="3859.02" y2="277.70" style="stroke:#EAF2F3;stroke-width:8.64"/>
	<circle cx="371.25" cy="1413.39" r="26.35" style="fill:#1A476F"/>
	<circle cx="371.25" cy="1413.39" r="22.03" style="fill:none;stroke:#1A476F;stroke-width:8.64"/>
	<circle cx="388.45" cy="1564.74" r="26.35" style="fill:#1A476F"/>
	<circle cx="388.45" cy="1564.74" r="22.03" style="fill:none;stroke:#1A476F;stroke-width:8.64"/>
	<circle cx="405.65" cy="1489.01" r="26.35" style="fill:#1A476F"/>
	<circle cx="405.65" cy="1489.01" r="22.03" style="fill:none;stroke:#1A476F;stroke-width:8.64"/>
	<circle cx="422.85" cy="1602.61" r="26.35" style="fill:#1A476F"/>
	<circle cx="422.85" cy="1602.61" r="22.03" style="fill:none;stroke:#1A476F;stroke-width:8.64"/>
	<circle cx="440.18" cy="1602.61" r="26.35" style="fill:#1A476F"/>
	<circle cx="440.18" cy="1602.61" r="22.03" style="fill:none;stroke:#1A476F;stroke-width:8.64"/>
	<circle cx="457.38" cy="1602.61" r="26.35" style="fill:#1A476F"/>
	<circle cx="457.38" cy="1602.61" r="22.03" style="fill:none;stroke:#1A476F;stroke-width:8.64"/>
	<circle cx="474.58" cy="1489.01" r="26.35" style="fill:#1A476F"/>
	<circle cx="474.58" cy="1489.01" r="22.03" style="fill:none;stroke:#1A476F;stroke-width:8.64"/>
	<circle cx="491.78" cy="1413.39" r="26.35" style="fill:#1A476F"/>
	<circle cx="491.78" cy="1413.39" r="22.03" style="fill:none;stroke:#1A476F;stroke-width:8.64"/>
	<circle cx="508.98" cy="1451.14" r="26.35" style="fill:#1A476F"/>
	<circle cx="508.98" cy="1451.14" r="22.03" style="fill:none;stroke:#1A476F;stroke-width:8.64"/>
	<circle cx="526.18" cy="1526.88" r="26.35" style="fill:#1A476F"/>
	<circle cx="526.18" cy="1526.88" r="22.03" style="fill:none;stroke:#1A476F;stroke-width:8.64"/>
	<circle cx="543.39" cy="1678.35" r="26.35" style="fill:#1A476F"/>
	<circle cx="543.39" cy="1678.35" r="22.03" style="fill:none;stroke:#1A476F;stroke-width:8.64"/>
	<circle cx="560.59" cy="1489.01" r="26.35" style="fill:#1A476F"/>
	<circle cx="560.59" cy="1489.01" r="22.03" style="fill:none;stroke:#1A476F;stroke-width:8.64"/>
	<circle cx="577.79" cy="1716.22" r="26.35" style="fill:#1A476F"/>
	<circle cx="577.79" cy="1716.22" r="22.03" style="fill:none;stroke:#1A476F;stroke-width:8.64"/>
	<circle cx="594.99" cy="1678.35" r="26.35" style="fill:#1A476F"/>
	<circle cx="594.99" cy="1678.35" r="22.03" style="fill:none;stroke:#1A476F;stroke-width:8.64"/>
	<circle cx="612.19" cy="1451.14" r="26.35" style="fill:#1A476F"/>
	<circle cx="612.19" cy="1451.14" r="22.03" style="fill:none;stroke:#1A476F;stroke-width:8.64"/>
	<circle cx="629.39" cy="1753.96" r="26.35" style="fill:#1A476F"/>
	<circle cx="629.39" cy="1753.96" r="22.03" style="fill:none;stroke:#1A476F;stroke-width:8.64"/>
	<circle cx="646.59" cy="1564.74" r="26.35" style="fill:#1A476F"/>
	<circle cx="646.59" cy="1564.74" r="22.03" style="fill:none;stroke:#1A476F;stroke-width:8.64"/>
	<circle cx="663.80" cy="1451.14" r="26.35" style="fill:#1A476F"/>
	<circle cx="663.80" cy="1451.14" r="22.03" style="fill:none;stroke:#1A476F;stroke-width:8.64"/>
	<circle cx="681.00" cy="1489.01" r="26.35" style="fill:#1A476F"/>
	<circle cx="681.00" cy="1489.01" r="22.03" style="fill:none;stroke:#1A476F;stroke-width:8.64"/>
	<circle cx="698.20" cy="1753.96" r="26.35" style="fill:#1A476F"/>
	<circle cx="698.20" cy="1753.96" r="22.03" style="fill:none;stroke:#1A476F;stroke-width:8.64"/>
	<circle cx="715.40" cy="1753.96" r="26.35" style="fill:#1A476F"/>
	<circle cx="715.40" cy="1753.96" r="22.03" style="fill:none;stroke:#1A476F;stroke-width:8.64"/>
	<circle cx="732.60" cy="1526.88" r="26.35" style="fill:#1A476F"/>
	<circle cx="732.60" cy="1526.88" r="22.03" style="fill:none;stroke:#1A476F;stroke-width:8.64"/>
	<circle cx="749.80" cy="1981.18" r="26.35" style="fill:#1A476F"/>
	<circle cx="749.80" cy="1981.18" r="22.03" style="fill:none;stroke:#1A476F;stroke-width:8.64"/>
	<circle cx="767.13" cy="1489.01" r="26.35" style="fill:#1A476F"/>
	<circle cx="767.13" cy="1489.01" r="22.03" style="fill:none;stroke:#1A476F;stroke-width:8.64"/>
	<circle cx="784.33" cy="1451.14" r="26.35" style="fill:#1A476F"/>
	<circle cx="784.33" cy="1451.14" r="22.03" style="fill:none;stroke:#1A476F;stroke-width:8.64"/>
	<circle cx="801.53" cy="1867.57" r="26.35" style="fill:#1A476F"/>
	<circle cx="801.53" cy="1867.57" r="22.03" style="fill:none;stroke:#1A476F;stroke-width:8.64"/>
	<circle cx="818.73" cy="1981.18" r="26.35" style="fill:#1A476F"/>
	<circle cx="818.73" cy="1981.18" r="22.03" style="fill:none;stroke:#1A476F;stroke-width:8.64"/>
	<circle cx="835.93" cy="1716.22" r="26.35" style="fill:#1A476F"/>
	<circle cx="835.93" cy="1716.22" r="22.03" style="fill:none;stroke:#1A476F;stroke-width:8.64"/>
	<circle cx="853.13" cy="1867.57" r="26.35" style="fill:#1A476F"/>
	<circle cx="853.13" cy="1867.57" r="22.03" style="fill:none;stroke:#1A476F;stroke-width:8.64"/>
	<circle cx="870.33" cy="1943.31" r="26.35" style="fill:#1A476F"/>
	<circle cx="870.33" cy="1943.31" r="22.03" style="fill:none;stroke:#1A476F;stroke-width:8.64"/>
	<circle cx="887.54" cy="1791.83" r="26.35" style="fill:#1A476F"/>
	<circle cx="887.54" cy="1791.83" r="22.03" style="fill:none;stroke:#1A476F;stroke-width:8.64"/>
	<circle cx="904.74" cy="1678.35" r="26.35" style="fill:#1A476F"/>
	<circle cx="904.74" cy="1678.35" r="22.03" style="fill:none;stroke:#1A476F;stroke-width:8.64"/>
	<circle cx="921.94" cy="2056.79" r="26.35" style="fill:#1A476F"/>
	<circle cx="921.94" cy="2056.79" r="22.03" style="fill:none;stroke:#1A476F;stroke-width:8.64"/>
	<circle cx="939.14" cy="1602.61" r="26.35" style="fill:#1A476F"/>
	<circle cx="939.14" cy="1602.61" r="22.03" style="fill:none;stroke:#1A476F;stroke-width:8.64"/>
	<circle cx="956.34" cy="2132.53" r="26.35" style="fill:#1A476F"/>
	<circle cx="956.34" cy="2132.53" r="22.03" style="fill:none;stroke:#1A476F;stroke-width:8.64"/>
	<circle cx="973.54" cy="1602.61" r="26.35" style="fill:#1A476F"/>
	<circle cx="973.54" cy="1602.61" r="22.03" style="fill:none;stroke:#1A476F;stroke-width:8.64"/>
	<circle cx="990.74" cy="1564.74" r="26.35" style="fill:#1A476F"/>
	<circle cx="990.74" cy="1564.74" r="22.03" style="fill:none;stroke:#1A476F;stroke-width:8.64"/>
	<circle cx="1007.94" cy="1829.70" r="26.35" style="fill:#1A476F"/>
	<circle cx="1007.94" cy="1829.70" r="22.03" style="fill:none;stroke:#1A476F;stroke-width:8.64"/>
	<circle cx="1025.15" cy="1678.35" r="26.35" style="fill:#1A476F"/>
	<circle cx="1025.15" cy="1678.35" r="22.03" style="fill:none;stroke:#1A476F;stroke-width:8.64"/>
	<circle cx="1042.35" cy="1678.35" r="26.35" style="fill:#1A476F"/>
	<circle cx="1042.35" cy="1678.35" r="22.03" style="fill:none;stroke:#1A476F;stroke-width:8.64"/>
	<circle cx="1059.55" cy="1640.48" r="26.35" style="fill:#1A476F"/>
	<circle cx="1059.55" cy="1640.48" r="22.03" style="fill:none;stroke:#1A476F;stroke-width:8.64"/>
	<circle cx="1076.87" cy="1716.22" r="26.35" style="fill:#1A476F"/>
	<circle cx="1076.87" cy="1716.22" r="22.03" style="fill:none;stroke:#1A476F;stroke-width:8.64"/>
	<circle cx="1094.07" cy="1753.96" r="26.35" style="fill:#1A476F"/>
	<circle cx="1094.07" cy="1753.96" r="22.03" style="fill:none;stroke:#1A476F;stroke-width:8.64"/>
	<circle cx="1111.28" cy="2094.66" r="26.35" style="fill:#1A476F"/>
	<circle cx="1111.28" cy="2094.66" r="22.03" style="fill:none;stroke:#1A476F;stroke-width:8.64"/>
	<circle cx="1128.48" cy="1526.88" r="26.35" style="fill:#1A476F"/>
	<circle cx="1128.48" cy="1526.88" r="22.03" style="fill:none;stroke:#1A476F;stroke-width:8.64"/>
	<circle cx="1145.68" cy="2170.40" r="26.35" style="fill:#1A476F"/>
	<circle cx="1145.68" cy="2170.40" r="22.03" style="fill:none;stroke:#1A476F;stroke-width:8.64"/>
	<circle cx="1162.88" cy="2094.66" r="26.35" style="fill:#1A476F"/>
	<circle cx="1162.88" cy="2094.66" r="22.03" style="fill:none;stroke:#1A476F;stroke-width:8.64"/>
	<circle cx="1180.08" cy="1716.22" r="26.35" style="fill:#1A476F"/>
	<circle cx="1180.08" cy="1716.22" r="22.03" style="fill:none;stroke:#1A476F;stroke-width:8.64"/>
	<circle cx="1197.28" cy="1829.70" r="26.35" style="fill:#1A476F"/>
	<circle cx="1197.28" cy="1829.70" r="22.03" style="fill:none;stroke:#1A476F;stroke-width:8.64"/>
	<circle cx="1214.48" cy="2094.66" r="26.35" style="fill:#1A476F"/>
	<circle cx="1214.48" cy="2094.66" r="22.03" style="fill:none;stroke:#1A476F;stroke-width:8.64"/>
	<circle cx="1231.68" cy="2018.92" r="26.35" style="fill:#1A476F"/>
	<circle cx="1231.68" cy="2018.92" r="22.03" style="fill:none;stroke:#1A476F;stroke-width:8.64"/>
	<circle cx="1248.89" cy="2056.79" r="26.35" style="fill:#1A476F"/>
	<circle cx="1248.89" cy="2056.79" r="22.03" style="fill:none;stroke:#1A476F;stroke-width:8.64"/>
	<circle cx="1266.09" cy="2094.66" r="26.35" style="fill:#1A476F"/>
	<circle cx="1266.09" cy="2094.66" r="22.03" style="fill:none;stroke:#1A476F;stroke-width:8.64"/>
	<circle cx="1283.29" cy="2056.79" r="26.35" style="fill:#1A476F"/>
	<circle cx="1283.29" cy="2056.79" r="22.03" style="fill:none;stroke:#1A476F;stroke-width:8.64"/>
	<circle cx="1300.49" cy="2018.92" r="26.35" style="fill:#1A476F"/>
	<circle cx="1300.49" cy="2018.92" r="22.03" style="fill:none;stroke:#1A476F;stroke-width:8.64"/>
	<circle cx="1317.69" cy="2056.79" r="26.35" style="fill:#1A476F"/>
	<circle cx="1317.69" cy="2056.79" r="22.03" style="fill:none;stroke:#1A476F;stroke-width:8.64"/>
	<circle cx="1334.89" cy="1791.83" r="26.35" style="fill:#1A476F"/>
	<circle cx="1334.89" cy="1791.83" r="22.03" style="fill:none;stroke:#1A476F;stroke-width:8.64"/>
	<circle cx="1352.09" cy="2132.53" r="26.35" style="fill:#1A476F"/>
	<circle cx="1352.09" cy="2132.53" r="22.03" style="fill:none;stroke:#1A476F;stroke-width:8.64"/>
	<circle cx="1369.29" cy="1905.44" r="26.35" style="fill:#1A476F"/>
	<circle cx="1369.29" cy="1905.44" r="22.03" style="fill:none;stroke:#1A476F;stroke-width:8.64"/>
	<circle cx="1386.50" cy="2132.53" r="26.35" style="fill:#1A476F"/>
	<circle cx="1386.50" cy="2132.53" r="22.03" style="fill:none;stroke:#1A476F;stroke-width:8.64"/>
	<circle cx="1403.82" cy="2018.92" r="26.35" style="fill:#1A476F"/>
	<circle cx="1403.82" cy="2018.92" r="22.03" style="fill:none;stroke:#1A476F;stroke-width:8.64"/>
	<circle cx="1421.02" cy="2094.66" r="26.35" style="fill:#1A476F"/>
	<circle cx="1421.02" cy="2094.66" r="22.03" style="fill:none;stroke:#1A476F;stroke-width:8.64"/>
	<circle cx="1438.22" cy="1791.83" r="26.35" style="fill:#1A476F"/>
	<circle cx="1438.22" cy="1791.83" r="22.03" style="fill:none;stroke:#1A476F;stroke-width:8.64"/>
	<circle cx="1455.42" cy="1867.57" r="26.35" style="fill:#1A476F"/>
	<circle cx="1455.42" cy="1867.57" r="22.03" style="fill:none;stroke:#1A476F;stroke-width:8.64"/>
	<circle cx="1472.63" cy="1829.70" r="26.35" style="fill:#1A476F"/>
	<circle cx="1472.63" cy="1829.70" r="22.03" style="fill:none;stroke:#1A476F;stroke-width:8.64"/>
	<circle cx="1489.83" cy="1791.83" r="26.35" style="fill:#1A476F"/>
	<circle cx="1489.83" cy="1791.83" r="22.03" style="fill:none;stroke:#1A476F;stroke-width:8.64"/>
	<circle cx="1507.03" cy="1943.31" r="26.35" style="fill:#1A476F"/>
	<circle cx="1507.03" cy="1943.31" r="22.03" style="fill:none;stroke:#1A476F;stroke-width:8.64"/>
	<circle cx="1524.23" cy="2094.66" r="26.35" style="fill:#1A476F"/>
	<circle cx="1524.23" cy="2094.66" r="22.03" style="fill:none;stroke:#1A476F;stroke-width:8.64"/>
	<circle cx="1541.43" cy="1829.70" r="26.35" style="fill:#1A476F"/>
	<circle cx="1541.43" cy="1829.70" r="22.03" style="fill:none;stroke:#1A476F;stroke-width:8.64"/>
	<circle cx="1558.63" cy="2018.92" r="26.35" style="fill:#1A476F"/>
	<circle cx="1558.63" cy="2018.92" r="22.03" style="fill:none;stroke:#1A476F;stroke-width:8.64"/>
	<circle cx="1575.83" cy="1602.61" r="26.35" style="fill:#1A476F"/>
	<circle cx="1575.83" cy="1602.61" r="22.03" style="fill:none;stroke:#1A476F;stroke-width:8.64"/>
	<circle cx="1593.03" cy="2132.53" r="26.35" style="fill:#1A476F"/>
	<circle cx="1593.03" cy="2132.53" r="22.03" style="fill:none;stroke:#1A476F;stroke-width:8.64"/>
	<circle cx="1610.24" cy="1981.18" r="26.35" style="fill:#1A476F"/>
	<circle cx="1610.24" cy="1981.18" r="22.03" style="fill:none;stroke:#1A476F;stroke-width:8.64"/>
	<circle cx="1627.44" cy="2018.92" r="26.35" style="fill:#1A476F"/>
	<circle cx="1627.44" cy="2018.92" r="22.03" style="fill:none;stroke:#1A476F;stroke-width:8.64"/>
	<circle cx="1644.64" cy="2056.79" r="26.35" style="fill:#1A476F"/>
	<circle cx="1644.64" cy="2056.79" r="22.03" style="fill:none;stroke:#1A476F;stroke-width:8.64"/>
	<circle cx="1661.84" cy="1753.96" r="26.35" style="fill:#1A476F"/>
	<circle cx="1661.84" cy="1753.96" r="22.03" style="fill:none;stroke:#1A476F;stroke-width:8.64"/>
	<circle cx="1679.04" cy="1943.31" r="26.35" style="fill:#1A476F"/>
	<circle cx="1679.04" cy="1943.31" r="22.03" style="fill:none;stroke:#1A476F;stroke-width:8.64"/>
	<circle cx="1696.24" cy="2170.40" r="26.35" style="fill:#1A476F"/>
	<circle cx="1696.24" cy="2170.40" r="22.03" style="fill:none;stroke:#1A476F;stroke-width:8.64"/>
	<circle cx="1713.44" cy="1791.83" r="26.35" style="fill:#1A476F"/>
	<circle cx="1713.44" cy="1791.83" r="22.03" style="fill:none;stroke:#1A476F;stroke-width:8.64"/>
	<circle cx="1730.77" cy="2132.53" r="26.35" style="fill:#1A476F"/>
	<circle cx="1730.77" cy="2132.53" r="22.03" style="fill:none;stroke:#1A476F;stroke-width:8.64"/>
	<circle cx="1747.97" cy="1905.44" r="26.35" style="fill:#1A476F"/>
	<circle cx="1747.97" cy="1905.44" r="22.03" style="fill:none;stroke:#1A476F;stroke-width:8.64"/>
	<circle cx="1765.17" cy="1564.74" r="26.35" style="fill:#1A476F"/>
	<circle cx="1765.17" cy="1564.74" r="22.03" style="fill:none;stroke:#1A476F;stroke-width:8.64"/>
	<circle cx="1782.37" cy="1602.61" r="26.35" style="fill:#1A476F"/>
	<circle cx="1782.37" cy="1602.61" r="22.03" style="fill:none;stroke:#1A476F;stroke-width:8.64"/>
	<circle cx="1799.57" cy="1981.18" r="26.35" style="fill:#1A476F"/>
	<circle cx="1799.57" cy="1981.18" r="22.03" style="fill:none;stroke:#1A476F;stroke-width:8.64"/>
	<circle cx="1816.77" cy="1640.48" r="26.35" style="fill:#1A476F"/>
	<circle cx="1816.77" cy="1640.48" r="22.03" style="fill:none;stroke:#1A476F;stroke-width:8.64"/>
	<circle cx="1833.98" cy="2056.79" r="26.35" style="fill:#1A476F"/>
	<circle cx="1833.98" cy="2056.79" r="22.03" style="fill:none;stroke:#1A476F;stroke-width:8.64"/>
	<circle cx="1851.18" cy="1791.83" r="26.35" style="fill:#1A476F"/>
	<circle cx="1851.18" cy="1791.83" r="22.03" style="fill:none;stroke:#1A476F;stroke-width:8.64"/>
	<circle cx="1868.38" cy="1981.18" r="26.35" style="fill:#1A476F"/>
	<circle cx="1868.38" cy="1981.18" r="22.03" style="fill:none;stroke:#1A476F;stroke-width:8.64"/>
	<circle cx="1885.58" cy="2056.79" r="26.35" style="fill:#1A476F"/>
	<circle cx="1885.58" cy="2056.79" r="22.03" style="fill:none;stroke:#1A476F;stroke-width:8.64"/>
	<circle cx="1902.78" cy="1602.61" r="26.35" style="fill:#1A476F"/>
	<circle cx="1902.78" cy="1602.61" r="22.03" style="fill:none;stroke:#1A476F;stroke-width:8.64"/>
	<circle cx="1919.98" cy="1451.14" r="26.35" style="fill:#1A476F"/>
	<circle cx="1919.98" cy="1451.14" r="22.03" style="fill:none;stroke:#1A476F;stroke-width:8.64"/>
	<circle cx="1937.18" cy="1602.61" r="26.35" style="fill:#1A476F"/>
	<circle cx="1937.18" cy="1602.61" r="22.03" style="fill:none;stroke:#1A476F;stroke-width:8.64"/>
	<circle cx="1954.38" cy="1337.66" r="26.35" style="fill:#1A476F"/>
	<circle cx="1954.38" cy="1337.66" r="22.03" style="fill:none;stroke:#1A476F;stroke-width:8.64"/>
	<circle cx="1971.59" cy="1224.05" r="26.35" style="fill:#1A476F"/>
	<circle cx="1971.59" cy="1224.05" r="22.03" style="fill:none;stroke:#1A476F;stroke-width:8.64"/>
	<circle cx="1988.79" cy="1451.14" r="26.35" style="fill:#1A476F"/>
	<circle cx="1988.79" cy="1451.14" r="22.03" style="fill:none;stroke:#1A476F;stroke-width:8.64"/>
	<circle cx="2005.99" cy="1640.48" r="26.35" style="fill:#1A476F"/>
	<circle cx="2005.99" cy="1640.48" r="22.03" style="fill:none;stroke:#1A476F;stroke-width:8.64"/>
	<circle cx="2023.19" cy="2094.66" r="26.35" style="fill:#1A476F"/>
	<circle cx="2023.19" cy="2094.66" r="22.03" style="fill:none;stroke:#1A476F;stroke-width:8.64"/>
	<circle cx="2040.51" cy="1224.05" r="26.35" style="fill:#1A476F"/>
	<circle cx="2040.51" cy="1224.05" r="22.03" style="fill:none;stroke:#1A476F;stroke-width:8.64"/>
	<circle cx="2057.72" cy="1640.48" r="26.35" style="fill:#1A476F"/>
	<circle cx="2057.72" cy="1640.48" r="22.03" style="fill:none;stroke:#1A476F;stroke-width:8.64"/>
	<circle cx="2074.92" cy="1224.05" r="26.35" style="fill:#1A476F"/>
	<circle cx="2074.92" cy="1224.05" r="22.03" style="fill:none;stroke:#1A476F;stroke-width:8.64"/>
	<circle cx="2092.12" cy="277.83" r="26.35" style="fill:#1A476F"/>
	<circle cx="2092.12" cy="277.83" r="22.03" style="fill:none;stroke:#1A476F;stroke-width:8.64"/>
	<circle cx="2109.32" cy="618.40" r="26.35" style="fill:#1A476F"/>
	<circle cx="2109.32" cy="618.40" r="22.03" style="fill:none;stroke:#1A476F;stroke-width:8.64"/>
	<circle cx="2126.52" cy="656.27" r="26.35" style="fill:#1A476F"/>
	<circle cx="2126.52" cy="656.27" r="22.03" style="fill:none;stroke:#1A476F;stroke-width:8.64"/>
	<circle cx="2143.72" cy="542.78" r="26.35" style="fill:#1A476F"/>
	<circle cx="2143.72" cy="542.78" r="22.03" style="fill:none;stroke:#1A476F;stroke-width:8.64"/>
	<circle cx="2160.92" cy="467.05" r="26.35" style="fill:#1A476F"/>
	<circle cx="2160.92" cy="467.05" r="22.03" style="fill:none;stroke:#1A476F;stroke-width:8.64"/>
	<circle cx="2178.12" cy="694.14" r="26.35" style="fill:#1A476F"/>
	<circle cx="2178.12" cy="694.14" r="22.03" style="fill:none;stroke:#1A476F;stroke-width:8.64"/>
	<circle cx="2195.32" cy="467.05" r="26.35" style="fill:#1A476F"/>
	<circle cx="2195.32" cy="467.05" r="22.03" style="fill:none;stroke:#1A476F;stroke-width:8.64"/>
	<circle cx="2212.53" cy="467.05" r="26.35" style="fill:#1A476F"/>
	<circle cx="2212.53" cy="467.05" r="22.03" style="fill:none;stroke:#1A476F;stroke-width:8.64"/>
	<circle cx="2229.73" cy="467.05" r="26.35" style="fill:#1A476F"/>
	<circle cx="2229.73" cy="467.05" r="22.03" style="fill:none;stroke:#1A476F;stroke-width:8.64"/>
	<circle cx="2246.93" cy="391.31" r="26.35" style="fill:#1A476F"/>
	<circle cx="2246.93" cy="391.31" r="22.03" style="fill:none;stroke:#1A476F;stroke-width:8.64"/>
	<circle cx="2264.13" cy="542.78" r="26.35" style="fill:#1A476F"/>
	<circle cx="2264.13" cy="542.78" r="22.03" style="fill:none;stroke:#1A476F;stroke-width:8.64"/>
	<circle cx="2281.33" cy="542.78" r="26.35" style="fill:#1A476F"/>
	<circle cx="2281.33" cy="542.78" r="22.03" style="fill:none;stroke:#1A476F;stroke-width:8.64"/>
	<circle cx="2298.53" cy="883.36" r="26.35" style="fill:#1A476F"/>
	<circle cx="2298.53" cy="883.36" r="22.03" style="fill:none;stroke:#1A476F;stroke-width:8.64"/>
	<circle cx="2315.73" cy="618.40" r="26.35" style="fill:#1A476F"/>
	<circle cx="2315.73" cy="618.40" r="22.03" style="fill:none;stroke:#1A476F;stroke-width:8.64"/>
	<circle cx="2332.94" cy="315.57" r="26.35" style="fill:#1A476F"/>
	<circle cx="2332.94" cy="315.57" r="22.03" style="fill:none;stroke:#1A476F;stroke-width:8.64"/>
	<circle cx="2350.14" cy="845.61" r="26.35" style="fill:#1A476F"/>
	<circle cx="2350.14" cy="845.61" r="22.03" style="fill:none;stroke:#1A476F;stroke-width:8.64"/>
	<circle cx="2367.46" cy="542.78" r="26.35" style="fill:#1A476F"/>
	<circle cx="2367.46" cy="542.78" r="22.03" style="fill:none;stroke:#1A476F;stroke-width:8.64"/>
	<circle cx="2384.66" cy="504.92" r="26.35" style="fill:#1A476F"/>
	<circle cx="2384.66" cy="504.92" r="22.03" style="fill:none;stroke:#1A476F;stroke-width:8.64"/>
	<circle cx="2401.86" cy="504.92" r="26.35" style="fill:#1A476F"/>
	<circle cx="2401.86" cy="504.92" r="22.03" style="fill:none;stroke:#1A476F;stroke-width:8.64"/>
	<circle cx="2419.07" cy="618.40" r="26.35" style="fill:#1A476F"/>
	<circle cx="2419.07" cy="618.40" r="22.03" style="fill:none;stroke:#1A476F;stroke-width:8.64"/>
	<circle cx="2436.27" cy="618.40" r="26.35" style="fill:#1A476F"/>
	<circle cx="2436.27" cy="618.40" r="22.03" style="fill:none;stroke:#1A476F;stroke-width:8.64"/>
	<circle cx="2453.47" cy="580.65" r="26.35" style="fill:#1A476F"/>
	<circle cx="2453.47" cy="580.65" r="22.03" style="fill:none;stroke:#1A476F;stroke-width:8.64"/>
	<circle cx="2470.67" cy="1148.44" r="26.35" style="fill:#1A476F"/>
	<circle cx="2470.67" cy="1148.44" r="22.03" style="fill:none;stroke:#1A476F;stroke-width:8.64"/>
	<circle cx="2487.87" cy="429.18" r="26.35" style="fill:#1A476F"/>
	<circle cx="2487.87" cy="429.18" r="22.03" style="fill:none;stroke:#1A476F;stroke-width:8.64"/>
	<circle cx="2505.07" cy="315.57" r="26.35" style="fill:#1A476F"/>
	<circle cx="2505.07" cy="315.57" r="22.03" style="fill:none;stroke:#1A476F;stroke-width:8.64"/>
	<circle cx="2522.27" cy="959.09" r="26.35" style="fill:#1A476F"/>
	<circle cx="2522.27" cy="959.09" r="22.03" style="fill:none;stroke:#1A476F;stroke-width:8.64"/>
	<circle cx="2539.47" cy="959.09" r="26.35" style="fill:#1A476F"/>
	<circle cx="2539.47" cy="959.09" r="22.03" style="fill:none;stroke:#1A476F;stroke-width:8.64"/>
	<circle cx="2556.68" cy="769.87" r="26.35" style="fill:#1A476F"/>
	<circle cx="2556.68" cy="769.87" r="22.03" style="fill:none;stroke:#1A476F;stroke-width:8.64"/>
	<circle cx="2573.88" cy="883.36" r="26.35" style="fill:#1A476F"/>
	<circle cx="2573.88" cy="883.36" r="22.03" style="fill:none;stroke:#1A476F;stroke-width:8.64"/>
	<circle cx="2591.08" cy="807.74" r="26.35" style="fill:#1A476F"/>
	<circle cx="2591.08" cy="807.74" r="22.03" style="fill:none;stroke:#1A476F;stroke-width:8.64"/>
	<circle cx="2608.28" cy="656.27" r="26.35" style="fill:#1A476F"/>
	<circle cx="2608.28" cy="656.27" r="22.03" style="fill:none;stroke:#1A476F;stroke-width:8.64"/>
	<circle cx="2625.48" cy="732.00" r="26.35" style="fill:#1A476F"/>
	<circle cx="2625.48" cy="732.00" r="22.03" style="fill:none;stroke:#1A476F;stroke-width:8.64"/>
	<circle cx="2642.68" cy="1224.05" r="26.35" style="fill:#1A476F"/>
	<circle cx="2642.68" cy="1224.05" r="22.03" style="fill:none;stroke:#1A476F;stroke-width:8.64"/>
	<circle cx="2659.88" cy="542.78" r="26.35" style="fill:#1A476F"/>
	<circle cx="2659.88" cy="542.78" r="22.03" style="fill:none;stroke:#1A476F;stroke-width:8.64"/>
	<circle cx="2677.21" cy="996.96" r="26.35" style="fill:#1A476F"/>
	<circle cx="2677.21" cy="996.96" r="22.03" style="fill:none;stroke:#1A476F;stroke-width:8.64"/>
	<circle cx="2694.41" cy="694.14" r="26.35" style="fill:#1A476F"/>
	<circle cx="2694.41" cy="694.14" r="22.03" style="fill:none;stroke:#1A476F;stroke-width:8.64"/>
	<circle cx="2711.61" cy="542.78" r="26.35" style="fill:#1A476F"/>
	<circle cx="2711.61" cy="542.78" r="22.03" style="fill:none;stroke:#1A476F;stroke-width:8.64"/>
	<circle cx="2728.81" cy="883.36" r="26.35" style="fill:#1A476F"/>
	<circle cx="2728.81" cy="883.36" r="22.03" style="fill:none;stroke:#1A476F;stroke-width:8.64"/>
	<circle cx="2746.01" cy="694.14" r="26.35" style="fill:#1A476F"/>
	<circle cx="2746.01" cy="694.14" r="22.03" style="fill:none;stroke:#1A476F;stroke-width:8.64"/>
	<circle cx="2763.21" cy="542.78" r="26.35" style="fill:#1A476F"/>
	<circle cx="2763.21" cy="542.78" r="22.03" style="fill:none;stroke:#1A476F;stroke-width:8.64"/>
	<circle cx="2780.42" cy="504.92" r="26.35" style="fill:#1A476F"/>
	<circle cx="2780.42" cy="504.92" r="22.03" style="fill:none;stroke:#1A476F;stroke-width:8.64"/>
	<circle cx="2797.62" cy="769.87" r="26.35" style="fill:#1A476F"/>
	<circle cx="2797.62" cy="769.87" r="22.03" style="fill:none;stroke:#1A476F;stroke-width:8.64"/>
	<circle cx="2814.82" cy="921.22" r="26.35" style="fill:#1A476F"/>
	<circle cx="2814.82" cy="921.22" r="22.03" style="fill:none;stroke:#1A476F;stroke-width:8.64"/>
	<circle cx="2832.02" cy="1034.83" r="26.35" style="fill:#1A476F"/>
	<circle cx="2832.02" cy="1034.83" r="22.03" style="fill:none;stroke:#1A476F;stroke-width:8.64"/>
	<circle cx="2849.22" cy="391.31" r="26.35" style="fill:#1A476F"/>
	<circle cx="2849.22" cy="391.31" r="22.03" style="fill:none;stroke:#1A476F;stroke-width:8.64"/>
	<circle cx="2866.42" cy="1261.92" r="26.35" style="fill:#1A476F"/>
	<circle cx="2866.42" cy="1261.92" r="22.03" style="fill:none;stroke:#1A476F;stroke-width:8.64"/>
	<circle cx="2883.62" cy="1072.70" r="26.35" style="fill:#1A476F"/>
	<circle cx="2883.62" cy="1072.70" r="22.03" style="fill:none;stroke:#1A476F;stroke-width:8.64"/>
	<circle cx="2900.82" cy="769.87" r="26.35" style="fill:#1A476F"/>
	<circle cx="2900.82" cy="769.87" r="22.03" style="fill:none;stroke:#1A476F;stroke-width:8.64"/>
	<circle cx="2918.03" cy="845.61" r="26.35" style="fill:#1A476F"/>
	<circle cx="2918.03" cy="845.61" r="22.03" style="fill:none;stroke:#1A476F;stroke-width:8.64"/>
	<circle cx="2935.23" cy="959.09" r="26.35" style="fill:#1A476F"/>
	<circle cx="2935.23" cy="959.09" r="22.03" style="fill:none;stroke:#1A476F;stroke-width:8.64"/>
	<circle cx="2952.43" cy="883.36" r="26.35" style="fill:#1A476F"/>
	<circle cx="2952.43" cy="883.36" r="22.03" style="fill:none;stroke:#1A476F;stroke-width:8.64"/>
	<circle cx="2969.63" cy="1110.57" r="26.35" style="fill:#1A476F"/>
	<circle cx="2969.63" cy="1110.57" r="22.03" style="fill:none;stroke:#1A476F;stroke-width:8.64"/>
	<circle cx="2986.83" cy="1261.92" r="26.35" style="fill:#1A476F"/>
	<circle cx="2986.83" cy="1261.92" r="22.03" style="fill:none;stroke:#1A476F;stroke-width:8.64"/>
	<circle cx="3004.16" cy="996.96" r="26.35" style="fill:#1A476F"/>
	<circle cx="3004.16" cy="996.96" r="22.03" style="fill:none;stroke:#1A476F;stroke-width:8.64"/>
	<circle cx="3021.36" cy="883.36" r="26.35" style="fill:#1A476F"/>
	<circle cx="3021.36" cy="883.36" r="22.03" style="fill:none;stroke:#1A476F;stroke-width:8.64"/>
	<circle cx="3038.56" cy="1148.44" r="26.35" style="fill:#1A476F"/>
	<circle cx="3038.56" cy="1148.44" r="22.03" style="fill:none;stroke:#1A476F;stroke-width:8.64"/>
	<circle cx="3055.76" cy="769.87" r="26.35" style="fill:#1A476F"/>
	<circle cx="3055.76" cy="769.87" r="22.03" style="fill:none;stroke:#1A476F;stroke-width:8.64"/>
	<circle cx="3072.96" cy="1186.18" r="26.35" style="fill:#1A476F"/>
	<circle cx="3072.96" cy="1186.18" r="22.03" style="fill:none;stroke:#1A476F;stroke-width:8.64"/>
	<circle cx="3090.16" cy="921.22" r="26.35" style="fill:#1A476F"/>
	<circle cx="3090.16" cy="921.22" r="22.03" style="fill:none;stroke:#1A476F;stroke-width:8.64"/>
	<circle cx="3107.36" cy="996.96" r="26.35" style="fill:#1A476F"/>
	<circle cx="3107.36" cy="996.96" r="22.03" style="fill:none;stroke:#1A476F;stroke-width:8.64"/>
	<circle cx="3124.56" cy="883.36" r="26.35" style="fill:#1A476F"/>
	<circle cx="3124.56" cy="883.36" r="22.03" style="fill:none;stroke:#1A476F;stroke-width:8.64"/>
	<circle cx="3141.77" cy="1148.44" r="26.35" style="fill:#1A476F"/>
	<circle cx="3141.77" cy="1148.44" r="22.03" style="fill:none;stroke:#1A476F;stroke-width:8.64"/>
	<circle cx="3158.97" cy="959.09" r="26.35" style="fill:#1A476F"/>
	<circle cx="3158.97" cy="959.09" r="22.03" style="fill:none;stroke:#1A476F;stroke-width:8.64"/>
	<circle cx="3176.17" cy="807.74" r="26.35" style="fill:#1A476F"/>
	<circle cx="3176.17" cy="807.74" r="22.03" style="fill:none;stroke:#1A476F;stroke-width:8.64"/>
	<circle cx="3193.37" cy="694.14" r="26.35" style="fill:#1A476F"/>
	<circle cx="3193.37" cy="694.14" r="22.03" style="fill:none;stroke:#1A476F;stroke-width:8.64"/>
	<circle cx="3210.57" cy="883.36" r="26.35" style="fill:#1A476F"/>
	<circle cx="3210.57" cy="883.36" r="22.03" style="fill:none;stroke:#1A476F;stroke-width:8.64"/>
	<circle cx="3227.77" cy="921.22" r="26.35" style="fill:#1A476F"/>
	<circle cx="3227.77" cy="921.22" r="22.03" style="fill:none;stroke:#1A476F;stroke-width:8.64"/>
	<circle cx="3244.97" cy="1148.44" r="26.35" style="fill:#1A476F"/>
	<circle cx="3244.97" cy="1148.44" r="22.03" style="fill:none;stroke:#1A476F;stroke-width:8.64"/>
	<circle cx="3262.17" cy="845.61" r="26.35" style="fill:#1A476F"/>
	<circle cx="3262.17" cy="845.61" r="22.03" style="fill:none;stroke:#1A476F;stroke-width:8.64"/>
	<circle cx="3279.38" cy="883.36" r="26.35" style="fill:#1A476F"/>
	<circle cx="3279.38" cy="883.36" r="22.03" style="fill:none;stroke:#1A476F;stroke-width:8.64"/>
	<circle cx="3296.58" cy="467.05" r="26.35" style="fill:#1A476F"/>
	<circle cx="3296.58" cy="467.05" r="22.03" style="fill:none;stroke:#1A476F;stroke-width:8.64"/>
	<circle cx="3313.78" cy="1186.18" r="26.35" style="fill:#1A476F"/>
	<circle cx="3313.78" cy="1186.18" r="22.03" style="fill:none;stroke:#1A476F;stroke-width:8.64"/>
	<circle cx="3331.10" cy="1148.44" r="26.35" style="fill:#1A476F"/>
	<circle cx="3331.10" cy="1148.44" r="22.03" style="fill:none;stroke:#1A476F;stroke-width:8.64"/>
	<circle cx="3348.30" cy="959.09" r="26.35" style="fill:#1A476F"/>
	<circle cx="3348.30" cy="959.09" r="22.03" style="fill:none;stroke:#1A476F;stroke-width:8.64"/>
	<circle cx="3365.51" cy="921.22" r="26.35" style="fill:#1A476F"/>
	<circle cx="3365.51" cy="921.22" r="22.03" style="fill:none;stroke:#1A476F;stroke-width:8.64"/>
	<circle cx="3382.71" cy="845.61" r="26.35" style="fill:#1A476F"/>
	<circle cx="3382.71" cy="845.61" r="22.03" style="fill:none;stroke:#1A476F;stroke-width:8.64"/>
	<circle cx="3399.91" cy="921.22" r="26.35" style="fill:#1A476F"/>
	<circle cx="3399.91" cy="921.22" r="22.03" style="fill:none;stroke:#1A476F;stroke-width:8.64"/>
	<circle cx="3417.11" cy="1224.05" r="26.35" style="fill:#1A476F"/>
	<circle cx="3417.11" cy="1224.05" r="22.03" style="fill:none;stroke:#1A476F;stroke-width:8.64"/>
	<circle cx="3434.31" cy="807.74" r="26.35" style="fill:#1A476F"/>
	<circle cx="3434.31" cy="807.74" r="22.03" style="fill:none;stroke:#1A476F;stroke-width:8.64"/>
	<circle cx="3451.51" cy="996.96" r="26.35" style="fill:#1A476F"/>
	<circle cx="3451.51" cy="996.96" r="22.03" style="fill:none;stroke:#1A476F;stroke-width:8.64"/>
	<circle cx="3468.71" cy="769.87" r="26.35" style="fill:#1A476F"/>
	<circle cx="3468.71" cy="769.87" r="22.03" style="fill:none;stroke:#1A476F;stroke-width:8.64"/>
	<circle cx="3485.91" cy="618.40" r="26.35" style="fill:#1A476F"/>
	<circle cx="3485.91" cy="618.40" r="22.03" style="fill:none;stroke:#1A476F;stroke-width:8.64"/>
	<circle cx="3503.12" cy="769.87" r="26.35" style="fill:#1A476F"/>
	<circle cx="3503.12" cy="769.87" r="22.03" style="fill:none;stroke:#1A476F;stroke-width:8.64"/>
	<circle cx="3520.32" cy="921.22" r="26.35" style="fill:#1A476F"/>
	<circle cx="3520.32" cy="921.22" r="22.03" style="fill:none;stroke:#1A476F;stroke-width:8.64"/>
	<circle cx="3537.52" cy="504.92" r="26.35" style="fill:#1A476F"/>
	<circle cx="3537.52" cy="504.92" r="22.03" style="fill:none;stroke:#1A476F;stroke-width:8.64"/>
	<circle cx="3554.72" cy="1148.44" r="26.35" style="fill:#1A476F"/>
	<circle cx="3554.72" cy="1148.44" r="22.03" style="fill:none;stroke:#1A476F;stroke-width:8.64"/>
	<circle cx="3571.92" cy="769.87" r="26.35" style="fill:#1A476F"/>
	<circle cx="3571.92" cy="769.87" r="22.03" style="fill:none;stroke:#1A476F;stroke-width:8.64"/>
	<circle cx="3589.12" cy="1034.83" r="26.35" style="fill:#1A476F"/>
	<circle cx="3589.12" cy="1034.83" r="22.03" style="fill:none;stroke:#1A476F;stroke-width:8.64"/>
	<circle cx="3606.32" cy="1072.70" r="26.35" style="fill:#1A476F"/>
	<circle cx="3606.32" cy="1072.70" r="22.03" style="fill:none;stroke:#1A476F;stroke-width:8.64"/>
	<circle cx="3623.52" cy="467.05" r="26.35" style="fill:#1A476F"/>
	<circle cx="3623.52" cy="467.05" r="22.03" style="fill:none;stroke:#1A476F;stroke-width:8.64"/>
	<circle cx="3640.85" cy="315.57" r="26.35" style="fill:#1A476F"/>
	<circle cx="3640.85" cy="315.57" r="22.03" style="fill:none;stroke:#1A476F;stroke-width:8.64"/>
	<circle cx="3658.05" cy="656.27" r="26.35" style="fill:#1A476F"/>
	<circle cx="3658.05" cy="656.27" r="22.03" style="fill:none;stroke:#1A476F;stroke-width:8.64"/>
	<circle cx="3675.25" cy="504.92" r="26.35" style="fill:#1A476F"/>
	<circle cx="3675.25" cy="504.92" r="22.03" style="fill:none;stroke:#1A476F;stroke-width:8.64"/>
	<circle cx="3692.45" cy="164.22" r="26.35" style="fill:#1A476F"/>
	<circle cx="3692.45" cy="164.22" r="22.03" style="fill:none;stroke:#1A476F;stroke-width:8.64"/>
	<circle cx="3709.65" cy="315.57" r="26.35" style="fill:#1A476F"/>
	<circle cx="3709.65" cy="315.57" r="22.03" style="fill:none;stroke:#1A476F;stroke-width:8.64"/>
	<circle cx="3726.86" cy="732.00" r="26.35" style="fill:#1A476F"/>
	<circle cx="3726.86" cy="732.00" r="22.03" style="fill:none;stroke:#1A476F;stroke-width:8.64"/>
	<circle cx="3744.06" cy="1072.70" r="26.35" style="fill:#1A476F"/>
	<circle cx="3744.06" cy="1072.70" r="22.03" style="fill:none;stroke:#1A476F;stroke-width:8.64"/>
	<circle cx="3761.26" cy="656.27" r="26.35" style="fill:#1A476F"/>
	<circle cx="3761.26" cy="656.27" r="22.03" style="fill:none;stroke:#1A476F;stroke-width:8.64"/>
	<circle cx="3778.46" cy="656.27" r="26.35" style="fill:#1A476F"/>
	<circle cx="3778.46" cy="656.27" r="22.03" style="fill:none;stroke:#1A476F;stroke-width:8.64"/>
	<circle cx="3795.66" cy="1034.83" r="26.35" style="fill:#1A476F"/>
	<circle cx="3795.66" cy="1034.83" r="22.03" style="fill:none;stroke:#1A476F;stroke-width:8.64"/>
	<path d=" M371.25 1962.98 L2083.46 1273.43 L3795.66 583.99" stroke-linejoin="round" style="fill:none;stroke:#90353B;stroke-width:8.64"/>
	<line x1="290.81" y1="2233.63" x2="290.81" y2="100.86" style="stroke:#000000;stroke-width:5.76"/>
	<line x1="290.81" y1="2170.27" x2="250.84" y2="2170.27" style="stroke:#000000;stroke-width:5.76"/>
	<text x="200.73" y="2170.27" style="font-family:'Helvetica';font-size:99.99px;fill:#000000" transform="rotate(-90 200.73,2170.27)" text-anchor="middle">40</text>
	<line x1="290.81" y1="1791.83" x2="250.84" y2="1791.83" style="stroke:#000000;stroke-width:5.76"/>
	<text x="200.73" y="1791.83" style="font-family:'Helvetica';font-size:99.99px;fill:#000000" transform="rotate(-90 200.73,1791.83)" text-anchor="middle">50</text>
	<line x1="290.81" y1="1413.27" x2="250.84" y2="1413.27" style="stroke:#000000;stroke-width:5.76"/>
	<text x="200.73" y="1413.27" style="font-family:'Helvetica';font-size:99.99px;fill:#000000" transform="rotate(-90 200.73,1413.27)" text-anchor="middle">60</text>
	<line x1="290.81" y1="1034.71" x2="250.84" y2="1034.71" style="stroke:#000000;stroke-width:5.76"/>
	<text x="200.73" y="1034.71" style="font-family:'Helvetica';font-size:99.99px;fill:#000000" transform="rotate(-90 200.73,1034.71)" text-anchor="middle">70</text>
	<line x1="290.81" y1="656.27" x2="250.84" y2="656.27" style="stroke:#000000;stroke-width:5.76"/>
	<text x="200.73" y="656.27" style="font-family:'Helvetica';font-size:99.99px;fill:#000000" transform="rotate(-90 200.73,656.27)" text-anchor="middle">80</text>
	<line x1="290.81" y1="277.70" x2="250.84" y2="277.70" style="stroke:#000000;stroke-width:5.76"/>
	<text x="200.73" y="277.70" style="font-family:'Helvetica';font-size:99.99px;fill:#000000" transform="rotate(-90 200.73,277.70)" text-anchor="middle">90</text>
	<line x1="290.81" y1="2233.63" x2="3859.02" y2="2233.63" style="stroke:#000000;stroke-width:5.76"/>
	<line x1="354.17" y1="2233.63" x2="354.17" y2="2273.73" style="stroke:#000000;stroke-width:5.76"/>
	<text x="354.17" y="2363.59" style="font-family:'Helvetica';font-size:99.99px;fill:#000000" text-anchor="middle">0</text>
	<line x1="1214.48" y1="2233.63" x2="1214.48" y2="2273.73" style="stroke:#000000;stroke-width:5.76"/>
	<text x="1214.48" y="2363.59" style="font-family:'Helvetica';font-size:99.99px;fill:#000000" text-anchor="middle">50</text>
	<line x1="2074.92" y1="2233.63" x2="2074.92" y2="2273.73" style="stroke:#000000;stroke-width:5.76"/>
	<text x="2074.92" y="2363.59" style="font-family:'Helvetica';font-size:99.99px;fill:#000000" text-anchor="middle">100</text>
	<line x1="2935.35" y1="2233.63" x2="2935.35" y2="2273.73" style="stroke:#000000;stroke-width:5.76"/>
	<text x="2935.35" y="2363.59" style="font-family:'Helvetica';font-size:99.99px;fill:#000000" text-anchor="middle">150</text>
	<line x1="3795.66" y1="2233.63" x2="3795.66" y2="2273.73" style="stroke:#000000;stroke-width:5.76"/>
	<text x="3795.66" y="2363.59" style="font-family:'Helvetica';font-size:99.99px;fill:#000000" text-anchor="middle">200</text>
	<text x="2074.92" y="2473.60" style="font-family:'Helvetica';font-size:99.99px;fill:#000000" text-anchor="middle">x</text>
	<rect x="1376.10" y="2558.24" width="1397.63" height="186.37" style="fill:#FFFFFF"/>
	<rect x="1378.98" y="2561.12" width="1391.87" height="180.61" style="fill:none;stroke:#000000;stroke-width:5.76"/>
	<circle cx="1441.32" cy="2651.43" r="26.35" style="fill:#1A476F"/>
	<circle cx="1441.32" cy="2651.43" r="22.03" style="fill:none;stroke:#1A476F;stroke-width:8.64"/>
	<line x1="1712.82" y1="2651.43" x2="2087.29" y2="2651.43" style="stroke:#90353B;stroke-width:8.64"/>
	<text x="1523.24" y="2686.46" style="font-family:'Helvetica';font-size:99.99px;fill:#000000">y</text>
	<text x="2147.31" y="2686.46" style="font-family:'Helvetica';font-size:99.99px;fill:#000000">Fitted values</text>
</svg>
