<?xml version="1.0" encoding="UTF-8" standalone="no"?>
<!-- This is a Stata 17.0 generated SVG file (http://www.stata.com) -->

<svg version="1.1" width="5.500in" height="4.000in" viewBox="0 0 3960 2880" xmlns="http://www.w3.org/2000/svg" xmlns:xlink="http://www.w3.org/1999/xlink">
	<desc>Stata Graph - Graph</desc>
	<rect x="0" y="0" width="3960" height="2880" style="fill:#EAF2F3;stroke:none"/>
	<rect x="0.00" y="0.00" width="3959.88" height="2880.00" style="fill:#EAF2F3"/>
	<rect x="2.88" y="2.88" width="3954.12" height="2874.24" style="fill:none;stroke:#EAF2F3;stroke-width:5.76"/>
	<rect x="290.81" y="100.86" width="3568.21" height="1992.81" style="fill:#FFFFFF"/>
	<rect x="293.69" y="103.74" width="3562.45" height="1987.05" style="fill:none;stroke:#FFFFFF;stroke-width:5.76"/>
	<line x1="290.81" y1="2030.31" x2="3859.02" y2="2030.31" style="stroke:#EAF2F3;stroke-width:8.64"/>
	<line x1="290.81" y1="1657.06" x2="3859.02" y2="1657.06" style="stroke:#EAF2F3;stroke-width:8.64"/>
	<line x1="290.81" y1="1283.82" x2="3859.02" y2="1283.82" style="stroke:#EAF2F3;stroke-width:8.64"/>
	<line x1="290.81" y1="910.58" x2="3859.02" y2="910.58" style="stroke:#EAF2F3;stroke-width:8.64"/>
	<line x1="290.81" y1="537.34" x2="3859.02" y2="537.34" style="stroke:#EAF2F3;stroke-width:8.64"/>
	<line x1="290.81" y1="164.22" x2="3859.02" y2="164.22" style="stroke:#EAF2F3;stroke-width:8.64"/>
	<circle cx="388.45" cy="1881.06" r="26.35" style="fill:#1A476F"/>
	<circle cx="388.45" cy="1881.06" r="22.03" style="fill:none;stroke:#1A476F;stroke-width:8.64"/>
	<circle cx="422.85" cy="1918.43" r="26.35" style="fill:#1A476F"/>
	<circle cx="422.85" cy="1918.43" r="22.03" style="fill:none;stroke:#1A476F;stroke-width:8.64"/>
	<circle cx="457.38" cy="1955.81" r="26.35" style="fill:#1A476F"/>
	<circle cx="457.38" cy="1955.81" r="22.03" style="fill:none;stroke:#1A476F;stroke-width:8.64"/>
	<circle cx="491.78" cy="1918.43" r="26.35" style="fill:#1A476F"/>
	<circle cx="491.78" cy="1918.43" r="22.03" style="fill:none;stroke:#1A476F;stroke-width:8.64"/>
	<circle cx="526.18" cy="1881.06" r="26.35" style="fill:#1A476F"/>
	<circle cx="526.18" cy="1881.06" r="22.03" style="fill:none;stroke:#1A476F;stroke-width:8.64"/>
	<circle cx="560.59" cy="1918.43" r="26.35" style="fill:#1A476F"/>
	<circle cx="560.59" cy="1918.43" r="22.03" style="fill:none;stroke:#1A476F;stroke-width:8.64"/>
	<circle cx="594.99" cy="1657.19" r="26.35" style="fill:#1A476F"/>
	<circle cx="594.99" cy="1657.19" r="22.03" style="fill:none;stroke:#1A476F;stroke-width:8.64"/>
	<circle cx="629.39" cy="1993.06" r="26.35" style="fill:#1A476F"/>
	<circle cx="629.39" cy="1993.06" r="22.03" style="fill:none;stroke:#1A476F;stroke-width:8.64"/>
	<circle cx="663.80" cy="1769.19" r="26.35" style="fill:#1A476F"/>
	<circle cx="663.80" cy="1769.19" r="22.03" style="fill:none;stroke:#1A476F;stroke-width:8.64"/>
	<circle cx="698.20" cy="1993.06" r="26.35" style="fill:#1A476F"/>
	<circle cx="698.20" cy="1993.06" r="22.03" style="fill:none;stroke:#1A476F;stroke-width:8.64"/>
	<circle cx="732.60" cy="1881.06" r="26.35" style="fill:#1A476F"/>
	<circle cx="732.60" cy="1881.06" r="22.03" style="fill:none;stroke:#1A476F;stroke-width:8.64"/>
	<circle cx="767.13" cy="1955.81" r="26.35" style="fill:#1A476F"/>
	<circle cx="767.13" cy="1955.81" r="22.03" style="fill:none;stroke:#1A476F;stroke-width:8.64"/>
	<circle cx="801.53" cy="1657.19" r="26.35" style="fill:#1A476F"/>
	<circle cx="801.53" cy="1657.19" r="22.03" style="fill:none;stroke:#1A476F;stroke-width:8.64"/>
	<circle cx="835.93" cy="1731.81" r="26.35" style="fill:#1A476F"/>
	<circle cx="835.93" cy="1731.81" r="22.03" style="fill:none;stroke:#1A476F;stroke-width:8.64"/>
	<circle cx="870.33" cy="1694.44" r="26.35" style="fill:#1A476F"/>
	<circle cx="870.33" cy="1694.44" r="22.03" style="fill:none;stroke:#1A476F;stroke-width:8.64"/>
	<circle cx="904.74" cy="1657.19" r="26.35" style="fill:#1A476F"/>
	<circle cx="904.74" cy="1657.19" r="22.03" style="fill:none;stroke:#1A476F;stroke-width:8.64"/>
	<circle cx="939.14" cy="1806.44" r="26.35" style="fill:#1A476F"/>
	<circle cx="939.14" cy="1806.44" r="22.03" style="fill:none;stroke:#1A476F;stroke-width:8.64"/>
	<circle cx="973.54" cy="1955.81" r="26.35" style="fill:#1A476F"/>
	<circle cx="973.54" cy="1955.81" r="22.03" style="fill:none;stroke:#1A476F;stroke-width:8.64"/>
	<circle cx="1007.94" cy="1694.44" r="26.35" style="fill:#1A476F"/>
	<circle cx="1007.94" cy="1694.44" r="22.03" style="fill:none;stroke:#1A476F;stroke-width:8.64"/>
	<circle cx="1042.35" cy="1881.06" r="26.35" style="fill:#1A476F"/>
	<circle cx="1042.35" cy="1881.06" r="22.03" style="fill:none;stroke:#1A476F;stroke-width:8.64"/>
	<circle cx="1076.87" cy="1470.57" r="26.35" style="fill:#1A476F"/>
	<circle cx="1076.87" cy="1470.57" r="22.03" style="fill:none;stroke:#1A476F;stroke-width:8.64"/>
	<circle cx="1111.28" cy="1993.06" r="26.35" style="fill:#1A476F"/>
	<circle cx="1111.28" cy="1993.06" r="22.03" style="fill:none;stroke:#1A476F;stroke-width:8.64"/>
	<circle cx="1145.68" cy="1843.81" r="26.35" style="fill:#1A476F"/>
	<circle cx="1145.68" cy="1843.81" r="22.03" style="fill:none;stroke:#1A476F;stroke-width:8.64"/>
	<circle cx="1180.08" cy="1881.06" r="26.35" style="fill:#1A476F"/>
	<circle cx="1180.08" cy="1881.06" r="22.03" style="fill:none;stroke:#1A476F;stroke-width:8.64"/>
	<circle cx="1214.48" cy="1918.43" r="26.35" style="fill:#1A476F"/>
	<circle cx="1214.48" cy="1918.43" r="22.03" style="fill:none;stroke:#1A476F;stroke-width:8.64"/>
	<circle cx="1248.89" cy="1619.81" r="26.35" style="fill:#1A476F"/>
	<circle cx="1248.89" cy="1619.81" r="22.03" style="fill:none;stroke:#1A476F;stroke-width:8.64"/>
	<circle cx="1283.29" cy="1806.44" r="26.35" style="fill:#1A476F"/>
	<circle cx="1283.29" cy="1806.44" r="22.03" style="fill:none;stroke:#1A476F;stroke-width:8.64"/>
	<circle cx="1317.69" cy="2030.43" r="26.35" style="fill:#1A476F"/>
	<circle cx="1317.69" cy="2030.43" r="22.03" style="fill:none;stroke:#1A476F;stroke-width:8.64"/>
	<circle cx="1352.09" cy="1657.19" r="26.35" style="fill:#1A476F"/>
	<circle cx="1352.09" cy="1657.19" r="22.03" style="fill:none;stroke:#1A476F;stroke-width:8.64"/>
	<circle cx="1386.50" cy="1993.06" r="26.35" style="fill:#1A476F"/>
	<circle cx="1386.50" cy="1993.06" r="22.03" style="fill:none;stroke:#1A476F;stroke-width:8.64"/>
	<circle cx="1421.02" cy="1769.19" r="26.35" style="fill:#1A476F"/>
	<circle cx="1421.02" cy="1769.19" r="22.03" style="fill:none;stroke:#1A476F;stroke-width:8.64"/>
	<circle cx="1455.42" cy="1433.19" r="26.35" style="fill:#1A476F"/>
	<circle cx="1455.42" cy="1433.19" r="22.03" style="fill:none;stroke:#1A476F;stroke-width:8.64"/>
	<circle cx="1489.83" cy="1470.57" r="26.35" style="fill:#1A476F"/>
	<circle cx="1489.83" cy="1470.57" r="22.03" style="fill:none;stroke:#1A476F;stroke-width:8.64"/>
	<circle cx="1524.23" cy="1843.81" r="26.35" style="fill:#1A476F"/>
	<circle cx="1524.23" cy="1843.81" r="22.03" style="fill:none;stroke:#1A476F;stroke-width:8.64"/>
	<circle cx="1558.63" cy="1507.82" r="26.35" style="fill:#1A476F"/>
	<circle cx="1558.63" cy="1507.82" r="22.03" style="fill:none;stroke:#1A476F;stroke-width:8.64"/>
	<circle cx="1593.03" cy="1918.43" r="26.35" style="fill:#1A476F"/>
	<circle cx="1593.03" cy="1918.43" r="22.03" style="fill:none;stroke:#1A476F;stroke-width:8.64"/>
	<circle cx="1627.44" cy="1657.19" r="26.35" style="fill:#1A476F"/>
	<circle cx="1627.44" cy="1657.19" r="22.03" style="fill:none;stroke:#1A476F;stroke-width:8.64"/>
	<circle cx="1661.84" cy="1843.81" r="26.35" style="fill:#1A476F"/>
	<circle cx="1661.84" cy="1843.81" r="22.03" style="fill:none;stroke:#1A476F;stroke-width:8.64"/>
	<circle cx="1696.24" cy="1918.43" r="26.35" style="fill:#1A476F"/>
	<circle cx="1696.24" cy="1918.43" r="22.03" style="fill:none;stroke:#1A476F;stroke-width:8.64"/>
	<circle cx="1730.77" cy="1470.57" r="26.35" style="fill:#1A476F"/>
	<circle cx="1730.77" cy="1470.57" r="22.03" style="fill:none;stroke:#1A476F;stroke-width:8.64"/>
	<circle cx="1765.17" cy="1321.20" r="26.35" style="fill:#1A476F"/>
	<circle cx="1765.17" cy="1321.20" r="22.03" style="fill:none;stroke:#1A476F;stroke-width:8.64"/>
	<circle cx="1799.57" cy="1470.57" r="26.35" style="fill:#1A476F"/>
	<circle cx="1799.57" cy="1470.57" r="22.03" style="fill:none;stroke:#1A476F;stroke-width:8.64"/>
	<circle cx="1833.98" cy="1209.32" r="26.35" style="fill:#1A476F"/>
	<circle cx="1833.98" cy="1209.32" r="22.03" style="fill:none;stroke:#1A476F;stroke-width:8.64"/>
	<circle cx="1868.38" cy="1097.33" r="26.35" style="fill:#1A476F"/>
	<circle cx="1868.38" cy="1097.33" r="22.03" style="fill:none;stroke:#1A476F;stroke-width:8.64"/>
	<circle cx="1902.78" cy="1321.20" r="26.35" style="fill:#1A476F"/>
	<circle cx="1902.78" cy="1321.20" r="22.03" style="fill:none;stroke:#1A476F;stroke-width:8.64"/>
	<circle cx="1937.18" cy="1507.82" r="26.35" style="fill:#1A476F"/>
	<circle cx="1937.18" cy="1507.82" r="22.03" style="fill:none;stroke:#1A476F;stroke-width:8.64"/>
	<circle cx="1971.59" cy="1955.81" r="26.35" style="fill:#1A476F"/>
	<circle cx="1971.59" cy="1955.81" r="22.03" style="fill:none;stroke:#1A476F;stroke-width:8.64"/>
	<circle cx="2005.99" cy="1097.33" r="26.35" style="fill:#1A476F"/>
	<circle cx="2005.99" cy="1097.33" r="22.03" style="fill:none;stroke:#1A476F;stroke-width:8.64"/>
	<circle cx="2040.51" cy="1507.82" r="26.35" style="fill:#1A476F"/>
	<circle cx="2040.51" cy="1507.82" r="22.03" style="fill:none;stroke:#1A476F;stroke-width:8.64"/>
	<circle cx="2074.92" cy="1097.33" r="26.35" style="fill:#1A476F"/>
	<circle cx="2074.92" cy="1097.33" r="22.03" style="fill:none;stroke:#1A476F;stroke-width:8.64"/>
	<circle cx="2109.32" cy="164.22" r="26.35" style="fill:#1A476F"/>
	<circle cx="2109.32" cy="164.22" r="22.03" style="fill:none;stroke:#1A476F;stroke-width:8.64"/>
	<circle cx="2143.72" cy="500.09" r="26.35" style="fill:#1A476F"/>
	<circle cx="2143.72" cy="500.09" r="22.03" style="fill:none;stroke:#1A476F;stroke-width:8.64"/>
	<circle cx="2178.12" cy="537.46" r="26.35" style="fill:#1A476F"/>
	<circle cx="2178.12" cy="537.46" r="22.03" style="fill:none;stroke:#1A476F;stroke-width:8.64"/>
	<circle cx="2212.53" cy="425.47" r="26.35" style="fill:#1A476F"/>
	<circle cx="2212.53" cy="425.47" r="22.03" style="fill:none;stroke:#1A476F;stroke-width:8.64"/>
	<circle cx="2246.93" cy="350.84" r="26.35" style="fill:#1A476F"/>
	<circle cx="2246.93" cy="350.84" r="22.03" style="fill:none;stroke:#1A476F;stroke-width:8.64"/>
	<circle cx="2281.33" cy="574.84" r="26.35" style="fill:#1A476F"/>
	<circle cx="2281.33" cy="574.84" r="22.03" style="fill:none;stroke:#1A476F;stroke-width:8.64"/>
	<circle cx="2315.73" cy="350.84" r="26.35" style="fill:#1A476F"/>
	<circle cx="2315.73" cy="350.84" r="22.03" style="fill:none;stroke:#1A476F;stroke-width:8.64"/>
	<circle cx="2350.14" cy="350.84" r="26.35" style="fill:#1A476F"/>
	<circle cx="2350.14" cy="350.84" r="22.03" style="fill:none;stroke:#1A476F;stroke-width:8.64"/>
	<circle cx="2384.66" cy="350.84" r="26.35" style="fill:#1A476F"/>
	<circle cx="2384.66" cy="350.84" r="22.03" style="fill:none;stroke:#1A476F;stroke-width:8.64"/>
	<circle cx="2419.07" cy="276.22" r="26.35" style="fill:#1A476F"/>
	<circle cx="2419.07" cy="276.22" r="22.03" style="fill:none;stroke:#1A476F;stroke-width:8.64"/>
	<circle cx="2453.47" cy="425.47" r="26.35" style="fill:#1A476F"/>
	<circle cx="2453.47" cy="425.47" r="22.03" style="fill:none;stroke:#1A476F;stroke-width:8.64"/>
	<circle cx="2487.87" cy="425.47" r="26.35" style="fill:#1A476F"/>
	<circle cx="2487.87" cy="425.47" r="22.03" style="fill:none;stroke:#1A476F;stroke-width:8.64"/>
	<circle cx="2522.27" cy="761.46" r="26.35" style="fill:#1A476F"/>
	<circle cx="2522.27" cy="761.46" r="22.03" style="fill:none;stroke:#1A476F;stroke-width:8.64"/>
	<circle cx="2556.68" cy="500.09" r="26.35" style="fill:#1A476F"/>
	<circle cx="2556.68" cy="500.09" r="22.03" style="fill:none;stroke:#1A476F;stroke-width:8.64"/>
	<circle cx="2591.08" cy="201.60" r="26.35" style="fill:#1A476F"/>
	<circle cx="2591.08" cy="201.60" r="22.03" style="fill:none;stroke:#1A476F;stroke-width:8.64"/>
	<circle cx="2625.48" cy="724.08" r="26.35" style="fill:#1A476F"/>
	<circle cx="2625.48" cy="724.08" r="22.03" style="fill:none;stroke:#1A476F;stroke-width:8.64"/>
	<circle cx="2659.88" cy="425.47" r="26.35" style="fill:#1A476F"/>
	<circle cx="2659.88" cy="425.47" r="22.03" style="fill:none;stroke:#1A476F;stroke-width:8.64"/>
	<circle cx="2694.41" cy="388.22" r="26.35" style="fill:#1A476F"/>
	<circle cx="2694.41" cy="388.22" r="22.03" style="fill:none;stroke:#1A476F;stroke-width:8.64"/>
	<circle cx="2728.81" cy="388.22" r="26.35" style="fill:#1A476F"/>
	<circle cx="2728.81" cy="388.22" r="22.03" style="fill:none;stroke:#1A476F;stroke-width:8.64"/>
	<circle cx="2763.21" cy="500.09" r="26.35" style="fill:#1A476F"/>
	<circle cx="2763.21" cy="500.09" r="22.03" style="fill:none;stroke:#1A476F;stroke-width:8.64"/>
	<circle cx="2797.62" cy="500.09" r="26.35" style="fill:#1A476F"/>
	<circle cx="2797.62" cy="500.09" r="22.03" style="fill:none;stroke:#1A476F;stroke-width:8.64"/>
	<circle cx="2832.02" cy="462.84" r="26.35" style="fill:#1A476F"/>
	<circle cx="2832.02" cy="462.84" r="22.03" style="fill:none;stroke:#1A476F;stroke-width:8.64"/>
	<circle cx="2866.42" cy="1022.70" r="26.35" style="fill:#1A476F"/>
	<circle cx="2866.42" cy="1022.70" r="22.03" style="fill:none;stroke:#1A476F;stroke-width:8.64"/>
	<circle cx="2900.82" cy="313.47" r="26.35" style="fill:#1A476F"/>
	<circle cx="2900.82" cy="313.47" r="22.03" style="fill:none;stroke:#1A476F;stroke-width:8.64"/>
	<circle cx="2935.23" cy="201.60" r="26.35" style="fill:#1A476F"/>
	<circle cx="2935.23" cy="201.60" r="22.03" style="fill:none;stroke:#1A476F;stroke-width:8.64"/>
	<circle cx="2969.63" cy="836.08" r="26.35" style="fill:#1A476F"/>
	<circle cx="2969.63" cy="836.08" r="22.03" style="fill:none;stroke:#1A476F;stroke-width:8.64"/>
	<circle cx="3004.16" cy="836.08" r="26.35" style="fill:#1A476F"/>
	<circle cx="3004.16" cy="836.08" r="22.03" style="fill:none;stroke:#1A476F;stroke-width:8.64"/>
	<circle cx="3038.56" cy="649.46" r="26.35" style="fill:#1A476F"/>
	<circle cx="3038.56" cy="649.46" r="22.03" style="fill:none;stroke:#1A476F;stroke-width:8.64"/>
	<circle cx="3072.96" cy="761.46" r="26.35" style="fill:#1A476F"/>
	<circle cx="3072.96" cy="761.46" r="22.03" style="fill:none;stroke:#1A476F;stroke-width:8.64"/>
	<circle cx="3107.36" cy="686.71" r="26.35" style="fill:#1A476F"/>
	<circle cx="3107.36" cy="686.71" r="22.03" style="fill:none;stroke:#1A476F;stroke-width:8.64"/>
	<circle cx="3141.77" cy="537.46" r="26.35" style="fill:#1A476F"/>
	<circle cx="3141.77" cy="537.46" r="22.03" style="fill:none;stroke:#1A476F;stroke-width:8.64"/>
	<circle cx="3176.17" cy="612.09" r="26.35" style="fill:#1A476F"/>
	<circle cx="3176.17" cy="612.09" r="22.03" style="fill:none;stroke:#1A476F;stroke-width:8.64"/>
	<circle cx="3210.57" cy="1097.33" r="26.35" style="fill:#1A476F"/>
	<circle cx="3210.57" cy="1097.33" r="22.03" style="fill:none;stroke:#1A476F;stroke-width:8.64"/>
	<circle cx="3244.97" cy="425.47" r="26.35" style="fill:#1A476F"/>
	<circle cx="3244.97" cy="425.47" r="22.03" style="fill:none;stroke:#1A476F;stroke-width:8.64"/>
	<circle cx="3279.38" cy="873.33" r="26.35" style="fill:#1A476F"/>
	<circle cx="3279.38" cy="873.33" r="22.03" style="fill:none;stroke:#1A476F;stroke-width:8.64"/>
	<circle cx="3313.78" cy="574.84" r="26.35" style="fill:#1A476F"/>
	<circle cx="3313.78" cy="574.84" r="22.03" style="fill:none;stroke:#1A476F;stroke-width:8.64"/>
	<circle cx="3348.30" cy="425.47" r="26.35" style="fill:#1A476F"/>
	<circle cx="3348.30" cy="425.47" r="22.03" style="fill:none;stroke:#1A476F;stroke-width:8.64"/>
	<circle cx="3382.71" cy="761.46" r="26.35" style="fill:#1A476F"/>
	<circle cx="3382.71" cy="761.46" r="22.03" style="fill:none;stroke:#1A476F;stroke-width:8.64"/>
	<circle cx="3417.11" cy="574.84" r="26.35" style="fill:#1A476F"/>
	<circle cx="3417.11" cy="574.84" r="22.03" style="fill:none;stroke:#1A476F;stroke-width:8.64"/>
	<circle cx="3451.51" cy="425.47" r="26.35" style="fill:#1A476F"/>
	<circle cx="3451.51" cy="425.47" r="22.03" style="fill:none;stroke:#1A476F;stroke-width:8.64"/>
	<circle cx="3485.91" cy="388.22" r="26.35" style="fill:#1A476F"/>
	<circle cx="3485.91" cy="388.22" r="22.03" style="fill:none;stroke:#1A476F;stroke-width:8.64"/>
	<circle cx="3520.32" cy="649.46" r="26.35" style="fill:#1A476F"/>
	<circle cx="3520.32" cy="649.46" r="22.03" style="fill:none;stroke:#1A476F;stroke-width:8.64"/>
	<circle cx="3554.72" cy="798.71" r="26.35" style="fill:#1A476F"/>
	<circle cx="3554.72" cy="798.71" r="22.03" style="fill:none;stroke:#1A476F;stroke-width:8.64"/>
	<circle cx="3589.12" cy="910.70" r="26.35" style="fill:#1A476F"/>
	<circle cx="3589.12" cy="910.70" r="22.03" style="fill:none;stroke:#1A476F;stroke-width:8.64"/>
	<circle cx="3623.52" cy="276.22" r="26.35" style="fill:#1A476F"/>
	<circle cx="3623.52" cy="276.22" r="22.03" style="fill:none;stroke:#1A476F;stroke-width:8.64"/>
	<circle cx="3658.05" cy="1134.58" r="26.35" style="fill:#1A476F"/>
	<circle cx="3658.05" cy="1134.58" r="22.03" style="fill:none;stroke:#1A476F;stroke-width:8.64"/>
	<circle cx="3692.45" cy="947.95" r="26.35" style="fill:#1A476F"/>
	<circle cx="3692.45" cy="947.95" r="22.03" style="fill:none;stroke:#1A476F;stroke-width:8.64"/>
	<circle cx="3726.86" cy="649.46" r="26.35" style="fill:#1A476F"/>
	<circle cx="3726.86" cy="649.46" r="22.03" style="fill:none;stroke:#1A476F;stroke-width:8.64"/>
	<circle cx="3761.26" cy="724.08" r="26.35" style="fill:#1A476F"/>
	<circle cx="3761.26" cy="724.08" r="22.03" style="fill:none;stroke:#1A476F;stroke-width:8.64"/>
	<circle cx="3795.66" cy="836.08" r="26.35" style="fill:#1A476F"/>
	<circle cx="3795.66" cy="836.08" r="22.03" style="fill:none;stroke:#1A476F;stroke-width:8.64"/>
	<path d=" M388.45 1977.83 L1231.68 1708.67 L2074.92 1439.50" stroke-linejoin="round" style="fill:none;stroke:#90353B;stroke-width:8.64"/>
	<path d=" M2109.32 367.67 L2952.43 570.26 L3795.66 772.84" stroke-linejoin="round" style="fill:none;stroke:#55752F;stroke-width:8.64"/>
	<line x1="290.81" y1="2093.67" x2="290.81" y2="100.86" style="stroke:#000000;stroke-width:5.76"/>
	<line x1="290.81" y1="2030.31" x2="250.84" y2="2030.31" style="stroke:#000000;stroke-width:5.76"/>
	<text x="200.73" y="2030.31" style="font-family:'Helvetica';font-size:99.99px;fill:#000000" transform="rotate(-90 200.73,2030.31)" text-anchor="middle">40</text>
	<line x1="290.81" y1="1657.06" x2="250.84" y2="1657.06" style="stroke:#000000;stroke-width:5.76"/>
	<text x="200.73" y="1657.06" style="font-family:'Helvetica';font-size:99.99px;fill:#000000" transform="rotate(-90 200.73,1657.06)" text-anchor="middle">50</text>
	<line x1="290.81" y1="1283.82" x2="250.84" y2="1283.82" style="stroke:#000000;stroke-width:5.76"/>
	<text x="200.73" y="1283.82" style="font-family:'Helvetica';font-size:99.99px;fill:#000000" transform="rotate(-90 200.73,1283.82)" text-anchor="middle">60</text>
	<line x1="290.81" y1="910.58" x2="250.84" y2="910.58" style="stroke:#000000;stroke-width:5.76"/>
	<text x="200.73" y="910.58" style="font-family:'Helvetica';font-size:99.99px;fill:#000000" transform="rotate(-90 200.73,910.58)" text-anchor="middle">70</text>
	<line x1="290.81" y1="537.34" x2="250.84" y2="537.34" style="stroke:#000000;stroke-width:5.76"/>
	<text x="200.73" y="537.34" style="font-family:'Helvetica';font-size:99.99px;fill:#000000" transform="rotate(-90 200.73,537.34)" text-anchor="middle">80</text>
	<line x1="290.81" y1="164.22" x2="250.84" y2="164.22" style="stroke:#000000;stroke-width:5.76"/>
	<text x="200.73" y="164.22" style="font-family:'Helvetica';font-size:99.99px;fill:#000000" transform="rotate(-90 200.73,164.22)" text-anchor="middle">90</text>
	<line x1="290.81" y1="2093.67" x2="3859.02" y2="2093.67" style="stroke:#000000;stroke-width:5.76"/>
	<line x1="354.17" y1="2093.67" x2="354.17" y2="2133.64" style="stroke:#000000;stroke-width:5.76"/>
	<text x="354.17" y="2223.62" style="font-family:'Helvetica';font-size:99.99px;fill:#000000" text-anchor="middle">50</text>
	<line x1="2074.92" y1="2093.67" x2="2074.92" y2="2133.64" style="stroke:#000000;stroke-width:5.76"/>
	<text x="2074.92" y="2223.62" style="font-family:'Helvetica';font-size:99.99px;fill:#000000" text-anchor="middle">100</text>
	<line x1="3795.66" y1="2093.67" x2="3795.66" y2="2133.64" style="stroke:#000000;stroke-width:5.76"/>
	<text x="3795.66" y="2223.62" style="font-family:'Helvetica';font-size:99.99px;fill:#000000" text-anchor="middle">150</text>
	<text x="2074.92" y="2333.64" style="font-family:'Helvetica';font-size:99.99px;fill:#000000" text-anchor="middle">x</text>
	<rect x="944.09" y="2418.27" width="2261.78" height="326.34" style="fill:#FFFFFF"/>
	<rect x="946.97" y="2421.15" width="2256.02" height="320.58" style="fill:none;stroke:#000000;stroke-width:5.76"/>
	<circle cx="1174.39" cy="2511.46" r="26.35" style="fill:#1A476F"/>
	<circle cx="1174.39" cy="2511.46" r="22.03" style="fill:none;stroke:#1A476F;stroke-width:8.64"/>
	<line x1="2144.96" y1="2511.46" x2="2519.30" y2="2511.46" style="stroke:#90353B;stroke-width:8.64"/>
	<line x1="987.28" y1="2651.43" x2="1361.62" y2="2651.43" style="stroke:#55752F;stroke-width:8.64"/>
	<text x="1421.64" y="2546.49" style="font-family:'Helvetica';font-size:99.99px;fill:#000000">y</text>
	<text x="2579.32" y="2546.49" style="font-family:'Helvetica';font-size:99.99px;fill:#000000">Fitted values</text>
	<text x="1421.64" y="2686.46" style="font-family:'Helvetica';font-size:99.99px;fill:#000000">Fitted values</text>
</svg>
