<?xml version="1.0" encoding="UTF-8" standalone="no"?>
<!-- This is a Stata 17.0 generated SVG file (http://www.stata.com) -->

<svg version="1.1" width="5.500in" height="4.000in" viewBox="0 0 3960 2880" xmlns="http://www.w3.org/2000/svg" xmlns:xlink="http://www.w3.org/1999/xlink">
	<desc>Stata Graph - Graph</desc>
	<rect x="0" y="0" width="3960" height="2880" style="fill:#EAF2F3;stroke:none"/>
	<rect x="0.00" y="0.00" width="3959.88" height="2880.00" style="fill:#EAF2F3"/>
	<rect x="2.88" y="2.88" width="3954.12" height="2874.24" style="fill:none;stroke:#EAF2F3;stroke-width:5.76"/>
	<rect x="390.80" y="100.86" width="3468.22" height="2132.77" style="fill:#FFFFFF"/>
	<rect x="393.68" y="103.74" width="3462.46" height="2127.01" style="fill:none;stroke:#FFFFFF;stroke-width:5.76"/>
	<line x1="390.80" y1="2170.27" x2="3859.02" y2="2170.27" style="stroke:#EAF2F3;stroke-width:8.64"/>
	<line x1="390.80" y1="1714.36" x2="3859.02" y2="1714.36" style="stroke:#EAF2F3;stroke-width:8.64"/>
	<line x1="390.80" y1="1258.45" x2="3859.02" y2="1258.45" style="stroke:#EAF2F3;stroke-width:8.64"/>
	<line x1="390.80" y1="802.54" x2="3859.02" y2="802.54" style="stroke:#EAF2F3;stroke-width:8.64"/>
	<line x1="390.80" y1="346.51" x2="3859.02" y2="346.51" style="stroke:#EAF2F3;stroke-width:8.64"/>
	<line x1="2570.54" y1="2233.63" x2="2570.54" y2="2210.62" style="stroke:#000000;stroke-width:8.64"/>
	<line x1="2570.54" y1="2190.44" x2="2570.54" y2="2167.43" style="stroke:#000000;stroke-width:8.64"/>
	<line x1="2570.54" y1="2147.25" x2="2570.54" y2="2124.24" style="stroke:#000000;stroke-width:8.64"/>
	<line x1="2570.54" y1="2104.06" x2="2570.54" y2="2081.05" style="stroke:#000000;stroke-width:8.64"/>
	<line x1="2570.54" y1="2060.87" x2="2570.54" y2="2037.85" style="stroke:#000000;stroke-width:8.64"/>
	<line x1="2570.54" y1="2017.68" x2="2570.54" y2="1994.66" style="stroke:#000000;stroke-width:8.64"/>
	<line x1="2570.54" y1="1974.49" x2="2570.54" y2="1951.47" style="stroke:#000000;stroke-width:8.64"/>
	<line x1="2570.54" y1="1931.30" x2="2570.54" y2="1908.28" style="stroke:#000000;stroke-width:8.64"/>
	<line x1="2570.54" y1="1888.11" x2="2570.54" y2="1865.09" style="stroke:#000000;stroke-width:8.64"/>
	<line x1="2570.54" y1="1844.92" x2="2570.54" y2="1821.90" style="stroke:#000000;stroke-width:8.64"/>
	<line x1="2570.54" y1="1801.73" x2="2570.54" y2="1778.71" style="stroke:#000000;stroke-width:8.64"/>
	<line x1="2570.54" y1="1758.54" x2="2570.54" y2="1735.52" style="stroke:#000000;stroke-width:8.64"/>
	<line x1="2570.54" y1="1715.35" x2="2570.54" y2="1692.21" style="stroke:#000000;stroke-width:8.64"/>
	<line x1="2570.54" y1="1672.16" x2="2570.54" y2="1649.02" style="stroke:#000000;stroke-width:8.64"/>
	<line x1="2570.54" y1="1628.85" x2="2570.54" y2="1605.83" style="stroke:#000000;stroke-width:8.64"/>
	<line x1="2570.54" y1="1585.66" x2="2570.54" y2="1562.64" style="stroke:#000000;stroke-width:8.64"/>
	<line x1="2570.54" y1="1542.47" x2="2570.54" y2="1519.45" style="stroke:#000000;stroke-width:8.64"/>
	<line x1="2570.54" y1="1499.28" x2="2570.54" y2="1476.26" style="stroke:#000000;stroke-width:8.64"/>
	<line x1="2570.54" y1="1456.09" x2="2570.54" y2="1433.07" style="stroke:#000000;stroke-width:8.64"/>
	<line x1="2570.54" y1="1412.90" x2="2570.54" y2="1389.88" style="stroke:#000000;stroke-width:8.64"/>
	<line x1="2570.54" y1="1369.71" x2="2570.54" y2="1346.69" style="stroke:#000000;stroke-width:8.64"/>
	<line x1="2570.54" y1="1326.52" x2="2570.54" y2="1303.50" style="stroke:#000000;stroke-width:8.64"/>
	<line x1="2570.54" y1="1283.33" x2="2570.54" y2="1260.31" style="stroke:#000000;stroke-width:8.64"/>
	<line x1="2570.54" y1="1240.14" x2="2570.54" y2="1217.12" style="stroke:#000000;stroke-width:8.64"/>
	<line x1="2570.54" y1="1196.95" x2="2570.54" y2="1173.93" style="stroke:#000000;stroke-width:8.64"/>
	<line x1="2570.54" y1="1153.76" x2="2570.54" y2="1130.74" style="stroke:#000000;stroke-width:8.64"/>
	<line x1="2570.54" y1="1110.57" x2="2570.54" y2="1087.55" style="stroke:#000000;stroke-width:8.64"/>
	<line x1="2570.54" y1="1067.38" x2="2570.54" y2="1044.36" style="stroke:#000000;stroke-width:8.64"/>
	<line x1="2570.54" y1="1024.19" x2="2570.54" y2="1001.17" style="stroke:#000000;stroke-width:8.64"/>
	<line x1="2570.54" y1="981.00" x2="2570.54" y2="957.98" style="stroke:#000000;stroke-width:8.64"/>
	<line x1="2570.54" y1="937.81" x2="2570.54" y2="914.79" style="stroke:#000000;stroke-width:8.64"/>
	<line x1="2570.54" y1="894.62" x2="2570.54" y2="871.60" style="stroke:#000000;stroke-width:8.64"/>
	<line x1="2570.54" y1="851.43" x2="2570.54" y2="828.41" style="stroke:#000000;stroke-width:8.64"/>
	<line x1="2570.54" y1="808.24" x2="2570.54" y2="785.09" style="stroke:#000000;stroke-width:8.64"/>
	<line x1="2570.54" y1="765.05" x2="2570.54" y2="741.90" style="stroke:#000000;stroke-width:8.64"/>
	<line x1="2570.54" y1="721.73" x2="2570.54" y2="698.71" style="stroke:#000000;stroke-width:8.64"/>
	<line x1="2570.54" y1="678.54" x2="2570.54" y2="655.52" style="stroke:#000000;stroke-width:8.64"/>
	<line x1="2570.54" y1="635.35" x2="2570.54" y2="612.33" style="stroke:#000000;stroke-width:8.64"/>
	<line x1="2570.54" y1="592.16" x2="2570.54" y2="569.14" style="stroke:#000000;stroke-width:8.64"/>
	<line x1="2570.54" y1="548.97" x2="2570.54" y2="525.95" style="stroke:#000000;stroke-width:8.64"/>
	<line x1="2570.54" y1="505.78" x2="2570.54" y2="482.76" style="stroke:#000000;stroke-width:8.64"/>
	<line x1="2570.54" y1="462.59" x2="2570.54" y2="439.57" style="stroke:#000000;stroke-width:8.64"/>
	<line x1="2570.54" y1="419.40" x2="2570.54" y2="396.38" style="stroke:#000000;stroke-width:8.64"/>
	<line x1="2570.54" y1="376.21" x2="2570.54" y2="353.19" style="stroke:#000000;stroke-width:8.64"/>
	<line x1="2570.54" y1="333.02" x2="2570.54" y2="310.00" style="stroke:#000000;stroke-width:8.64"/>
	<line x1="2570.54" y1="289.83" x2="2570.54" y2="266.81" style="stroke:#000000;stroke-width:8.64"/>
	<line x1="2570.54" y1="246.64" x2="2570.54" y2="223.62" style="stroke:#000000;stroke-width:8.64"/>
	<line x1="2570.54" y1="203.45" x2="2570.54" y2="180.43" style="stroke:#000000;stroke-width:8.64"/>
	<line x1="2570.54" y1="160.26" x2="2570.54" y2="137.24" style="stroke:#000000;stroke-width:8.64"/>
	<line x1="2570.54" y1="117.07" x2="2570.54" y2="100.86" style="stroke:#000000;stroke-width:8.64"/>
	<path d=" M454.04 278.20 L565.41 323.86 L676.79 266.81 L788.29 246.27 L899.66 193.80 L1011.04 184.76 L1122.41 164.22 L1233.79 200.73 L1345.16 207.54 L1456.54 303.32 L1567.91 342.06 L1679.29 378.56 L1790.66 451.45 L1902.04 556.40 L2013.54 693.15 L2124.91 738.69 L2236.29 809.35 L2347.66 859.59 L2459.04 1028.27 L2570.41 1203.75 L2681.79 1308.70 L2793.16 1516.11 L2904.54 1543.46 L3015.91 1636.89 L3127.29 1746.41 L3238.79 1796.53 L3350.16 1839.85 L3461.54 1855.81 L3572.91 1889.97 L3684.29 2006.30 L3795.66 2133.89" stroke-linejoin="round" style="fill:none;stroke:#000000;stroke-width:8.64"/>
	<line x1="454.04" y1="386.36" x2="510.47" y2="374.73" style="stroke:#000000;stroke-width:8.64"/>
	<line x1="538.68" y1="369.03" x2="565.41" y2="363.47" style="stroke:#000000;stroke-width:8.64"/>
	<line x1="565.41" y1="363.47" x2="586.20" y2="341.56" style="stroke:#000000;stroke-width:8.64"/>
	<line x1="606.13" y1="320.65" x2="645.73" y2="278.82" style="stroke:#000000;stroke-width:8.64"/>
	<line x1="665.53" y1="258.03" x2="676.79" y2="246.15" style="stroke:#000000;stroke-width:8.64"/>
	<line x1="676.79" y1="246.15" x2="714.78" y2="229.81" style="stroke:#000000;stroke-width:8.64"/>
	<line x1="741.14" y1="218.43" x2="788.29" y2="198.13" style="stroke:#000000;stroke-width:8.64"/>
	<line x1="788.29" y1="198.13" x2="794.48" y2="197.26" style="stroke:#000000;stroke-width:8.64"/>
	<line x1="823.06" y1="193.43" x2="880.11" y2="185.75" style="stroke:#000000;stroke-width:8.64"/>
	<line x1="908.70" y1="184.15" x2="965.99" y2="190.70" style="stroke:#000000;stroke-width:8.64"/>
	<line x1="994.58" y1="194.05" x2="1011.04" y2="195.90" style="stroke:#000000;stroke-width:8.64"/>
	<line x1="1011.04" y1="195.90" x2="1051.01" y2="186.87" style="stroke:#000000;stroke-width:8.64"/>
	<line x1="1079.10" y1="180.43" x2="1122.41" y2="170.53" style="stroke:#000000;stroke-width:8.64"/>
	<line x1="1122.41" y1="170.53" x2="1133.80" y2="176.97" style="stroke:#000000;stroke-width:8.64"/>
	<line x1="1158.92" y1="191.20" x2="1209.04" y2="219.54" style="stroke:#000000;stroke-width:8.64"/>
	<line x1="1234.16" y1="233.65" x2="1290.34" y2="246.52" style="stroke:#000000;stroke-width:8.64"/>
	<line x1="1318.43" y1="253.08" x2="1345.16" y2="259.26" style="stroke:#000000;stroke-width:8.64"/>
	<line x1="1345.16" y1="259.26" x2="1375.11" y2="261.86" style="stroke:#000000;stroke-width:8.64"/>
	<line x1="1403.82" y1="264.21" x2="1456.54" y2="268.67" style="stroke:#000000;stroke-width:8.64"/>
	<line x1="1456.54" y1="268.67" x2="1460.50" y2="271.14" style="stroke:#000000;stroke-width:8.64"/>
	<line x1="1485.00" y1="286.24" x2="1534.13" y2="316.31" style="stroke:#000000;stroke-width:8.64"/>
	<line x1="1558.63" y1="331.41" x2="1567.91" y2="337.11" style="stroke:#000000;stroke-width:8.64"/>
	<line x1="1567.91" y1="337.11" x2="1614.57" y2="334.38" style="stroke:#000000;stroke-width:8.64"/>
	<line x1="1643.40" y1="332.77" x2="1679.29" y2="330.79" style="stroke:#000000;stroke-width:8.64"/>
	<line x1="1679.29" y1="330.79" x2="1695.62" y2="344.90" style="stroke:#000000;stroke-width:8.64"/>
	<line x1="1717.40" y1="363.84" x2="1760.84" y2="401.46" style="stroke:#000000;stroke-width:8.64"/>
	<line x1="1782.62" y1="420.39" x2="1790.66" y2="427.32" style="stroke:#000000;stroke-width:8.64"/>
	<line x1="1790.66" y1="427.32" x2="1824.57" y2="459.87" style="stroke:#000000;stroke-width:8.64"/>
	<line x1="1845.36" y1="479.79" x2="1886.94" y2="519.64" style="stroke:#000000;stroke-width:8.64"/>
	<line x1="1906.12" y1="540.93" x2="1935.57" y2="590.43" style="stroke:#000000;stroke-width:8.64"/>
	<line x1="1950.30" y1="615.18" x2="1979.63" y2="664.81" style="stroke:#000000;stroke-width:8.64"/>
	<line x1="1994.36" y1="689.56" x2="2013.54" y2="721.73" style="stroke:#000000;stroke-width:8.64"/>
	<line x1="2013.54" y1="721.73" x2="2033.58" y2="720.87" style="stroke:#000000;stroke-width:8.64"/>
	<line x1="2062.42" y1="719.50" x2="2119.84" y2="716.91" style="stroke:#000000;stroke-width:8.64"/>
	<line x1="2145.70" y1="728.29" x2="2195.94" y2="756.38" style="stroke:#000000;stroke-width:8.64"/>
	<line x1="2221.07" y1="770.49" x2="2236.29" y2="779.03" style="stroke:#000000;stroke-width:8.64"/>
	<line x1="2236.29" y1="779.03" x2="2276.38" y2="776.68" style="stroke:#000000;stroke-width:8.64"/>
	<line x1="2305.09" y1="774.95" x2="2347.66" y2="772.35" style="stroke:#000000;stroke-width:8.64"/>
	<line x1="2347.66" y1="772.35" x2="2354.96" y2="785.34" style="stroke:#000000;stroke-width:8.64"/>
	<line x1="2369.07" y1="810.59" x2="2397.16" y2="860.83" style="stroke:#000000;stroke-width:8.64"/>
	<line x1="2411.27" y1="885.95" x2="2439.36" y2="936.20" style="stroke:#000000;stroke-width:8.64"/>
	<line x1="2453.34" y1="961.44" x2="2459.04" y2="971.59" style="stroke:#000000;stroke-width:8.64"/>
	<line x1="2459.04" y1="971.59" x2="2500.37" y2="991.52" style="stroke:#000000;stroke-width:8.64"/>
	<line x1="2526.36" y1="1004.02" x2="2570.41" y2="1025.30" style="stroke:#000000;stroke-width:8.64"/>
	<line x1="2570.41" y1="1025.30" x2="2577.96" y2="1029.63" style="stroke:#000000;stroke-width:8.64"/>
	<line x1="2602.96" y1="1043.99" x2="2652.95" y2="1072.57" style="stroke:#000000;stroke-width:8.64"/>
	<line x1="2677.95" y1="1086.81" x2="2681.79" y2="1089.03" style="stroke:#000000;stroke-width:8.64"/>
	<line x1="2681.79" y1="1089.03" x2="2719.28" y2="1126.66" style="stroke:#000000;stroke-width:8.64"/>
	<line x1="2739.70" y1="1147.07" x2="2780.29" y2="1187.79" style="stroke:#000000;stroke-width:8.64"/>
	<line x1="2803.31" y1="1204.00" x2="2857.88" y2="1222.44" style="stroke:#000000;stroke-width:8.64"/>
	<line x1="2885.11" y1="1231.72" x2="2904.54" y2="1238.28" style="stroke:#000000;stroke-width:8.64"/>
	<line x1="2904.54" y1="1238.28" x2="2941.54" y2="1241.13" style="stroke:#000000;stroke-width:8.64"/>
	<line x1="2970.12" y1="1243.36" x2="3015.91" y2="1246.94" style="stroke:#000000;stroke-width:8.64"/>
	<line x1="3015.91" y1="1246.94" x2="3027.42" y2="1249.17" style="stroke:#000000;stroke-width:8.64"/>
	<line x1="3055.64" y1="1254.74" x2="3112.19" y2="1265.75" style="stroke:#000000;stroke-width:8.64"/>
	<line x1="3138.55" y1="1276.15" x2="3186.56" y2="1307.83" style="stroke:#000000;stroke-width:8.64"/>
	<line x1="3210.57" y1="1323.67" x2="3238.79" y2="1342.36" style="stroke:#000000;stroke-width:8.64"/>
	<line x1="3238.79" y1="1342.36" x2="3262.30" y2="1345.95" style="stroke:#000000;stroke-width:8.64"/>
	<line x1="3290.76" y1="1350.15" x2="3347.69" y2="1358.69" style="stroke:#000000;stroke-width:8.64"/>
	<line x1="3376.52" y1="1360.43" x2="3433.94" y2="1363.52" style="stroke:#000000;stroke-width:8.64"/>
	<line x1="3462.53" y1="1365.75" x2="3507.94" y2="1401.02" style="stroke:#000000;stroke-width:8.64"/>
	<line x1="3530.71" y1="1418.71" x2="3572.91" y2="1451.63" style="stroke:#000000;stroke-width:8.64"/>
	<line x1="3572.91" y1="1451.63" x2="3576.99" y2="1451.39" style="stroke:#000000;stroke-width:8.64"/>
	<line x1="3605.70" y1="1449.90" x2="3663.25" y2="1446.68" style="stroke:#000000;stroke-width:8.64"/>
	<line x1="3689.24" y1="1451.51" x2="3725.99" y2="1495.81" style="stroke:#000000;stroke-width:8.64"/>
	<line x1="3744.43" y1="1517.96" x2="3781.31" y2="1562.27" style="stroke:#000000;stroke-width:8.64"/>
	<path d="" stroke-linejoin="round" style="fill:none;stroke:#000000;stroke-width:8.64"/>
	<line x1="390.80" y1="2233.63" x2="390.80" y2="100.86" style="stroke:#000000;stroke-width:5.76"/>
	<line x1="390.80" y1="2170.27" x2="350.83" y2="2170.27" style="stroke:#000000;stroke-width:5.76"/>
	<text x="300.72" y="2170.27" style="font-family:'Helvetica';font-size:99.99px;fill:#000000" transform="rotate(-90 300.72,2170.27)" text-anchor="middle">40</text>
	<line x1="390.80" y1="1714.36" x2="350.83" y2="1714.36" style="stroke:#000000;stroke-width:5.76"/>
	<text x="300.72" y="1714.36" style="font-family:'Helvetica';font-size:99.99px;fill:#000000" transform="rotate(-90 300.72,1714.36)" text-anchor="middle">60</text>
	<line x1="390.80" y1="1258.45" x2="350.83" y2="1258.45" style="stroke:#000000;stroke-width:5.76"/>
	<text x="300.72" y="1258.45" style="font-family:'Helvetica';font-size:99.99px;fill:#000000" transform="rotate(-90 300.72,1258.45)" text-anchor="middle">80</text>
	<line x1="390.80" y1="802.54" x2="350.83" y2="802.54" style="stroke:#000000;stroke-width:5.76"/>
	<text x="300.72" y="802.54" style="font-family:'Helvetica';font-size:99.99px;fill:#000000" transform="rotate(-90 300.72,802.54)" text-anchor="middle">100</text>
	<line x1="390.80" y1="346.51" x2="350.83" y2="346.51" style="stroke:#000000;stroke-width:5.76"/>
	<text x="300.72" y="346.51" style="font-family:'Helvetica';font-size:99.99px;fill:#000000" transform="rotate(-90 300.72,346.51)" text-anchor="middle">120</text>
	<text x="190.71" y="1167.25" style="font-family:'Helvetica';font-size:99.99px;fill:#000000" transform="rotate(-90 190.71,1167.25)" text-anchor="middle">cigsale</text>
	<line x1="390.80" y1="2233.63" x2="3859.02" y2="2233.63" style="stroke:#000000;stroke-width:5.76"/>
	<line x1="454.16" y1="2233.63" x2="454.16" y2="2273.73" style="stroke:#000000;stroke-width:5.76"/>
	<text x="454.16" y="2363.59" style="font-family:'Helvetica';font-size:99.99px;fill:#000000" text-anchor="middle">1970</text>
	<line x1="1568.04" y1="2233.63" x2="1568.04" y2="2273.73" style="stroke:#000000;stroke-width:5.76"/>
	<text x="1568.04" y="2363.59" style="font-family:'Helvetica';font-size:99.99px;fill:#000000" text-anchor="middle">1980</text>
	<line x1="2681.91" y1="2233.63" x2="2681.91" y2="2273.73" style="stroke:#000000;stroke-width:5.76"/>
	<text x="2681.91" y="2363.59" style="font-family:'Helvetica';font-size:99.99px;fill:#000000" text-anchor="middle">1990</text>
	<line x1="3795.66" y1="2233.63" x2="3795.66" y2="2273.73" style="stroke:#000000;stroke-width:5.76"/>
	<text x="3795.66" y="2363.59" style="font-family:'Helvetica';font-size:99.99px;fill:#000000" text-anchor="middle">2000</text>
	<text x="2124.91" y="2473.60" style="font-family:'Helvetica';font-size:99.99px;fill:#000000" text-anchor="middle">year</text>
	<rect x="929.86" y="2558.24" width="2390.11" height="186.37" style="fill:#FFFFFF"/>
	<rect x="932.74" y="2561.12" width="2384.35" height="180.61" style="fill:none;stroke:#000000;stroke-width:5.76"/>
	<line x1="973.05" y1="2651.43" x2="1347.51" y2="2651.43" style="stroke:#000000;stroke-width:8.64"/>
	<line x1="1979.13" y1="2651.43" x2="2036.68" y2="2651.43" style="stroke:#000000;stroke-width:8.64"/>
	<line x1="2065.51" y1="2651.43" x2="2123.05" y2="2651.43" style="stroke:#000000;stroke-width:8.64"/>
	<line x1="2151.89" y1="2651.43" x2="2209.56" y2="2651.43" style="stroke:#000000;stroke-width:8.64"/>
	<line x1="2238.27" y1="2651.43" x2="2295.93" y2="2651.43" style="stroke:#000000;stroke-width:8.64"/>
	<line x1="2324.64" y1="2651.43" x2="2353.48" y2="2651.43" style="stroke:#000000;stroke-width:8.64"/>
	<text x="1407.41" y="2686.46" style="font-family:'Helvetica';font-size:99.99px;fill:#000000">California</text>
	<text x="2413.50" y="2686.46" style="font-family:'Helvetica';font-size:99.99px;fill:#000000">synthetic California</text>
</svg>
