<?xml version="1.0" encoding="UTF-8" standalone="no"?>
<!-- This is a Stata 17.0 generated SVG file (http://www.stata.com) -->

<svg version="1.1" width="5.500in" height="4.000in" viewBox="0 0 3960 2880" xmlns="http://www.w3.org/2000/svg" xmlns:xlink="http://www.w3.org/1999/xlink">
	<desc>Stata Graph - Graph</desc>
	<rect x="0" y="0" width="3960" height="2880" style="fill:#EAF2F3;stroke:none"/>
	<rect x="0.00" y="0.00" width="3959.88" height="2880.00" style="fill:#EAF2F3"/>
	<rect x="2.88" y="2.88" width="3954.12" height="2874.24" style="fill:none;stroke:#EAF2F3;stroke-width:5.76"/>
	<rect x="290.81" y="100.86" width="3568.21" height="1992.81" style="fill:#FFFFFF"/>
	<rect x="293.69" y="103.74" width="3562.45" height="1987.05" style="fill:none;stroke:#FFFFFF;stroke-width:5.76"/>
	<line x1="290.81" y1="2030.31" x2="3859.02" y2="2030.31" style="stroke:#EAF2F3;stroke-width:8.64"/>
	<line x1="290.81" y1="1408.32" x2="3859.02" y2="1408.32" style="stroke:#EAF2F3;stroke-width:8.64"/>
	<line x1="290.81" y1="786.21" x2="3859.02" y2="786.21" style="stroke:#EAF2F3;stroke-width:8.64"/>
	<line x1="290.81" y1="164.22" x2="3859.02" y2="164.22" style="stroke:#EAF2F3;stroke-width:8.64"/>
	<circle cx="1162.88" cy="1894.18" r="26.35" style="fill:#1A476F"/>
	<circle cx="1162.88" cy="1894.18" r="22.03" style="fill:none;stroke:#1A476F;stroke-width:8.64"/>
	<circle cx="979.36" cy="1905.81" r="26.35" style="fill:#1A476F"/>
	<circle cx="979.36" cy="1905.81" r="22.03" style="fill:none;stroke:#1A476F;stroke-width:8.64"/>
	<circle cx="1702.06" cy="1890.84" r="26.35" style="fill:#1A476F"/>
	<circle cx="1702.06" cy="1890.84" r="22.03" style="fill:none;stroke:#1A476F;stroke-width:8.64"/>
	<circle cx="692.51" cy="1958.53" r="26.35" style="fill:#1A476F"/>
	<circle cx="692.51" cy="1958.53" r="22.03" style="fill:none;stroke:#1A476F;stroke-width:8.64"/>
	<circle cx="1145.68" cy="1860.14" r="26.35" style="fill:#1A476F"/>
	<circle cx="1145.68" cy="1860.14" r="22.03" style="fill:none;stroke:#1A476F;stroke-width:8.64"/>
	<circle cx="1501.34" cy="1887.99" r="26.35" style="fill:#1A476F"/>
	<circle cx="1501.34" cy="1887.99" r="22.03" style="fill:none;stroke:#1A476F;stroke-width:8.64"/>
	<circle cx="1294.80" cy="1896.28" r="26.35" style="fill:#1A476F"/>
	<circle cx="1294.80" cy="1896.28" r="22.03" style="fill:none;stroke:#1A476F;stroke-width:8.64"/>
	<circle cx="1289.10" cy="1894.30" r="26.35" style="fill:#1A476F"/>
	<circle cx="1289.10" cy="1894.30" r="22.03" style="fill:none;stroke:#1A476F;stroke-width:8.64"/>
	<circle cx="956.34" cy="1876.48" r="26.35" style="fill:#1A476F"/>
	<circle cx="956.34" cy="1876.48" r="22.03" style="fill:none;stroke:#1A476F;stroke-width:8.64"/>
	<circle cx="1862.69" cy="1926.72" r="26.35" style="fill:#1A476F"/>
	<circle cx="1862.69" cy="1926.72" r="22.03" style="fill:none;stroke:#1A476F;stroke-width:8.64"/>
	<circle cx="1839.67" cy="1959.89" r="26.35" style="fill:#1A476F"/>
	<circle cx="1839.67" cy="1959.89" r="22.03" style="fill:none;stroke:#1A476F;stroke-width:8.64"/>
	<circle cx="1891.27" cy="1914.35" r="26.35" style="fill:#1A476F"/>
	<circle cx="1891.27" cy="1914.35" r="22.03" style="fill:none;stroke:#1A476F;stroke-width:8.64"/>
	<circle cx="1202.97" cy="1863.86" r="26.35" style="fill:#1A476F"/>
	<circle cx="1202.97" cy="1863.86" r="22.03" style="fill:none;stroke:#1A476F;stroke-width:8.64"/>
	<circle cx="1633.25" cy="1913.85" r="26.35" style="fill:#1A476F"/>
	<circle cx="1633.25" cy="1913.85" r="22.03" style="fill:none;stroke:#1A476F;stroke-width:8.64"/>
	<circle cx="3583.43" cy="1780.20" r="26.35" style="fill:#1A476F"/>
	<circle cx="3583.43" cy="1780.20" r="22.03" style="fill:none;stroke:#1A476F;stroke-width:8.64"/>
	<circle cx="1076.87" cy="1833.17" r="26.35" style="fill:#1A476F"/>
	<circle cx="1076.87" cy="1833.17" r="22.03" style="fill:none;stroke:#1A476F;stroke-width:8.64"/>
	<circle cx="1524.23" cy="1917.81" r="26.35" style="fill:#1A476F"/>
	<circle cx="1524.23" cy="1917.81" r="22.03" style="fill:none;stroke:#1A476F;stroke-width:8.64"/>
	<circle cx="463.07" cy="1898.76" r="26.35" style="fill:#1A476F"/>
	<circle cx="463.07" cy="1898.76" r="22.03" style="fill:none;stroke:#1A476F;stroke-width:8.64"/>
	<circle cx="1495.52" cy="1915.71" r="26.35" style="fill:#1A476F"/>
	<circle cx="1495.52" cy="1915.71" r="22.03" style="fill:none;stroke:#1A476F;stroke-width:8.64"/>
	<circle cx="1237.38" cy="1878.58" r="26.35" style="fill:#1A476F"/>
	<circle cx="1237.38" cy="1878.58" r="22.03" style="fill:none;stroke:#1A476F;stroke-width:8.64"/>
	<circle cx="2573.88" cy="1903.21" r="26.35" style="fill:#1A476F"/>
	<circle cx="2573.88" cy="1903.21" r="22.03" style="fill:none;stroke:#1A476F;stroke-width:8.64"/>
	<circle cx="1294.80" cy="1936.01" r="26.35" style="fill:#1A476F"/>
	<circle cx="1294.80" cy="1936.01" r="22.03" style="fill:none;stroke:#1A476F;stroke-width:8.64"/>
	<circle cx="1753.66" cy="1854.45" r="26.35" style="fill:#1A476F"/>
	<circle cx="1753.66" cy="1854.45" r="22.03" style="fill:none;stroke:#1A476F;stroke-width:8.64"/>
	<circle cx="1248.89" cy="1900.86" r="26.35" style="fill:#1A476F"/>
	<circle cx="1248.89" cy="1900.86" r="22.03" style="fill:none;stroke:#1A476F;stroke-width:8.64"/>
	<circle cx="1180.08" cy="1820.42" r="26.35" style="fill:#1A476F"/>
	<circle cx="1180.08" cy="1820.42" r="22.03" style="fill:none;stroke:#1A476F;stroke-width:8.64"/>
	<circle cx="1443.92" cy="1659.29" r="26.35" style="fill:#1A476F"/>
	<circle cx="1443.92" cy="1659.29" r="22.03" style="fill:none;stroke:#1A476F;stroke-width:8.64"/>
	<circle cx="1277.60" cy="1886.13" r="26.35" style="fill:#1A476F"/>
	<circle cx="1277.60" cy="1886.13" r="22.03" style="fill:none;stroke:#1A476F;stroke-width:8.64"/>
	<circle cx="1048.16" cy="1552.12" r="26.35" style="fill:#1A476F"/>
	<circle cx="1048.16" cy="1552.12" r="22.03" style="fill:none;stroke:#1A476F;stroke-width:8.64"/>
	<circle cx="1283.29" cy="1971.15" r="26.35" style="fill:#1A476F"/>
	<circle cx="1283.29" cy="1971.15" r="22.03" style="fill:none;stroke:#1A476F;stroke-width:8.64"/>
	<circle cx="1409.51" cy="1844.80" r="26.35" style="fill:#1A476F"/>
	<circle cx="1409.51" cy="1844.80" r="22.03" style="fill:none;stroke:#1A476F;stroke-width:8.64"/>
	<circle cx="1168.57" cy="1902.96" r="26.35" style="fill:#1A476F"/>
	<circle cx="1168.57" cy="1902.96" r="22.03" style="fill:none;stroke:#1A476F;stroke-width:8.64"/>
	<circle cx="1208.79" cy="1832.18" r="26.35" style="fill:#1A476F"/>
	<circle cx="1208.79" cy="1832.18" r="22.03" style="fill:none;stroke:#1A476F;stroke-width:8.64"/>
	<circle cx="1065.36" cy="1977.22" r="26.35" style="fill:#1A476F"/>
	<circle cx="1065.36" cy="1977.22" r="22.03" style="fill:none;stroke:#1A476F;stroke-width:8.64"/>
	<circle cx="1334.89" cy="1927.22" r="26.35" style="fill:#1A476F"/>
	<circle cx="1334.89" cy="1927.22" r="22.03" style="fill:none;stroke:#1A476F;stroke-width:8.64"/>
	<circle cx="1323.51" cy="1931.18" r="26.35" style="fill:#1A476F"/>
	<circle cx="1323.51" cy="1931.18" r="22.03" style="fill:none;stroke:#1A476F;stroke-width:8.64"/>
	<circle cx="1392.31" cy="1958.65" r="26.35" style="fill:#1A476F"/>
	<circle cx="1392.31" cy="1958.65" r="22.03" style="fill:none;stroke:#1A476F;stroke-width:8.64"/>
	<circle cx="979.36" cy="1863.49" r="26.35" style="fill:#1A476F"/>
	<circle cx="979.36" cy="1863.49" r="22.03" style="fill:none;stroke:#1A476F;stroke-width:8.64"/>
	<circle cx="1461.12" cy="1809.65" r="26.35" style="fill:#1A476F"/>
	<circle cx="1461.12" cy="1809.65" r="22.03" style="fill:none;stroke:#1A476F;stroke-width:8.64"/>
	<circle cx="1403.82" cy="1942.19" r="26.35" style="fill:#1A476F"/>
	<circle cx="1403.82" cy="1942.19" r="22.03" style="fill:none;stroke:#1A476F;stroke-width:8.64"/>
	<circle cx="1409.51" cy="1923.38" r="26.35" style="fill:#1A476F"/>
	<circle cx="1409.51" cy="1923.38" r="22.03" style="fill:none;stroke:#1A476F;stroke-width:8.64"/>
	<circle cx="1145.68" cy="1864.23" r="26.35" style="fill:#1A476F"/>
	<circle cx="1145.68" cy="1864.23" r="22.03" style="fill:none;stroke:#1A476F;stroke-width:8.64"/>
	<circle cx="1139.86" cy="1966.20" r="26.35" style="fill:#1A476F"/>
	<circle cx="1139.86" cy="1966.20" r="22.03" style="fill:none;stroke:#1A476F;stroke-width:8.64"/>
	<circle cx="1082.57" cy="1914.60" r="26.35" style="fill:#1A476F"/>
	<circle cx="1082.57" cy="1914.60" r="22.03" style="fill:none;stroke:#1A476F;stroke-width:8.64"/>
	<circle cx="1220.18" cy="1928.95" r="26.35" style="fill:#1A476F"/>
	<circle cx="1220.18" cy="1928.95" r="22.03" style="fill:none;stroke:#1A476F;stroke-width:8.64"/>
	<circle cx="1300.49" cy="1821.29" r="26.35" style="fill:#1A476F"/>
	<circle cx="1300.49" cy="1821.29" r="22.03" style="fill:none;stroke:#1A476F;stroke-width:8.64"/>
	<circle cx="939.14" cy="1959.77" r="26.35" style="fill:#1A476F"/>
	<circle cx="939.14" cy="1959.77" r="22.03" style="fill:none;stroke:#1A476F;stroke-width:8.64"/>
	<circle cx="1478.32" cy="1934.03" r="26.35" style="fill:#1A476F"/>
	<circle cx="1478.32" cy="1934.03" r="22.03" style="fill:none;stroke:#1A476F;stroke-width:8.64"/>
	<circle cx="1088.26" cy="1882.54" r="26.35" style="fill:#1A476F"/>
	<circle cx="1088.26" cy="1882.54" r="22.03" style="fill:none;stroke:#1A476F;stroke-width:8.64"/>
	<circle cx="1266.09" cy="1933.16" r="26.35" style="fill:#1A476F"/>
	<circle cx="1266.09" cy="1933.16" r="22.03" style="fill:none;stroke:#1A476F;stroke-width:8.64"/>
	<circle cx="1346.40" cy="1884.77" r="26.35" style="fill:#1A476F"/>
	<circle cx="1346.40" cy="1884.77" r="22.03" style="fill:none;stroke:#1A476F;stroke-width:8.64"/>
	<circle cx="841.62" cy="1847.65" r="26.35" style="fill:#1A476F"/>
	<circle cx="841.62" cy="1847.65" r="22.03" style="fill:none;stroke:#1A476F;stroke-width:8.64"/>
	<circle cx="1294.80" cy="1916.45" r="26.35" style="fill:#1A476F"/>
	<circle cx="1294.80" cy="1916.45" r="22.03" style="fill:none;stroke:#1A476F;stroke-width:8.64"/>
	<circle cx="1472.63" cy="1897.27" r="26.35" style="fill:#1A476F"/>
	<circle cx="1472.63" cy="1897.27" r="22.03" style="fill:none;stroke:#1A476F;stroke-width:8.64"/>
	<circle cx="1455.42" cy="1919.17" r="26.35" style="fill:#1A476F"/>
	<circle cx="1455.42" cy="1919.17" r="22.03" style="fill:none;stroke:#1A476F;stroke-width:8.64"/>
	<circle cx="1266.09" cy="1927.22" r="26.35" style="fill:#1A476F"/>
	<circle cx="1266.09" cy="1927.22" r="22.03" style="fill:none;stroke:#1A476F;stroke-width:8.64"/>
	<circle cx="1495.52" cy="1933.41" r="26.35" style="fill:#1A476F"/>
	<circle cx="1495.52" cy="1933.41" r="22.03" style="fill:none;stroke:#1A476F;stroke-width:8.64"/>
	<circle cx="1965.89" cy="1740.85" r="26.35" style="fill:#1A476F"/>
	<circle cx="1965.89" cy="1740.85" r="22.03" style="fill:none;stroke:#1A476F;stroke-width:8.64"/>
	<circle cx="1788.06" cy="1941.20" r="26.35" style="fill:#1A476F"/>
	<circle cx="1788.06" cy="1941.20" r="22.03" style="fill:none;stroke:#1A476F;stroke-width:8.64"/>
	<circle cx="1214.48" cy="1860.14" r="26.35" style="fill:#1A476F"/>
	<circle cx="1214.48" cy="1860.14" r="22.03" style="fill:none;stroke:#1A476F;stroke-width:8.64"/>
	<circle cx="1076.87" cy="1778.10" r="26.35" style="fill:#1A476F"/>
	<circle cx="1076.87" cy="1778.10" r="22.03" style="fill:none;stroke:#1A476F;stroke-width:8.64"/>
	<circle cx="1518.54" cy="1881.68" r="26.35" style="fill:#1A476F"/>
	<circle cx="1518.54" cy="1881.68" r="22.03" style="fill:none;stroke:#1A476F;stroke-width:8.64"/>
	<circle cx="1656.15" cy="1998.50" r="26.35" style="fill:#1A476F"/>
	<circle cx="1656.15" cy="1998.50" r="22.03" style="fill:none;stroke:#1A476F;stroke-width:8.64"/>
	<circle cx="1202.97" cy="1934.03" r="26.35" style="fill:#1A476F"/>
	<circle cx="1202.97" cy="1934.03" r="22.03" style="fill:none;stroke:#1A476F;stroke-width:8.64"/>
	<circle cx="1111.28" cy="1855.32" r="26.35" style="fill:#1A476F"/>
	<circle cx="1111.28" cy="1855.32" r="22.03" style="fill:none;stroke:#1A476F;stroke-width:8.64"/>
	<circle cx="944.83" cy="1962.86" r="26.35" style="fill:#1A476F"/>
	<circle cx="944.83" cy="1962.86" r="22.03" style="fill:none;stroke:#1A476F;stroke-width:8.64"/>
	<circle cx="1369.29" cy="1921.65" r="26.35" style="fill:#1A476F"/>
	<circle cx="1369.29" cy="1921.65" r="22.03" style="fill:none;stroke:#1A476F;stroke-width:8.64"/>
	<circle cx="927.63" cy="1870.29" r="26.35" style="fill:#1A476F"/>
	<circle cx="927.63" cy="1870.29" r="22.03" style="fill:none;stroke:#1A476F;stroke-width:8.64"/>
	<circle cx="1248.89" cy="1875.12" r="26.35" style="fill:#1A476F"/>
	<circle cx="1248.89" cy="1875.12" r="22.03" style="fill:none;stroke:#1A476F;stroke-width:8.64"/>
	<circle cx="744.11" cy="1921.53" r="26.35" style="fill:#1A476F"/>
	<circle cx="744.11" cy="1921.53" r="22.03" style="fill:none;stroke:#1A476F;stroke-width:8.64"/>
	<circle cx="1065.36" cy="1915.34" r="26.35" style="fill:#1A476F"/>
	<circle cx="1065.36" cy="1915.34" r="22.03" style="fill:none;stroke:#1A476F;stroke-width:8.64"/>
	<circle cx="1105.46" cy="1931.06" r="26.35" style="fill:#1A476F"/>
	<circle cx="1105.46" cy="1931.06" r="22.03" style="fill:none;stroke:#1A476F;stroke-width:8.64"/>
	<circle cx="1260.39" cy="1935.88" r="26.35" style="fill:#1A476F"/>
	<circle cx="1260.39" cy="1935.88" r="22.03" style="fill:none;stroke:#1A476F;stroke-width:8.64"/>
	<circle cx="1088.26" cy="1955.81" r="26.35" style="fill:#1A476F"/>
	<circle cx="1088.26" cy="1955.81" r="22.03" style="fill:none;stroke:#1A476F;stroke-width:8.64"/>
	<circle cx="1231.68" cy="1907.05" r="26.35" style="fill:#1A476F"/>
	<circle cx="1231.68" cy="1907.05" r="22.03" style="fill:none;stroke:#1A476F;stroke-width:8.64"/>
	<circle cx="382.76" cy="1835.02" r="26.35" style="fill:#1A476F"/>
	<circle cx="382.76" cy="1835.02" r="22.03" style="fill:none;stroke:#1A476F;stroke-width:8.64"/>
	<circle cx="1300.49" cy="1917.07" r="26.35" style="fill:#1A476F"/>
	<circle cx="1300.49" cy="1917.07" r="22.03" style="fill:none;stroke:#1A476F;stroke-width:8.64"/>
	<circle cx="1220.18" cy="1861.13" r="26.35" style="fill:#1A476F"/>
	<circle cx="1220.18" cy="1861.13" r="22.03" style="fill:none;stroke:#1A476F;stroke-width:8.64"/>
	<circle cx="1099.77" cy="1943.31" r="26.35" style="fill:#1A476F"/>
	<circle cx="1099.77" cy="1943.31" r="22.03" style="fill:none;stroke:#1A476F;stroke-width:8.64"/>
	<circle cx="990.74" cy="1938.23" r="26.35" style="fill:#1A476F"/>
	<circle cx="990.74" cy="1938.23" r="22.03" style="fill:none;stroke:#1A476F;stroke-width:8.64"/>
	<circle cx="864.64" cy="1893.93" r="26.35" style="fill:#1A476F"/>
	<circle cx="864.64" cy="1893.93" r="22.03" style="fill:none;stroke:#1A476F;stroke-width:8.64"/>
	<circle cx="1357.91" cy="1911.87" r="26.35" style="fill:#1A476F"/>
	<circle cx="1357.91" cy="1911.87" r="22.03" style="fill:none;stroke:#1A476F;stroke-width:8.64"/>
	<circle cx="1266.09" cy="1975.48" r="26.35" style="fill:#1A476F"/>
	<circle cx="1266.09" cy="1975.48" r="22.03" style="fill:none;stroke:#1A476F;stroke-width:8.64"/>
	<circle cx="1168.57" cy="1956.42" r="26.35" style="fill:#1A476F"/>
	<circle cx="1168.57" cy="1956.42" r="22.03" style="fill:none;stroke:#1A476F;stroke-width:8.64"/>
	<circle cx="887.54" cy="1897.64" r="26.35" style="fill:#1A476F"/>
	<circle cx="887.54" cy="1897.64" r="22.03" style="fill:none;stroke:#1A476F;stroke-width:8.64"/>
	<circle cx="899.04" cy="1868.93" r="26.35" style="fill:#1A476F"/>
	<circle cx="899.04" cy="1868.93" r="22.03" style="fill:none;stroke:#1A476F;stroke-width:8.64"/>
	<circle cx="1243.19" cy="1806.68" r="26.35" style="fill:#1A476F"/>
	<circle cx="1243.19" cy="1806.68" r="22.03" style="fill:none;stroke:#1A476F;stroke-width:8.64"/>
	<circle cx="1180.08" cy="1514.99" r="26.35" style="fill:#1A476F"/>
	<circle cx="1180.08" cy="1514.99" r="22.03" style="fill:none;stroke:#1A476F;stroke-width:8.64"/>
	<circle cx="990.74" cy="1864.23" r="26.35" style="fill:#1A476F"/>
	<circle cx="990.74" cy="1864.23" r="22.03" style="fill:none;stroke:#1A476F;stroke-width:8.64"/>
	<circle cx="1266.09" cy="1812.62" r="26.35" style="fill:#1A476F"/>
	<circle cx="1266.09" cy="1812.62" r="22.03" style="fill:none;stroke:#1A476F;stroke-width:8.64"/>
	<circle cx="1294.80" cy="1916.95" r="26.35" style="fill:#1A476F"/>
	<circle cx="1294.80" cy="1916.95" r="22.03" style="fill:none;stroke:#1A476F;stroke-width:8.64"/>
	<circle cx="847.32" cy="1795.05" r="26.35" style="fill:#1A476F"/>
	<circle cx="847.32" cy="1795.05" r="22.03" style="fill:none;stroke:#1A476F;stroke-width:8.64"/>
	<circle cx="1765.17" cy="1926.72" r="26.35" style="fill:#1A476F"/>
	<circle cx="1765.17" cy="1926.72" r="22.03" style="fill:none;stroke:#1A476F;stroke-width:8.64"/>
	<circle cx="1237.38" cy="1888.36" r="26.35" style="fill:#1A476F"/>
	<circle cx="1237.38" cy="1888.36" r="22.03" style="fill:none;stroke:#1A476F;stroke-width:8.64"/>
	<circle cx="1323.51" cy="1886.26" r="26.35" style="fill:#1A476F"/>
	<circle cx="1323.51" cy="1886.26" r="22.03" style="fill:none;stroke:#1A476F;stroke-width:8.64"/>
	<circle cx="767.13" cy="1870.79" r="26.35" style="fill:#1A476F"/>
	<circle cx="767.13" cy="1870.79" r="22.03" style="fill:none;stroke:#1A476F;stroke-width:8.64"/>
	<circle cx="1019.45" cy="1767.95" r="26.35" style="fill:#1A476F"/>
	<circle cx="1019.45" cy="1767.95" r="22.03" style="fill:none;stroke:#1A476F;stroke-width:8.64"/>
	<circle cx="1868.38" cy="1901.11" r="26.35" style="fill:#1A476F"/>
	<circle cx="1868.38" cy="1901.11" r="22.03" style="fill:none;stroke:#1A476F;stroke-width:8.64"/>
	<circle cx="1581.53" cy="1906.92" r="26.35" style="fill:#1A476F"/>
	<circle cx="1581.53" cy="1906.92" r="22.03" style="fill:none;stroke:#1A476F;stroke-width:8.64"/>
	<circle cx="1455.42" cy="1874.50" r="26.35" style="fill:#1A476F"/>
	<circle cx="1455.42" cy="1874.50" r="22.03" style="fill:none;stroke:#1A476F;stroke-width:8.64"/>
	<circle cx="1220.18" cy="1940.71" r="26.35" style="fill:#1A476F"/>
	<circle cx="1220.18" cy="1940.71" r="22.03" style="fill:none;stroke:#1A476F;stroke-width:8.64"/>
	<circle cx="870.33" cy="1862.37" r="26.35" style="fill:#1A476F"/>
	<circle cx="870.33" cy="1862.37" r="22.03" style="fill:none;stroke:#1A476F;stroke-width:8.64"/>
	<circle cx="893.23" cy="1857.30" r="26.35" style="fill:#1A476F"/>
	<circle cx="893.23" cy="1857.30" r="22.03" style="fill:none;stroke:#1A476F;stroke-width:8.64"/>
	<circle cx="1443.92" cy="1875.49" r="26.35" style="fill:#1A476F"/>
	<circle cx="1443.92" cy="1875.49" r="22.03" style="fill:none;stroke:#1A476F;stroke-width:8.64"/>
	<circle cx="554.90" cy="1837.50" r="26.35" style="fill:#1A476F"/>
	<circle cx="554.90" cy="1837.50" r="22.03" style="fill:none;stroke:#1A476F;stroke-width:8.64"/>
	<circle cx="1621.74" cy="1762.87" r="26.35" style="fill:#1A476F"/>
	<circle cx="1621.74" cy="1762.87" r="22.03" style="fill:none;stroke:#1A476F;stroke-width:8.64"/>
	<circle cx="979.36" cy="1800.74" r="26.35" style="fill:#1A476F"/>
	<circle cx="979.36" cy="1800.74" r="22.03" style="fill:none;stroke:#1A476F;stroke-width:8.64"/>
	<circle cx="1220.18" cy="1959.15" r="26.35" style="fill:#1A476F"/>
	<circle cx="1220.18" cy="1959.15" r="22.03" style="fill:none;stroke:#1A476F;stroke-width:8.64"/>
	<circle cx="939.14" cy="1204.25" r="26.35" style="fill:#1A476F"/>
	<circle cx="939.14" cy="1204.25" r="22.03" style="fill:none;stroke:#1A476F;stroke-width:8.64"/>
	<circle cx="1346.40" cy="1911.13" r="26.35" style="fill:#1A476F"/>
	<circle cx="1346.40" cy="1911.13" r="22.03" style="fill:none;stroke:#1A476F;stroke-width:8.64"/>
	<circle cx="2264.13" cy="1954.20" r="26.35" style="fill:#1A476F"/>
	<circle cx="2264.13" cy="1954.20" r="22.03" style="fill:none;stroke:#1A476F;stroke-width:8.64"/>
	<circle cx="1661.84" cy="1803.96" r="26.35" style="fill:#1A476F"/>
	<circle cx="1661.84" cy="1803.96" r="22.03" style="fill:none;stroke:#1A476F;stroke-width:8.64"/>
	<circle cx="990.74" cy="1854.82" r="26.35" style="fill:#1A476F"/>
	<circle cx="990.74" cy="1854.82" r="22.03" style="fill:none;stroke:#1A476F;stroke-width:8.64"/>
	<circle cx="1065.36" cy="1902.72" r="26.35" style="fill:#1A476F"/>
	<circle cx="1065.36" cy="1902.72" r="22.03" style="fill:none;stroke:#1A476F;stroke-width:8.64"/>
	<circle cx="1552.94" cy="1870.29" r="26.35" style="fill:#1A476F"/>
	<circle cx="1552.94" cy="1870.29" r="22.03" style="fill:none;stroke:#1A476F;stroke-width:8.64"/>
	<circle cx="738.42" cy="1930.81" r="26.35" style="fill:#1A476F"/>
	<circle cx="738.42" cy="1930.81" r="22.03" style="fill:none;stroke:#1A476F;stroke-width:8.64"/>
	<circle cx="761.31" cy="1891.70" r="26.35" style="fill:#1A476F"/>
	<circle cx="761.31" cy="1891.70" r="22.03" style="fill:none;stroke:#1A476F;stroke-width:8.64"/>
	<circle cx="1030.96" cy="1827.47" r="26.35" style="fill:#1A476F"/>
	<circle cx="1030.96" cy="1827.47" r="22.03" style="fill:none;stroke:#1A476F;stroke-width:8.64"/>
	<circle cx="1157.06" cy="1792.82" r="26.35" style="fill:#1A476F"/>
	<circle cx="1157.06" cy="1792.82" r="22.03" style="fill:none;stroke:#1A476F;stroke-width:8.64"/>
	<circle cx="933.45" cy="1906.43" r="26.35" style="fill:#1A476F"/>
	<circle cx="933.45" cy="1906.43" r="22.03" style="fill:none;stroke:#1A476F;stroke-width:8.64"/>
	<circle cx="721.22" cy="1916.20" r="26.35" style="fill:#1A476F"/>
	<circle cx="721.22" cy="1916.20" r="22.03" style="fill:none;stroke:#1A476F;stroke-width:8.64"/>
	<circle cx="1065.36" cy="1873.51" r="26.35" style="fill:#1A476F"/>
	<circle cx="1065.36" cy="1873.51" r="22.03" style="fill:none;stroke:#1A476F;stroke-width:8.64"/>
	<circle cx="1363.60" cy="1899.37" r="26.35" style="fill:#1A476F"/>
	<circle cx="1363.60" cy="1899.37" r="22.03" style="fill:none;stroke:#1A476F;stroke-width:8.64"/>
	<circle cx="1220.18" cy="1878.46" r="26.35" style="fill:#1A476F"/>
	<circle cx="1220.18" cy="1878.46" r="22.03" style="fill:none;stroke:#1A476F;stroke-width:8.64"/>
	<circle cx="1707.75" cy="1814.11" r="26.35" style="fill:#1A476F"/>
	<circle cx="1707.75" cy="1814.11" r="22.03" style="fill:none;stroke:#1A476F;stroke-width:8.64"/>
	<circle cx="2401.86" cy="1639.49" r="26.35" style="fill:#1A476F"/>
	<circle cx="2401.86" cy="1639.49" r="22.03" style="fill:none;stroke:#1A476F;stroke-width:8.64"/>
	<circle cx="1684.86" cy="1794.06" r="26.35" style="fill:#1A476F"/>
	<circle cx="1684.86" cy="1794.06" r="22.03" style="fill:none;stroke:#1A476F;stroke-width:8.64"/>
	<circle cx="1065.36" cy="1977.22" r="26.35" style="fill:#1A476F"/>
	<circle cx="1065.36" cy="1977.22" r="22.03" style="fill:none;stroke:#1A476F;stroke-width:8.64"/>
	<circle cx="2900.82" cy="1818.93" r="26.35" style="fill:#1A476F"/>
	<circle cx="2900.82" cy="1818.93" r="22.03" style="fill:none;stroke:#1A476F;stroke-width:8.64"/>
	<circle cx="474.58" cy="1985.63" r="26.35" style="fill:#1A476F"/>
	<circle cx="474.58" cy="1985.63" r="22.03" style="fill:none;stroke:#1A476F;stroke-width:8.64"/>
	<circle cx="1409.51" cy="1973.26" r="26.35" style="fill:#1A476F"/>
	<circle cx="1409.51" cy="1973.26" r="22.03" style="fill:none;stroke:#1A476F;stroke-width:8.64"/>
	<circle cx="1277.60" cy="1863.73" r="26.35" style="fill:#1A476F"/>
	<circle cx="1277.60" cy="1863.73" r="22.03" style="fill:none;stroke:#1A476F;stroke-width:8.64"/>
	<circle cx="1220.18" cy="1939.72" r="26.35" style="fill:#1A476F"/>
	<circle cx="1220.18" cy="1939.72" r="22.03" style="fill:none;stroke:#1A476F;stroke-width:8.64"/>
	<circle cx="1656.15" cy="2002.71" r="26.35" style="fill:#1A476F"/>
	<circle cx="1656.15" cy="2002.71" r="22.03" style="fill:none;stroke:#1A476F;stroke-width:8.64"/>
	<circle cx="1696.24" cy="1769.06" r="26.35" style="fill:#1A476F"/>
	<circle cx="1696.24" cy="1769.06" r="22.03" style="fill:none;stroke:#1A476F;stroke-width:8.64"/>
	<circle cx="1828.28" cy="1895.79" r="26.35" style="fill:#1A476F"/>
	<circle cx="1828.28" cy="1895.79" r="22.03" style="fill:none;stroke:#1A476F;stroke-width:8.64"/>
	<circle cx="1902.78" cy="1808.79" r="26.35" style="fill:#1A476F"/>
	<circle cx="1902.78" cy="1808.79" r="22.03" style="fill:none;stroke:#1A476F;stroke-width:8.64"/>
	<circle cx="1495.52" cy="1931.92" r="26.35" style="fill:#1A476F"/>
	<circle cx="1495.52" cy="1931.92" r="22.03" style="fill:none;stroke:#1A476F;stroke-width:8.64"/>
	<circle cx="2860.73" cy="1770.18" r="26.35" style="fill:#1A476F"/>
	<circle cx="2860.73" cy="1770.18" r="22.03" style="fill:none;stroke:#1A476F;stroke-width:8.64"/>
	<circle cx="1294.80" cy="1834.65" r="26.35" style="fill:#1A476F"/>
	<circle cx="1294.80" cy="1834.65" r="22.03" style="fill:none;stroke:#1A476F;stroke-width:8.64"/>
	<circle cx="1019.45" cy="1900.36" r="26.35" style="fill:#1A476F"/>
	<circle cx="1019.45" cy="1900.36" r="22.03" style="fill:none;stroke:#1A476F;stroke-width:8.64"/>
	<circle cx="1776.56" cy="1819.68" r="26.35" style="fill:#1A476F"/>
	<circle cx="1776.56" cy="1819.68" r="22.03" style="fill:none;stroke:#1A476F;stroke-width:8.64"/>
	<circle cx="1856.87" cy="1974.00" r="26.35" style="fill:#1A476F"/>
	<circle cx="1856.87" cy="1974.00" r="22.03" style="fill:none;stroke:#1A476F;stroke-width:8.64"/>
	<circle cx="2906.64" cy="1889.85" r="26.35" style="fill:#1A476F"/>
	<circle cx="2906.64" cy="1889.85" r="22.03" style="fill:none;stroke:#1A476F;stroke-width:8.64"/>
	<circle cx="1633.25" cy="1864.48" r="26.35" style="fill:#1A476F"/>
	<circle cx="1633.25" cy="1864.48" r="22.03" style="fill:none;stroke:#1A476F;stroke-width:8.64"/>
	<circle cx="1633.25" cy="1863.24" r="26.35" style="fill:#1A476F"/>
	<circle cx="1633.25" cy="1863.24" r="22.03" style="fill:none;stroke:#1A476F;stroke-width:8.64"/>
	<circle cx="2367.46" cy="1833.17" r="26.35" style="fill:#1A476F"/>
	<circle cx="2367.46" cy="1833.17" r="22.03" style="fill:none;stroke:#1A476F;stroke-width:8.64"/>
	<circle cx="1105.46" cy="1788.24" r="26.35" style="fill:#1A476F"/>
	<circle cx="1105.46" cy="1788.24" r="22.03" style="fill:none;stroke:#1A476F;stroke-width:8.64"/>
	<circle cx="985.05" cy="1828.96" r="26.35" style="fill:#1A476F"/>
	<circle cx="985.05" cy="1828.96" r="22.03" style="fill:none;stroke:#1A476F;stroke-width:8.64"/>
	<circle cx="1466.81" cy="1828.83" r="26.35" style="fill:#1A476F"/>
	<circle cx="1466.81" cy="1828.83" r="22.03" style="fill:none;stroke:#1A476F;stroke-width:8.64"/>
	<circle cx="1988.79" cy="1910.14" r="26.35" style="fill:#1A476F"/>
	<circle cx="1988.79" cy="1910.14" r="22.03" style="fill:none;stroke:#1A476F;stroke-width:8.64"/>
	<circle cx="2872.11" cy="1852.35" r="26.35" style="fill:#1A476F"/>
	<circle cx="2872.11" cy="1852.35" r="22.03" style="fill:none;stroke:#1A476F;stroke-width:8.64"/>
	<circle cx="1891.27" cy="1877.22" r="26.35" style="fill:#1A476F"/>
	<circle cx="1891.27" cy="1877.22" r="22.03" style="fill:none;stroke:#1A476F;stroke-width:8.64"/>
	<circle cx="1254.58" cy="1934.64" r="26.35" style="fill:#1A476F"/>
	<circle cx="1254.58" cy="1934.64" r="22.03" style="fill:none;stroke:#1A476F;stroke-width:8.64"/>
	<circle cx="1214.48" cy="1832.05" r="26.35" style="fill:#1A476F"/>
	<circle cx="1214.48" cy="1832.05" r="22.03" style="fill:none;stroke:#1A476F;stroke-width:8.64"/>
	<circle cx="1971.59" cy="1835.27" r="26.35" style="fill:#1A476F"/>
	<circle cx="1971.59" cy="1835.27" r="22.03" style="fill:none;stroke:#1A476F;stroke-width:8.64"/>
	<circle cx="1237.38" cy="1906.55" r="26.35" style="fill:#1A476F"/>
	<circle cx="1237.38" cy="1906.55" r="22.03" style="fill:none;stroke:#1A476F;stroke-width:8.64"/>
	<circle cx="1501.34" cy="1896.40" r="26.35" style="fill:#1A476F"/>
	<circle cx="1501.34" cy="1896.40" r="22.03" style="fill:none;stroke:#1A476F;stroke-width:8.64"/>
	<circle cx="2774.60" cy="1886.01" r="26.35" style="fill:#1A476F"/>
	<circle cx="2774.60" cy="1886.01" r="22.03" style="fill:none;stroke:#1A476F;stroke-width:8.64"/>
	<circle cx="1478.32" cy="1856.06" r="26.35" style="fill:#1A476F"/>
	<circle cx="1478.32" cy="1856.06" r="22.03" style="fill:none;stroke:#1A476F;stroke-width:8.64"/>
	<circle cx="1283.29" cy="1890.22" r="26.35" style="fill:#1A476F"/>
	<circle cx="1283.29" cy="1890.22" r="22.03" style="fill:none;stroke:#1A476F;stroke-width:8.64"/>
	<circle cx="1587.34" cy="1648.65" r="26.35" style="fill:#1A476F"/>
	<circle cx="1587.34" cy="1648.65" r="22.03" style="fill:none;stroke:#1A476F;stroke-width:8.64"/>
	<circle cx="2046.21" cy="1939.59" r="26.35" style="fill:#1A476F"/>
	<circle cx="2046.21" cy="1939.59" r="22.03" style="fill:none;stroke:#1A476F;stroke-width:8.64"/>
	<circle cx="1650.45" cy="1939.72" r="26.35" style="fill:#1A476F"/>
	<circle cx="1650.45" cy="1939.72" r="22.03" style="fill:none;stroke:#1A476F;stroke-width:8.64"/>
	<circle cx="1667.66" cy="632.88" r="26.35" style="fill:#1A476F"/>
	<circle cx="1667.66" cy="632.88" r="22.03" style="fill:none;stroke:#1A476F;stroke-width:8.64"/>
	<circle cx="1099.77" cy="1912.37" r="26.35" style="fill:#1A476F"/>
	<circle cx="1099.77" cy="1912.37" r="22.03" style="fill:none;stroke:#1A476F;stroke-width:8.64"/>
	<circle cx="801.53" cy="1576.75" r="26.35" style="fill:#1A476F"/>
	<circle cx="801.53" cy="1576.75" r="22.03" style="fill:none;stroke:#1A476F;stroke-width:8.64"/>
	<circle cx="3113.06" cy="1843.56" r="26.35" style="fill:#1A476F"/>
	<circle cx="3113.06" cy="1843.56" r="22.03" style="fill:none;stroke:#1A476F;stroke-width:8.64"/>
	<circle cx="1386.50" cy="1929.94" r="26.35" style="fill:#1A476F"/>
	<circle cx="1386.50" cy="1929.94" r="22.03" style="fill:none;stroke:#1A476F;stroke-width:8.64"/>
	<circle cx="1386.50" cy="1941.70" r="26.35" style="fill:#1A476F"/>
	<circle cx="1386.50" cy="1941.70" r="22.03" style="fill:none;stroke:#1A476F;stroke-width:8.64"/>
	<circle cx="1598.73" cy="1845.17" r="26.35" style="fill:#1A476F"/>
	<circle cx="1598.73" cy="1845.17" r="22.03" style="fill:none;stroke:#1A476F;stroke-width:8.64"/>
	<circle cx="1575.83" cy="1938.85" r="26.35" style="fill:#1A476F"/>
	<circle cx="1575.83" cy="1938.85" r="22.03" style="fill:none;stroke:#1A476F;stroke-width:8.64"/>
	<circle cx="1897.09" cy="1877.84" r="26.35" style="fill:#1A476F"/>
	<circle cx="1897.09" cy="1877.84" r="22.03" style="fill:none;stroke:#1A476F;stroke-width:8.64"/>
	<circle cx="2103.50" cy="1962.86" r="26.35" style="fill:#1A476F"/>
	<circle cx="2103.50" cy="1962.86" r="22.03" style="fill:none;stroke:#1A476F;stroke-width:8.64"/>
	<circle cx="1466.81" cy="186.37" r="26.35" style="fill:#1A476F"/>
	<circle cx="1466.81" cy="186.37" r="22.03" style="fill:none;stroke:#1A476F;stroke-width:8.64"/>
	<circle cx="1248.89" cy="1919.67" r="26.35" style="fill:#1A476F"/>
	<circle cx="1248.89" cy="1919.67" r="22.03" style="fill:none;stroke:#1A476F;stroke-width:8.64"/>
	<circle cx="1466.81" cy="1827.97" r="26.35" style="fill:#1A476F"/>
	<circle cx="1466.81" cy="1827.97" r="22.03" style="fill:none;stroke:#1A476F;stroke-width:8.64"/>
	<circle cx="2023.19" cy="1730.82" r="26.35" style="fill:#1A476F"/>
	<circle cx="2023.19" cy="1730.82" r="22.03" style="fill:none;stroke:#1A476F;stroke-width:8.64"/>
	<circle cx="2694.41" cy="1750.75" r="26.35" style="fill:#1A476F"/>
	<circle cx="2694.41" cy="1750.75" r="22.03" style="fill:none;stroke:#1A476F;stroke-width:8.64"/>
	<circle cx="1139.86" cy="1932.54" r="26.35" style="fill:#1A476F"/>
	<circle cx="1139.86" cy="1932.54" r="22.03" style="fill:none;stroke:#1A476F;stroke-width:8.64"/>
	<circle cx="990.74" cy="1971.40" r="26.35" style="fill:#1A476F"/>
	<circle cx="990.74" cy="1971.40" r="22.03" style="fill:none;stroke:#1A476F;stroke-width:8.64"/>
	<circle cx="973.54" cy="1975.73" r="26.35" style="fill:#1A476F"/>
	<circle cx="973.54" cy="1975.73" r="22.03" style="fill:none;stroke:#1A476F;stroke-width:8.64"/>
	<circle cx="646.59" cy="1972.51" r="26.35" style="fill:#1A476F"/>
	<circle cx="646.59" cy="1972.51" r="22.03" style="fill:none;stroke:#1A476F;stroke-width:8.64"/>
	<circle cx="1059.55" cy="1956.55" r="26.35" style="fill:#1A476F"/>
	<circle cx="1059.55" cy="1956.55" r="22.03" style="fill:none;stroke:#1A476F;stroke-width:8.64"/>
	<circle cx="778.51" cy="1944.79" r="26.35" style="fill:#1A476F"/>
	<circle cx="778.51" cy="1944.79" r="22.03" style="fill:none;stroke:#1A476F;stroke-width:8.64"/>
	<circle cx="709.71" cy="1954.82" r="26.35" style="fill:#1A476F"/>
	<circle cx="709.71" cy="1954.82" r="22.03" style="fill:none;stroke:#1A476F;stroke-width:8.64"/>
	<circle cx="1082.57" cy="1951.47" r="26.35" style="fill:#1A476F"/>
	<circle cx="1082.57" cy="1951.47" r="22.03" style="fill:none;stroke:#1A476F;stroke-width:8.64"/>
	<circle cx="962.03" cy="1964.22" r="26.35" style="fill:#1A476F"/>
	<circle cx="962.03" cy="1964.22" r="22.03" style="fill:none;stroke:#1A476F;stroke-width:8.64"/>
	<circle cx="778.51" cy="1975.48" r="26.35" style="fill:#1A476F"/>
	<circle cx="778.51" cy="1975.48" r="22.03" style="fill:none;stroke:#1A476F;stroke-width:8.64"/>
	<circle cx="1076.87" cy="1944.05" r="26.35" style="fill:#1A476F"/>
	<circle cx="1076.87" cy="1944.05" r="22.03" style="fill:none;stroke:#1A476F;stroke-width:8.64"/>
	<circle cx="1088.26" cy="1965.71" r="26.35" style="fill:#1A476F"/>
	<circle cx="1088.26" cy="1965.71" r="22.03" style="fill:none;stroke:#1A476F;stroke-width:8.64"/>
	<circle cx="520.37" cy="1936.25" r="26.35" style="fill:#1A476F"/>
	<circle cx="520.37" cy="1936.25" r="22.03" style="fill:none;stroke:#1A476F;stroke-width:8.64"/>
	<circle cx="1128.48" cy="1947.27" r="26.35" style="fill:#1A476F"/>
	<circle cx="1128.48" cy="1947.27" r="22.03" style="fill:none;stroke:#1A476F;stroke-width:8.64"/>
	<circle cx="967.85" cy="1930.44" r="26.35" style="fill:#1A476F"/>
	<circle cx="967.85" cy="1930.44" r="22.03" style="fill:none;stroke:#1A476F;stroke-width:8.64"/>
	<circle cx="1036.65" cy="1968.18" r="26.35" style="fill:#1A476F"/>
	<circle cx="1036.65" cy="1968.18" r="22.03" style="fill:none;stroke:#1A476F;stroke-width:8.64"/>
	<circle cx="1094.07" cy="1961.75" r="26.35" style="fill:#1A476F"/>
	<circle cx="1094.07" cy="1961.75" r="22.03" style="fill:none;stroke:#1A476F;stroke-width:8.64"/>
	<circle cx="933.45" cy="1979.20" r="26.35" style="fill:#1A476F"/>
	<circle cx="933.45" cy="1979.20" r="22.03" style="fill:none;stroke:#1A476F;stroke-width:8.64"/>
	<circle cx="772.82" cy="1893.56" r="26.35" style="fill:#1A476F"/>
	<circle cx="772.82" cy="1893.56" r="22.03" style="fill:none;stroke:#1A476F;stroke-width:8.64"/>
	<circle cx="1191.59" cy="1911.13" r="26.35" style="fill:#1A476F"/>
	<circle cx="1191.59" cy="1911.13" r="22.03" style="fill:none;stroke:#1A476F;stroke-width:8.64"/>
	<circle cx="1145.68" cy="1988.97" r="26.35" style="fill:#1A476F"/>
	<circle cx="1145.68" cy="1988.97" r="22.03" style="fill:none;stroke:#1A476F;stroke-width:8.64"/>
	<circle cx="864.64" cy="1967.81" r="26.35" style="fill:#1A476F"/>
	<circle cx="864.64" cy="1967.81" r="22.03" style="fill:none;stroke:#1A476F;stroke-width:8.64"/>
	<circle cx="1157.06" cy="1974.62" r="26.35" style="fill:#1A476F"/>
	<circle cx="1157.06" cy="1974.62" r="22.03" style="fill:none;stroke:#1A476F;stroke-width:8.64"/>
	<circle cx="1094.07" cy="1939.35" r="26.35" style="fill:#1A476F"/>
	<circle cx="1094.07" cy="1939.35" r="22.03" style="fill:none;stroke:#1A476F;stroke-width:8.64"/>
	<circle cx="1185.77" cy="1940.83" r="26.35" style="fill:#1A476F"/>
	<circle cx="1185.77" cy="1940.83" r="22.03" style="fill:none;stroke:#1A476F;stroke-width:8.64"/>
	<circle cx="1197.28" cy="1929.82" r="26.35" style="fill:#1A476F"/>
	<circle cx="1197.28" cy="1929.82" r="22.03" style="fill:none;stroke:#1A476F;stroke-width:8.64"/>
	<circle cx="870.33" cy="1914.72" r="26.35" style="fill:#1A476F"/>
	<circle cx="870.33" cy="1914.72" r="22.03" style="fill:none;stroke:#1A476F;stroke-width:8.64"/>
	<circle cx="1243.19" cy="1965.09" r="26.35" style="fill:#1A476F"/>
	<circle cx="1243.19" cy="1965.09" r="22.03" style="fill:none;stroke:#1A476F;stroke-width:8.64"/>
	<circle cx="1048.16" cy="1948.50" r="26.35" style="fill:#1A476F"/>
	<circle cx="1048.16" cy="1948.50" r="22.03" style="fill:none;stroke:#1A476F;stroke-width:8.64"/>
	<circle cx="1139.86" cy="1961.38" r="26.35" style="fill:#1A476F"/>
	<circle cx="1139.86" cy="1961.38" r="22.03" style="fill:none;stroke:#1A476F;stroke-width:8.64"/>
	<circle cx="1180.08" cy="1952.46" r="26.35" style="fill:#1A476F"/>
	<circle cx="1180.08" cy="1952.46" r="22.03" style="fill:none;stroke:#1A476F;stroke-width:8.64"/>
	<path d=" M382.76 1909.40 L1983.09 1845.17 L3583.43 1780.94" stroke-linejoin="round" style="fill:none;stroke:#90353B;stroke-width:8.64"/>
	<path d=" M382.76 1871.03 L1983.09 1871.03 L3583.43 1871.03" stroke-linejoin="round" style="fill:none;stroke:#55752F;stroke-width:8.64"/>
	<line x1="290.81" y1="2093.67" x2="290.81" y2="100.86" style="stroke:#000000;stroke-width:5.76"/>
	<line x1="290.81" y1="2030.31" x2="250.84" y2="2030.31" style="stroke:#000000;stroke-width:5.76"/>
	<text x="200.73" y="2030.31" style="font-family:'Helvetica';font-size:99.99px;fill:#000000" transform="rotate(-90 200.73,2030.31)" text-anchor="middle">0</text>
	<line x1="290.81" y1="1408.32" x2="250.84" y2="1408.32" style="stroke:#000000;stroke-width:5.76"/>
	<text x="200.73" y="1408.32" style="font-family:'Helvetica';font-size:99.99px;fill:#000000" transform="rotate(-90 200.73,1408.32)" text-anchor="middle">5000</text>
	<line x1="290.81" y1="786.21" x2="250.84" y2="786.21" style="stroke:#000000;stroke-width:5.76"/>
	<text x="200.73" y="786.21" style="font-family:'Helvetica';font-size:99.99px;fill:#000000" transform="rotate(-90 200.73,786.21)" text-anchor="middle">10000</text>
	<line x1="290.81" y1="164.22" x2="250.84" y2="164.22" style="stroke:#000000;stroke-width:5.76"/>
	<text x="200.73" y="164.22" style="font-family:'Helvetica';font-size:99.99px;fill:#000000" transform="rotate(-90 200.73,164.22)" text-anchor="middle">15000</text>
	<line x1="290.81" y1="2093.67" x2="3859.02" y2="2093.67" style="stroke:#000000;stroke-width:5.76"/>
	<line x1="354.17" y1="2093.67" x2="354.17" y2="2133.64" style="stroke:#000000;stroke-width:5.76"/>
	<text x="354.17" y="2223.62" style="font-family:'Helvetica';font-size:99.99px;fill:#000000" text-anchor="middle">0</text>
	<line x1="1501.34" y1="2093.67" x2="1501.34" y2="2133.64" style="stroke:#000000;stroke-width:5.76"/>
	<text x="1501.34" y="2223.62" style="font-family:'Helvetica';font-size:99.99px;fill:#000000" text-anchor="middle">20</text>
	<line x1="2648.50" y1="2093.67" x2="2648.50" y2="2133.64" style="stroke:#000000;stroke-width:5.76"/>
	<text x="2648.50" y="2223.62" style="font-family:'Helvetica';font-size:99.99px;fill:#000000" text-anchor="middle">40</text>
	<line x1="3795.66" y1="2093.67" x2="3795.66" y2="2133.64" style="stroke:#000000;stroke-width:5.76"/>
	<text x="3795.66" y="2223.62" style="font-family:'Helvetica';font-size:99.99px;fill:#000000" text-anchor="middle">60</text>
	<text x="2074.92" y="2333.64" style="font-family:'Helvetica';font-size:99.99px;fill:#000000" text-anchor="middle">return on equity, 88-90 avg</text>
	<rect x="656.74" y="2418.27" width="2836.35" height="326.34" style="fill:#FFFFFF"/>
	<rect x="659.62" y="2421.15" width="2830.59" height="320.58" style="fill:none;stroke:#000000;stroke-width:5.76"/>
	<circle cx="887.16" cy="2511.46" r="26.35" style="fill:#1A476F"/>
	<circle cx="887.16" cy="2511.46" r="22.03" style="fill:none;stroke:#1A476F;stroke-width:8.64"/>
	<line x1="2432.18" y1="2511.46" x2="2806.65" y2="2511.46" style="stroke:#90353B;stroke-width:8.64"/>
	<line x1="699.93" y1="2651.43" x2="1074.40" y2="2651.43" style="stroke:#55752F;stroke-width:8.64"/>
	<text x="1134.29" y="2546.49" style="font-family:'Helvetica';font-size:99.99px;fill:#000000">1990 salary, thousands $</text>
	<text x="2866.55" y="2546.49" style="font-family:'Helvetica';font-size:99.99px;fill:#000000">Fitted values</text>
	<text x="1134.29" y="2686.46" style="font-family:'Helvetica';font-size:99.99px;fill:#000000">Fitted values</text>
</svg>
