<?xml version="1.0" encoding="UTF-8" standalone="no"?>
<!-- This is a Stata 17.0 generated SVG file (http://www.stata.com) -->

<svg version="1.1" width="5.500in" height="4.000in" viewBox="0 0 3960 2880" xmlns="http://www.w3.org/2000/svg" xmlns:xlink="http://www.w3.org/1999/xlink">
	<desc>Stata Graph - Graph</desc>
	<rect x="0" y="0" width="3960" height="2880" style="fill:#EAF2F3;stroke:none"/>
	<rect x="0.00" y="0.00" width="3959.88" height="2880.00" style="fill:#EAF2F3"/>
	<rect x="2.88" y="2.88" width="3954.12" height="2874.24" style="fill:none;stroke:#EAF2F3;stroke-width:5.76"/>
	<rect x="390.80" y="100.86" width="3468.22" height="2388.33" style="fill:#FFFFFF"/>
	<rect x="393.68" y="103.74" width="3462.46" height="2382.57" style="fill:none;stroke:#FFFFFF;stroke-width:5.76"/>
	<line x1="390.80" y1="2425.82" x2="3859.02" y2="2425.82" style="stroke:#EAF2F3;stroke-width:8.64"/>
	<line x1="390.80" y1="1671.91" x2="3859.02" y2="1671.91" style="stroke:#EAF2F3;stroke-width:8.64"/>
	<line x1="390.80" y1="918.01" x2="3859.02" y2="918.01" style="stroke:#EAF2F3;stroke-width:8.64"/>
	<line x1="390.80" y1="164.22" x2="3859.02" y2="164.22" style="stroke:#EAF2F3;stroke-width:8.64"/>
	<circle cx="1239.36" cy="2260.86" r="26.35" style="fill:#1A476F"/>
	<circle cx="1239.36" cy="2260.86" r="22.03" style="fill:none;stroke:#1A476F;stroke-width:8.64"/>
	<circle cx="1061.16" cy="2274.97" r="26.35" style="fill:#1A476F"/>
	<circle cx="1061.16" cy="2274.97" r="22.03" style="fill:none;stroke:#1A476F;stroke-width:8.64"/>
	<circle cx="1762.82" cy="2256.78" r="26.35" style="fill:#1A476F"/>
	<circle cx="1762.82" cy="2256.78" r="22.03" style="fill:none;stroke:#1A476F;stroke-width:8.64"/>
	<circle cx="782.72" cy="2338.70" r="26.35" style="fill:#1A476F"/>
	<circle cx="782.72" cy="2338.70" r="22.03" style="fill:none;stroke:#1A476F;stroke-width:8.64"/>
	<circle cx="1222.65" cy="2219.65" r="26.35" style="fill:#1A476F"/>
	<circle cx="1222.65" cy="2219.65" r="22.03" style="fill:none;stroke:#1A476F;stroke-width:8.64"/>
	<circle cx="1567.91" cy="2253.31" r="26.35" style="fill:#1A476F"/>
	<circle cx="1567.91" cy="2253.31" r="22.03" style="fill:none;stroke:#1A476F;stroke-width:8.64"/>
	<circle cx="1367.44" cy="2263.33" r="26.35" style="fill:#1A476F"/>
	<circle cx="1367.44" cy="2263.33" r="22.03" style="fill:none;stroke:#1A476F;stroke-width:8.64"/>
	<circle cx="1361.87" cy="2260.98" r="26.35" style="fill:#1A476F"/>
	<circle cx="1361.87" cy="2260.98" r="22.03" style="fill:none;stroke:#1A476F;stroke-width:8.64"/>
	<circle cx="1038.88" cy="2239.45" r="26.35" style="fill:#1A476F"/>
	<circle cx="1038.88" cy="2239.45" r="22.03" style="fill:none;stroke:#1A476F;stroke-width:8.64"/>
	<circle cx="1918.74" cy="2300.34" r="26.35" style="fill:#1A476F"/>
	<circle cx="1918.74" cy="2300.34" r="22.03" style="fill:none;stroke:#1A476F;stroke-width:8.64"/>
	<circle cx="1896.47" cy="2340.43" r="26.35" style="fill:#1A476F"/>
	<circle cx="1896.47" cy="2340.43" r="22.03" style="fill:none;stroke:#1A476F;stroke-width:8.64"/>
	<circle cx="1946.71" cy="2285.24" r="26.35" style="fill:#1A476F"/>
	<circle cx="1946.71" cy="2285.24" r="22.03" style="fill:none;stroke:#1A476F;stroke-width:8.64"/>
	<circle cx="1278.34" cy="2223.98" r="26.35" style="fill:#1A476F"/>
	<circle cx="1278.34" cy="2223.98" r="22.03" style="fill:none;stroke:#1A476F;stroke-width:8.64"/>
	<circle cx="1695.99" cy="2284.62" r="26.35" style="fill:#1A476F"/>
	<circle cx="1695.99" cy="2284.62" r="22.03" style="fill:none;stroke:#1A476F;stroke-width:8.64"/>
	<circle cx="3589.62" cy="2122.75" r="26.35" style="fill:#1A476F"/>
	<circle cx="3589.62" cy="2122.75" r="22.03" style="fill:none;stroke:#1A476F;stroke-width:8.64"/>
	<circle cx="1155.83" cy="2186.98" r="26.35" style="fill:#1A476F"/>
	<circle cx="1155.83" cy="2186.98" r="22.03" style="fill:none;stroke:#1A476F;stroke-width:8.64"/>
	<circle cx="1590.19" cy="2289.45" r="26.35" style="fill:#1A476F"/>
	<circle cx="1590.19" cy="2289.45" r="22.03" style="fill:none;stroke:#1A476F;stroke-width:8.64"/>
	<circle cx="559.85" cy="2266.43" r="26.35" style="fill:#1A476F"/>
	<circle cx="559.85" cy="2266.43" r="22.03" style="fill:none;stroke:#1A476F;stroke-width:8.64"/>
	<circle cx="1562.34" cy="2286.85" r="26.35" style="fill:#1A476F"/>
	<circle cx="1562.34" cy="2286.85" r="22.03" style="fill:none;stroke:#1A476F;stroke-width:8.64"/>
	<circle cx="1311.75" cy="2241.93" r="26.35" style="fill:#1A476F"/>
	<circle cx="1311.75" cy="2241.93" r="22.03" style="fill:none;stroke:#1A476F;stroke-width:8.64"/>
	<circle cx="2609.39" cy="2271.87" r="26.35" style="fill:#1A476F"/>
	<circle cx="2609.39" cy="2271.87" r="22.03" style="fill:none;stroke:#1A476F;stroke-width:8.64"/>
	<circle cx="1367.44" cy="2311.47" r="26.35" style="fill:#1A476F"/>
	<circle cx="1367.44" cy="2311.47" r="22.03" style="fill:none;stroke:#1A476F;stroke-width:8.64"/>
	<circle cx="1812.94" cy="2212.72" r="26.35" style="fill:#1A476F"/>
	<circle cx="1812.94" cy="2212.72" r="22.03" style="fill:none;stroke:#1A476F;stroke-width:8.64"/>
	<circle cx="1322.89" cy="2268.90" r="26.35" style="fill:#1A476F"/>
	<circle cx="1322.89" cy="2268.90" r="22.03" style="fill:none;stroke:#1A476F;stroke-width:8.64"/>
	<circle cx="1256.06" cy="2171.39" r="26.35" style="fill:#1A476F"/>
	<circle cx="1256.06" cy="2171.39" r="22.03" style="fill:none;stroke:#1A476F;stroke-width:8.64"/>
	<circle cx="1512.23" cy="1976.10" r="26.35" style="fill:#1A476F"/>
	<circle cx="1512.23" cy="1976.10" r="22.03" style="fill:none;stroke:#1A476F;stroke-width:8.64"/>
	<circle cx="1350.73" cy="2250.96" r="26.35" style="fill:#1A476F"/>
	<circle cx="1350.73" cy="2250.96" r="22.03" style="fill:none;stroke:#1A476F;stroke-width:8.64"/>
	<circle cx="1127.98" cy="1846.28" r="26.35" style="fill:#1A476F"/>
	<circle cx="1127.98" cy="1846.28" r="22.03" style="fill:none;stroke:#1A476F;stroke-width:8.64"/>
	<circle cx="1356.30" cy="2354.17" r="26.35" style="fill:#1A476F"/>
	<circle cx="1356.30" cy="2354.17" r="22.03" style="fill:none;stroke:#1A476F;stroke-width:8.64"/>
	<circle cx="1478.81" cy="2200.96" r="26.35" style="fill:#1A476F"/>
	<circle cx="1478.81" cy="2200.96" r="22.03" style="fill:none;stroke:#1A476F;stroke-width:8.64"/>
	<circle cx="1244.93" cy="2271.50" r="26.35" style="fill:#1A476F"/>
	<circle cx="1244.93" cy="2271.50" r="22.03" style="fill:none;stroke:#1A476F;stroke-width:8.64"/>
	<circle cx="1283.91" cy="2185.74" r="26.35" style="fill:#1A476F"/>
	<circle cx="1283.91" cy="2185.74" r="22.03" style="fill:none;stroke:#1A476F;stroke-width:8.64"/>
	<circle cx="1144.69" cy="2361.47" r="26.35" style="fill:#1A476F"/>
	<circle cx="1144.69" cy="2361.47" r="22.03" style="fill:none;stroke:#1A476F;stroke-width:8.64"/>
	<circle cx="1406.42" cy="2300.96" r="26.35" style="fill:#1A476F"/>
	<circle cx="1406.42" cy="2300.96" r="22.03" style="fill:none;stroke:#1A476F;stroke-width:8.64"/>
	<circle cx="1395.28" cy="2305.78" r="26.35" style="fill:#1A476F"/>
	<circle cx="1395.28" cy="2305.78" r="22.03" style="fill:none;stroke:#1A476F;stroke-width:8.64"/>
	<circle cx="1462.11" cy="2338.95" r="26.35" style="fill:#1A476F"/>
	<circle cx="1462.11" cy="2338.95" r="22.03" style="fill:none;stroke:#1A476F;stroke-width:8.64"/>
	<circle cx="1061.16" cy="2223.61" r="26.35" style="fill:#1A476F"/>
	<circle cx="1061.16" cy="2223.61" r="22.03" style="fill:none;stroke:#1A476F;stroke-width:8.64"/>
	<circle cx="1528.93" cy="2158.39" r="26.35" style="fill:#1A476F"/>
	<circle cx="1528.93" cy="2158.39" r="22.03" style="fill:none;stroke:#1A476F;stroke-width:8.64"/>
	<circle cx="1473.24" cy="2319.02" r="26.35" style="fill:#1A476F"/>
	<circle cx="1473.24" cy="2319.02" r="22.03" style="fill:none;stroke:#1A476F;stroke-width:8.64"/>
	<circle cx="1478.81" cy="2296.25" r="26.35" style="fill:#1A476F"/>
	<circle cx="1478.81" cy="2296.25" r="22.03" style="fill:none;stroke:#1A476F;stroke-width:8.64"/>
	<circle cx="1222.65" cy="2224.48" r="26.35" style="fill:#1A476F"/>
	<circle cx="1222.65" cy="2224.48" r="22.03" style="fill:none;stroke:#1A476F;stroke-width:8.64"/>
	<circle cx="1217.08" cy="2348.11" r="26.35" style="fill:#1A476F"/>
	<circle cx="1217.08" cy="2348.11" r="22.03" style="fill:none;stroke:#1A476F;stroke-width:8.64"/>
	<circle cx="1161.39" cy="2285.49" r="26.35" style="fill:#1A476F"/>
	<circle cx="1161.39" cy="2285.49" r="22.03" style="fill:none;stroke:#1A476F;stroke-width:8.64"/>
	<circle cx="1295.04" cy="2303.06" r="26.35" style="fill:#1A476F"/>
	<circle cx="1295.04" cy="2303.06" r="22.03" style="fill:none;stroke:#1A476F;stroke-width:8.64"/>
	<circle cx="1373.01" cy="2172.50" r="26.35" style="fill:#1A476F"/>
	<circle cx="1373.01" cy="2172.50" r="22.03" style="fill:none;stroke:#1A476F;stroke-width:8.64"/>
	<circle cx="1022.18" cy="2340.31" r="26.35" style="fill:#1A476F"/>
	<circle cx="1022.18" cy="2340.31" r="22.03" style="fill:none;stroke:#1A476F;stroke-width:8.64"/>
	<circle cx="1545.64" cy="2309.00" r="26.35" style="fill:#1A476F"/>
	<circle cx="1545.64" cy="2309.00" r="22.03" style="fill:none;stroke:#1A476F;stroke-width:8.64"/>
	<circle cx="1166.96" cy="2246.75" r="26.35" style="fill:#1A476F"/>
	<circle cx="1166.96" cy="2246.75" r="22.03" style="fill:none;stroke:#1A476F;stroke-width:8.64"/>
	<circle cx="1339.59" cy="2308.01" r="26.35" style="fill:#1A476F"/>
	<circle cx="1339.59" cy="2308.01" r="22.03" style="fill:none;stroke:#1A476F;stroke-width:8.64"/>
	<circle cx="1417.56" cy="2249.47" r="26.35" style="fill:#1A476F"/>
	<circle cx="1417.56" cy="2249.47" r="22.03" style="fill:none;stroke:#1A476F;stroke-width:8.64"/>
	<circle cx="927.51" cy="2204.43" r="26.35" style="fill:#1A476F"/>
	<circle cx="927.51" cy="2204.43" r="22.03" style="fill:none;stroke:#1A476F;stroke-width:8.64"/>
	<circle cx="1367.44" cy="2287.84" r="26.35" style="fill:#1A476F"/>
	<circle cx="1367.44" cy="2287.84" r="22.03" style="fill:none;stroke:#1A476F;stroke-width:8.64"/>
	<circle cx="1540.07" cy="2264.57" r="26.35" style="fill:#1A476F"/>
	<circle cx="1540.07" cy="2264.57" r="22.03" style="fill:none;stroke:#1A476F;stroke-width:8.64"/>
	<circle cx="1523.36" cy="2291.06" r="26.35" style="fill:#1A476F"/>
	<circle cx="1523.36" cy="2291.06" r="22.03" style="fill:none;stroke:#1A476F;stroke-width:8.64"/>
	<circle cx="1339.59" cy="2300.96" r="26.35" style="fill:#1A476F"/>
	<circle cx="1339.59" cy="2300.96" r="22.03" style="fill:none;stroke:#1A476F;stroke-width:8.64"/>
	<circle cx="1562.34" cy="2308.26" r="26.35" style="fill:#1A476F"/>
	<circle cx="1562.34" cy="2308.26" r="22.03" style="fill:none;stroke:#1A476F;stroke-width:8.64"/>
	<circle cx="2019.11" cy="2075.10" r="26.35" style="fill:#1A476F"/>
	<circle cx="2019.11" cy="2075.10" r="22.03" style="fill:none;stroke:#1A476F;stroke-width:8.64"/>
	<circle cx="1846.35" cy="2317.79" r="26.35" style="fill:#1A476F"/>
	<circle cx="1846.35" cy="2317.79" r="22.03" style="fill:none;stroke:#1A476F;stroke-width:8.64"/>
	<circle cx="1289.47" cy="2219.65" r="26.35" style="fill:#1A476F"/>
	<circle cx="1289.47" cy="2219.65" r="22.03" style="fill:none;stroke:#1A476F;stroke-width:8.64"/>
	<circle cx="1155.83" cy="2120.15" r="26.35" style="fill:#1A476F"/>
	<circle cx="1155.83" cy="2120.15" r="22.03" style="fill:none;stroke:#1A476F;stroke-width:8.64"/>
	<circle cx="1584.62" cy="2245.76" r="26.35" style="fill:#1A476F"/>
	<circle cx="1584.62" cy="2245.76" r="22.03" style="fill:none;stroke:#1A476F;stroke-width:8.64"/>
	<circle cx="1718.27" cy="2387.34" r="26.35" style="fill:#1A476F"/>
	<circle cx="1718.27" cy="2387.34" r="22.03" style="fill:none;stroke:#1A476F;stroke-width:8.64"/>
	<circle cx="1278.34" cy="2309.00" r="26.35" style="fill:#1A476F"/>
	<circle cx="1278.34" cy="2309.00" r="22.03" style="fill:none;stroke:#1A476F;stroke-width:8.64"/>
	<circle cx="1189.24" cy="2213.71" r="26.35" style="fill:#1A476F"/>
	<circle cx="1189.24" cy="2213.71" r="22.03" style="fill:none;stroke:#1A476F;stroke-width:8.64"/>
	<circle cx="1027.74" cy="2344.02" r="26.35" style="fill:#1A476F"/>
	<circle cx="1027.74" cy="2344.02" r="22.03" style="fill:none;stroke:#1A476F;stroke-width:8.64"/>
	<circle cx="1439.83" cy="2294.15" r="26.35" style="fill:#1A476F"/>
	<circle cx="1439.83" cy="2294.15" r="22.03" style="fill:none;stroke:#1A476F;stroke-width:8.64"/>
	<circle cx="1011.04" cy="2231.90" r="26.35" style="fill:#1A476F"/>
	<circle cx="1011.04" cy="2231.90" r="22.03" style="fill:none;stroke:#1A476F;stroke-width:8.64"/>
	<circle cx="1322.89" cy="2237.72" r="26.35" style="fill:#1A476F"/>
	<circle cx="1322.89" cy="2237.72" r="22.03" style="fill:none;stroke:#1A476F;stroke-width:8.64"/>
	<circle cx="832.84" cy="2294.03" r="26.35" style="fill:#1A476F"/>
	<circle cx="832.84" cy="2294.03" r="22.03" style="fill:none;stroke:#1A476F;stroke-width:8.64"/>
	<circle cx="1144.69" cy="2286.48" r="26.35" style="fill:#1A476F"/>
	<circle cx="1144.69" cy="2286.48" r="22.03" style="fill:none;stroke:#1A476F;stroke-width:8.64"/>
	<circle cx="1183.67" cy="2305.53" r="26.35" style="fill:#1A476F"/>
	<circle cx="1183.67" cy="2305.53" r="22.03" style="fill:none;stroke:#1A476F;stroke-width:8.64"/>
	<circle cx="1334.03" cy="2311.35" r="26.35" style="fill:#1A476F"/>
	<circle cx="1334.03" cy="2311.35" r="22.03" style="fill:none;stroke:#1A476F;stroke-width:8.64"/>
	<circle cx="1166.96" cy="2335.48" r="26.35" style="fill:#1A476F"/>
	<circle cx="1166.96" cy="2335.48" r="22.03" style="fill:none;stroke:#1A476F;stroke-width:8.64"/>
	<circle cx="1306.18" cy="2276.45" r="26.35" style="fill:#1A476F"/>
	<circle cx="1306.18" cy="2276.45" r="22.03" style="fill:none;stroke:#1A476F;stroke-width:8.64"/>
	<circle cx="481.88" cy="2189.21" r="26.35" style="fill:#1A476F"/>
	<circle cx="481.88" cy="2189.21" r="22.03" style="fill:none;stroke:#1A476F;stroke-width:8.64"/>
	<circle cx="1373.01" cy="2288.58" r="26.35" style="fill:#1A476F"/>
	<circle cx="1373.01" cy="2288.58" r="22.03" style="fill:none;stroke:#1A476F;stroke-width:8.64"/>
	<circle cx="1295.04" cy="2220.89" r="26.35" style="fill:#1A476F"/>
	<circle cx="1295.04" cy="2220.89" r="22.03" style="fill:none;stroke:#1A476F;stroke-width:8.64"/>
	<circle cx="1178.10" cy="2320.39" r="26.35" style="fill:#1A476F"/>
	<circle cx="1178.10" cy="2320.39" r="22.03" style="fill:none;stroke:#1A476F;stroke-width:8.64"/>
	<circle cx="1072.29" cy="2314.20" r="26.35" style="fill:#1A476F"/>
	<circle cx="1072.29" cy="2314.20" r="22.03" style="fill:none;stroke:#1A476F;stroke-width:8.64"/>
	<circle cx="949.78" cy="2260.49" r="26.35" style="fill:#1A476F"/>
	<circle cx="949.78" cy="2260.49" r="22.03" style="fill:none;stroke:#1A476F;stroke-width:8.64"/>
	<circle cx="1428.69" cy="2282.27" r="26.35" style="fill:#1A476F"/>
	<circle cx="1428.69" cy="2282.27" r="22.03" style="fill:none;stroke:#1A476F;stroke-width:8.64"/>
	<circle cx="1339.59" cy="2359.37" r="26.35" style="fill:#1A476F"/>
	<circle cx="1339.59" cy="2359.37" r="22.03" style="fill:none;stroke:#1A476F;stroke-width:8.64"/>
	<circle cx="1244.93" cy="2336.23" r="26.35" style="fill:#1A476F"/>
	<circle cx="1244.93" cy="2336.23" r="22.03" style="fill:none;stroke:#1A476F;stroke-width:8.64"/>
	<circle cx="972.06" cy="2265.07" r="26.35" style="fill:#1A476F"/>
	<circle cx="972.06" cy="2265.07" r="22.03" style="fill:none;stroke:#1A476F;stroke-width:8.64"/>
	<circle cx="983.19" cy="2230.17" r="26.35" style="fill:#1A476F"/>
	<circle cx="983.19" cy="2230.17" r="22.03" style="fill:none;stroke:#1A476F;stroke-width:8.64"/>
	<circle cx="1317.32" cy="2154.80" r="26.35" style="fill:#1A476F"/>
	<circle cx="1317.32" cy="2154.80" r="22.03" style="fill:none;stroke:#1A476F;stroke-width:8.64"/>
	<circle cx="1256.06" cy="1801.24" r="26.35" style="fill:#1A476F"/>
	<circle cx="1256.06" cy="1801.24" r="22.03" style="fill:none;stroke:#1A476F;stroke-width:8.64"/>
	<circle cx="1072.29" cy="2224.48" r="26.35" style="fill:#1A476F"/>
	<circle cx="1072.29" cy="2224.48" r="22.03" style="fill:none;stroke:#1A476F;stroke-width:8.64"/>
	<circle cx="1339.59" cy="2162.10" r="26.35" style="fill:#1A476F"/>
	<circle cx="1339.59" cy="2162.10" r="22.03" style="fill:none;stroke:#1A476F;stroke-width:8.64"/>
	<circle cx="1367.44" cy="2288.46" r="26.35" style="fill:#1A476F"/>
	<circle cx="1367.44" cy="2288.46" r="22.03" style="fill:none;stroke:#1A476F;stroke-width:8.64"/>
	<circle cx="933.08" cy="2140.69" r="26.35" style="fill:#1A476F"/>
	<circle cx="933.08" cy="2140.69" r="22.03" style="fill:none;stroke:#1A476F;stroke-width:8.64"/>
	<circle cx="1824.08" cy="2300.34" r="26.35" style="fill:#1A476F"/>
	<circle cx="1824.08" cy="2300.34" r="22.03" style="fill:none;stroke:#1A476F;stroke-width:8.64"/>
	<circle cx="1311.75" cy="2253.68" r="26.35" style="fill:#1A476F"/>
	<circle cx="1311.75" cy="2253.68" r="22.03" style="fill:none;stroke:#1A476F;stroke-width:8.64"/>
	<circle cx="1395.28" cy="2251.21" r="26.35" style="fill:#1A476F"/>
	<circle cx="1395.28" cy="2251.21" r="22.03" style="fill:none;stroke:#1A476F;stroke-width:8.64"/>
	<circle cx="855.11" cy="2232.52" r="26.35" style="fill:#1A476F"/>
	<circle cx="855.11" cy="2232.52" r="22.03" style="fill:none;stroke:#1A476F;stroke-width:8.64"/>
	<circle cx="1100.14" cy="2107.90" r="26.35" style="fill:#1A476F"/>
	<circle cx="1100.14" cy="2107.90" r="22.03" style="fill:none;stroke:#1A476F;stroke-width:8.64"/>
	<circle cx="1924.31" cy="2269.27" r="26.35" style="fill:#1A476F"/>
	<circle cx="1924.31" cy="2269.27" r="22.03" style="fill:none;stroke:#1A476F;stroke-width:8.64"/>
	<circle cx="1645.88" cy="2276.33" r="26.35" style="fill:#1A476F"/>
	<circle cx="1645.88" cy="2276.33" r="22.03" style="fill:none;stroke:#1A476F;stroke-width:8.64"/>
	<circle cx="1523.36" cy="2236.97" r="26.35" style="fill:#1A476F"/>
	<circle cx="1523.36" cy="2236.97" r="22.03" style="fill:none;stroke:#1A476F;stroke-width:8.64"/>
	<circle cx="1295.04" cy="2317.17" r="26.35" style="fill:#1A476F"/>
	<circle cx="1295.04" cy="2317.17" r="22.03" style="fill:none;stroke:#1A476F;stroke-width:8.64"/>
	<circle cx="955.35" cy="2222.25" r="26.35" style="fill:#1A476F"/>
	<circle cx="955.35" cy="2222.25" r="22.03" style="fill:none;stroke:#1A476F;stroke-width:8.64"/>
	<circle cx="977.63" cy="2216.18" r="26.35" style="fill:#1A476F"/>
	<circle cx="977.63" cy="2216.18" r="22.03" style="fill:none;stroke:#1A476F;stroke-width:8.64"/>
	<circle cx="1512.23" cy="2238.21" r="26.35" style="fill:#1A476F"/>
	<circle cx="1512.23" cy="2238.21" r="22.03" style="fill:none;stroke:#1A476F;stroke-width:8.64"/>
	<circle cx="648.95" cy="2192.18" r="26.35" style="fill:#1A476F"/>
	<circle cx="648.95" cy="2192.18" r="22.03" style="fill:none;stroke:#1A476F;stroke-width:8.64"/>
	<circle cx="1684.86" cy="2101.71" r="26.35" style="fill:#1A476F"/>
	<circle cx="1684.86" cy="2101.71" r="22.03" style="fill:none;stroke:#1A476F;stroke-width:8.64"/>
	<circle cx="1061.16" cy="2147.62" r="26.35" style="fill:#1A476F"/>
	<circle cx="1061.16" cy="2147.62" r="22.03" style="fill:none;stroke:#1A476F;stroke-width:8.64"/>
	<circle cx="1295.04" cy="2339.57" r="26.35" style="fill:#1A476F"/>
	<circle cx="1295.04" cy="2339.57" r="22.03" style="fill:none;stroke:#1A476F;stroke-width:8.64"/>
	<circle cx="1022.18" cy="1424.78" r="26.35" style="fill:#1A476F"/>
	<circle cx="1022.18" cy="1424.78" r="22.03" style="fill:none;stroke:#1A476F;stroke-width:8.64"/>
	<circle cx="1417.56" cy="2281.28" r="26.35" style="fill:#1A476F"/>
	<circle cx="1417.56" cy="2281.28" r="22.03" style="fill:none;stroke:#1A476F;stroke-width:8.64"/>
	<circle cx="2308.68" cy="2333.63" r="26.35" style="fill:#1A476F"/>
	<circle cx="2308.68" cy="2333.63" r="22.03" style="fill:none;stroke:#1A476F;stroke-width:8.64"/>
	<circle cx="1723.84" cy="2151.46" r="26.35" style="fill:#1A476F"/>
	<circle cx="1723.84" cy="2151.46" r="22.03" style="fill:none;stroke:#1A476F;stroke-width:8.64"/>
	<circle cx="1072.29" cy="2213.21" r="26.35" style="fill:#1A476F"/>
	<circle cx="1072.29" cy="2213.21" r="22.03" style="fill:none;stroke:#1A476F;stroke-width:8.64"/>
	<circle cx="1144.69" cy="2271.25" r="26.35" style="fill:#1A476F"/>
	<circle cx="1144.69" cy="2271.25" r="22.03" style="fill:none;stroke:#1A476F;stroke-width:8.64"/>
	<circle cx="1618.03" cy="2231.90" r="26.35" style="fill:#1A476F"/>
	<circle cx="1618.03" cy="2231.90" r="22.03" style="fill:none;stroke:#1A476F;stroke-width:8.64"/>
	<circle cx="827.27" cy="2305.29" r="26.35" style="fill:#1A476F"/>
	<circle cx="827.27" cy="2305.29" r="22.03" style="fill:none;stroke:#1A476F;stroke-width:8.64"/>
	<circle cx="849.54" cy="2257.77" r="26.35" style="fill:#1A476F"/>
	<circle cx="849.54" cy="2257.77" r="22.03" style="fill:none;stroke:#1A476F;stroke-width:8.64"/>
	<circle cx="1111.28" cy="2180.05" r="26.35" style="fill:#1A476F"/>
	<circle cx="1111.28" cy="2180.05" r="22.03" style="fill:none;stroke:#1A476F;stroke-width:8.64"/>
	<circle cx="1233.79" cy="2137.97" r="26.35" style="fill:#1A476F"/>
	<circle cx="1233.79" cy="2137.97" r="22.03" style="fill:none;stroke:#1A476F;stroke-width:8.64"/>
	<circle cx="1016.61" cy="2275.71" r="26.35" style="fill:#1A476F"/>
	<circle cx="1016.61" cy="2275.71" r="22.03" style="fill:none;stroke:#1A476F;stroke-width:8.64"/>
	<circle cx="810.56" cy="2287.47" r="26.35" style="fill:#1A476F"/>
	<circle cx="810.56" cy="2287.47" r="22.03" style="fill:none;stroke:#1A476F;stroke-width:8.64"/>
	<circle cx="1144.69" cy="2235.74" r="26.35" style="fill:#1A476F"/>
	<circle cx="1144.69" cy="2235.74" r="22.03" style="fill:none;stroke:#1A476F;stroke-width:8.64"/>
	<circle cx="1434.26" cy="2267.17" r="26.35" style="fill:#1A476F"/>
	<circle cx="1434.26" cy="2267.17" r="22.03" style="fill:none;stroke:#1A476F;stroke-width:8.64"/>
	<circle cx="1295.04" cy="2241.80" r="26.35" style="fill:#1A476F"/>
	<circle cx="1295.04" cy="2241.80" r="22.03" style="fill:none;stroke:#1A476F;stroke-width:8.64"/>
	<circle cx="1768.39" cy="2163.84" r="26.35" style="fill:#1A476F"/>
	<circle cx="1768.39" cy="2163.84" r="22.03" style="fill:none;stroke:#1A476F;stroke-width:8.64"/>
	<circle cx="2442.33" cy="1952.22" r="26.35" style="fill:#1A476F"/>
	<circle cx="2442.33" cy="1952.22" r="22.03" style="fill:none;stroke:#1A476F;stroke-width:8.64"/>
	<circle cx="1746.11" cy="2139.46" r="26.35" style="fill:#1A476F"/>
	<circle cx="1746.11" cy="2139.46" r="22.03" style="fill:none;stroke:#1A476F;stroke-width:8.64"/>
	<circle cx="1144.69" cy="2361.47" r="26.35" style="fill:#1A476F"/>
	<circle cx="1144.69" cy="2361.47" r="22.03" style="fill:none;stroke:#1A476F;stroke-width:8.64"/>
	<circle cx="2926.81" cy="2169.53" r="26.35" style="fill:#1A476F"/>
	<circle cx="2926.81" cy="2169.53" r="22.03" style="fill:none;stroke:#1A476F;stroke-width:8.64"/>
	<circle cx="570.98" cy="2371.62" r="26.35" style="fill:#1A476F"/>
	<circle cx="570.98" cy="2371.62" r="22.03" style="fill:none;stroke:#1A476F;stroke-width:8.64"/>
	<circle cx="1478.81" cy="2356.64" r="26.35" style="fill:#1A476F"/>
	<circle cx="1478.81" cy="2356.64" r="22.03" style="fill:none;stroke:#1A476F;stroke-width:8.64"/>
	<circle cx="1350.73" cy="2223.86" r="26.35" style="fill:#1A476F"/>
	<circle cx="1350.73" cy="2223.86" r="22.03" style="fill:none;stroke:#1A476F;stroke-width:8.64"/>
	<circle cx="1295.04" cy="2315.93" r="26.35" style="fill:#1A476F"/>
	<circle cx="1295.04" cy="2315.93" r="22.03" style="fill:none;stroke:#1A476F;stroke-width:8.64"/>
	<circle cx="1718.27" cy="2392.29" r="26.35" style="fill:#1A476F"/>
	<circle cx="1718.27" cy="2392.29" r="22.03" style="fill:none;stroke:#1A476F;stroke-width:8.64"/>
	<circle cx="1757.25" cy="2109.14" r="26.35" style="fill:#1A476F"/>
	<circle cx="1757.25" cy="2109.14" r="22.03" style="fill:none;stroke:#1A476F;stroke-width:8.64"/>
	<circle cx="1885.33" cy="2262.72" r="26.35" style="fill:#1A476F"/>
	<circle cx="1885.33" cy="2262.72" r="22.03" style="fill:none;stroke:#1A476F;stroke-width:8.64"/>
	<circle cx="1957.85" cy="2157.40" r="26.35" style="fill:#1A476F"/>
	<circle cx="1957.85" cy="2157.40" r="22.03" style="fill:none;stroke:#1A476F;stroke-width:8.64"/>
	<circle cx="1562.34" cy="2306.65" r="26.35" style="fill:#1A476F"/>
	<circle cx="1562.34" cy="2306.65" r="22.03" style="fill:none;stroke:#1A476F;stroke-width:8.64"/>
	<circle cx="2887.83" cy="2110.50" r="26.35" style="fill:#1A476F"/>
	<circle cx="2887.83" cy="2110.50" r="22.03" style="fill:none;stroke:#1A476F;stroke-width:8.64"/>
	<circle cx="1367.44" cy="2188.71" r="26.35" style="fill:#1A476F"/>
	<circle cx="1367.44" cy="2188.71" r="22.03" style="fill:none;stroke:#1A476F;stroke-width:8.64"/>
	<circle cx="1100.14" cy="2268.28" r="26.35" style="fill:#1A476F"/>
	<circle cx="1100.14" cy="2268.28" r="22.03" style="fill:none;stroke:#1A476F;stroke-width:8.64"/>
	<circle cx="1835.21" cy="2170.52" r="26.35" style="fill:#1A476F"/>
	<circle cx="1835.21" cy="2170.52" r="22.03" style="fill:none;stroke:#1A476F;stroke-width:8.64"/>
	<circle cx="1913.18" cy="2357.63" r="26.35" style="fill:#1A476F"/>
	<circle cx="1913.18" cy="2357.63" r="22.03" style="fill:none;stroke:#1A476F;stroke-width:8.64"/>
	<circle cx="2932.38" cy="2255.54" r="26.35" style="fill:#1A476F"/>
	<circle cx="2932.38" cy="2255.54" r="22.03" style="fill:none;stroke:#1A476F;stroke-width:8.64"/>
	<circle cx="1695.99" cy="2224.72" r="26.35" style="fill:#1A476F"/>
	<circle cx="1695.99" cy="2224.72" r="22.03" style="fill:none;stroke:#1A476F;stroke-width:8.64"/>
	<circle cx="1695.99" cy="2223.24" r="26.35" style="fill:#1A476F"/>
	<circle cx="1695.99" cy="2223.24" r="22.03" style="fill:none;stroke:#1A476F;stroke-width:8.64"/>
	<circle cx="2408.92" cy="2186.98" r="26.35" style="fill:#1A476F"/>
	<circle cx="2408.92" cy="2186.98" r="22.03" style="fill:none;stroke:#1A476F;stroke-width:8.64"/>
	<circle cx="1183.67" cy="2132.53" r="26.35" style="fill:#1A476F"/>
	<circle cx="1183.67" cy="2132.53" r="22.03" style="fill:none;stroke:#1A476F;stroke-width:8.64"/>
	<circle cx="1066.72" cy="2181.78" r="26.35" style="fill:#1A476F"/>
	<circle cx="1066.72" cy="2181.78" r="22.03" style="fill:none;stroke:#1A476F;stroke-width:8.64"/>
	<circle cx="1534.50" cy="2181.66" r="26.35" style="fill:#1A476F"/>
	<circle cx="1534.50" cy="2181.66" r="22.03" style="fill:none;stroke:#1A476F;stroke-width:8.64"/>
	<circle cx="2041.38" cy="2280.17" r="26.35" style="fill:#1A476F"/>
	<circle cx="2041.38" cy="2280.17" r="22.03" style="fill:none;stroke:#1A476F;stroke-width:8.64"/>
	<circle cx="2898.97" cy="2210.12" r="26.35" style="fill:#1A476F"/>
	<circle cx="2898.97" cy="2210.12" r="22.03" style="fill:none;stroke:#1A476F;stroke-width:8.64"/>
	<circle cx="1946.71" cy="2240.32" r="26.35" style="fill:#1A476F"/>
	<circle cx="1946.71" cy="2240.32" r="22.03" style="fill:none;stroke:#1A476F;stroke-width:8.64"/>
	<circle cx="1328.46" cy="2309.87" r="26.35" style="fill:#1A476F"/>
	<circle cx="1328.46" cy="2309.87" r="22.03" style="fill:none;stroke:#1A476F;stroke-width:8.64"/>
	<circle cx="1289.47" cy="2185.62" r="26.35" style="fill:#1A476F"/>
	<circle cx="1289.47" cy="2185.62" r="22.03" style="fill:none;stroke:#1A476F;stroke-width:8.64"/>
	<circle cx="2024.67" cy="2189.45" r="26.35" style="fill:#1A476F"/>
	<circle cx="2024.67" cy="2189.45" r="22.03" style="fill:none;stroke:#1A476F;stroke-width:8.64"/>
	<circle cx="1311.75" cy="2275.83" r="26.35" style="fill:#1A476F"/>
	<circle cx="1311.75" cy="2275.83" r="22.03" style="fill:none;stroke:#1A476F;stroke-width:8.64"/>
	<circle cx="1567.91" cy="2263.46" r="26.35" style="fill:#1A476F"/>
	<circle cx="1567.91" cy="2263.46" r="22.03" style="fill:none;stroke:#1A476F;stroke-width:8.64"/>
	<circle cx="2804.30" cy="2250.84" r="26.35" style="fill:#1A476F"/>
	<circle cx="2804.30" cy="2250.84" r="22.03" style="fill:none;stroke:#1A476F;stroke-width:8.64"/>
	<circle cx="1545.64" cy="2214.70" r="26.35" style="fill:#1A476F"/>
	<circle cx="1545.64" cy="2214.70" r="22.03" style="fill:none;stroke:#1A476F;stroke-width:8.64"/>
	<circle cx="1356.30" cy="2256.03" r="26.35" style="fill:#1A476F"/>
	<circle cx="1356.30" cy="2256.03" r="22.03" style="fill:none;stroke:#1A476F;stroke-width:8.64"/>
	<circle cx="1651.44" cy="1963.36" r="26.35" style="fill:#1A476F"/>
	<circle cx="1651.44" cy="1963.36" r="22.03" style="fill:none;stroke:#1A476F;stroke-width:8.64"/>
	<circle cx="2097.07" cy="2315.81" r="26.35" style="fill:#1A476F"/>
	<circle cx="2097.07" cy="2315.81" r="22.03" style="fill:none;stroke:#1A476F;stroke-width:8.64"/>
	<circle cx="1712.70" cy="2315.93" r="26.35" style="fill:#1A476F"/>
	<circle cx="1712.70" cy="2315.93" r="22.03" style="fill:none;stroke:#1A476F;stroke-width:8.64"/>
	<circle cx="1729.41" cy="732.25" r="26.35" style="fill:#1A476F"/>
	<circle cx="1729.41" cy="732.25" r="22.03" style="fill:none;stroke:#1A476F;stroke-width:8.64"/>
	<circle cx="1178.10" cy="2282.76" r="26.35" style="fill:#1A476F"/>
	<circle cx="1178.10" cy="2282.76" r="22.03" style="fill:none;stroke:#1A476F;stroke-width:8.64"/>
	<circle cx="888.53" cy="1876.11" r="26.35" style="fill:#1A476F"/>
	<circle cx="888.53" cy="1876.11" r="22.03" style="fill:none;stroke:#1A476F;stroke-width:8.64"/>
	<circle cx="3132.86" cy="2199.48" r="26.35" style="fill:#1A476F"/>
	<circle cx="3132.86" cy="2199.48" r="22.03" style="fill:none;stroke:#1A476F;stroke-width:8.64"/>
	<circle cx="1456.54" cy="2304.17" r="26.35" style="fill:#1A476F"/>
	<circle cx="1456.54" cy="2304.17" r="22.03" style="fill:none;stroke:#1A476F;stroke-width:8.64"/>
	<circle cx="1456.54" cy="2318.40" r="26.35" style="fill:#1A476F"/>
	<circle cx="1456.54" cy="2318.40" r="22.03" style="fill:none;stroke:#1A476F;stroke-width:8.64"/>
	<circle cx="1662.58" cy="2201.46" r="26.35" style="fill:#1A476F"/>
	<circle cx="1662.58" cy="2201.46" r="22.03" style="fill:none;stroke:#1A476F;stroke-width:8.64"/>
	<circle cx="1640.31" cy="2314.94" r="26.35" style="fill:#1A476F"/>
	<circle cx="1640.31" cy="2314.94" r="22.03" style="fill:none;stroke:#1A476F;stroke-width:8.64"/>
	<circle cx="1952.28" cy="2241.06" r="26.35" style="fill:#1A476F"/>
	<circle cx="1952.28" cy="2241.06" r="22.03" style="fill:none;stroke:#1A476F;stroke-width:8.64"/>
	<circle cx="2152.76" cy="2344.02" r="26.35" style="fill:#1A476F"/>
	<circle cx="2152.76" cy="2344.02" r="22.03" style="fill:none;stroke:#1A476F;stroke-width:8.64"/>
	<circle cx="1534.50" cy="191.08" r="26.35" style="fill:#1A476F"/>
	<circle cx="1534.50" cy="191.08" r="22.03" style="fill:none;stroke:#1A476F;stroke-width:8.64"/>
	<circle cx="1322.89" cy="2291.67" r="26.35" style="fill:#1A476F"/>
	<circle cx="1322.89" cy="2291.67" r="22.03" style="fill:none;stroke:#1A476F;stroke-width:8.64"/>
	<circle cx="1534.50" cy="2180.54" r="26.35" style="fill:#1A476F"/>
	<circle cx="1534.50" cy="2180.54" r="22.03" style="fill:none;stroke:#1A476F;stroke-width:8.64"/>
	<circle cx="2074.79" cy="2062.85" r="26.35" style="fill:#1A476F"/>
	<circle cx="2074.79" cy="2062.85" r="22.03" style="fill:none;stroke:#1A476F;stroke-width:8.64"/>
	<circle cx="2726.34" cy="2086.99" r="26.35" style="fill:#1A476F"/>
	<circle cx="2726.34" cy="2086.99" r="22.03" style="fill:none;stroke:#1A476F;stroke-width:8.64"/>
	<circle cx="1217.08" cy="2307.27" r="26.35" style="fill:#1A476F"/>
	<circle cx="1217.08" cy="2307.27" r="22.03" style="fill:none;stroke:#1A476F;stroke-width:8.64"/>
	<circle cx="1072.29" cy="2354.42" r="26.35" style="fill:#1A476F"/>
	<circle cx="1072.29" cy="2354.42" r="22.03" style="fill:none;stroke:#1A476F;stroke-width:8.64"/>
	<circle cx="1055.59" cy="2359.74" r="26.35" style="fill:#1A476F"/>
	<circle cx="1055.59" cy="2359.74" r="22.03" style="fill:none;stroke:#1A476F;stroke-width:8.64"/>
	<circle cx="738.17" cy="2355.78" r="26.35" style="fill:#1A476F"/>
	<circle cx="738.17" cy="2355.78" r="22.03" style="fill:none;stroke:#1A476F;stroke-width:8.64"/>
	<circle cx="1139.12" cy="2336.35" r="26.35" style="fill:#1A476F"/>
	<circle cx="1139.12" cy="2336.35" r="22.03" style="fill:none;stroke:#1A476F;stroke-width:8.64"/>
	<circle cx="866.25" cy="2322.12" r="26.35" style="fill:#1A476F"/>
	<circle cx="866.25" cy="2322.12" r="22.03" style="fill:none;stroke:#1A476F;stroke-width:8.64"/>
	<circle cx="799.43" cy="2334.37" r="26.35" style="fill:#1A476F"/>
	<circle cx="799.43" cy="2334.37" r="22.03" style="fill:none;stroke:#1A476F;stroke-width:8.64"/>
	<circle cx="1161.39" cy="2330.29" r="26.35" style="fill:#1A476F"/>
	<circle cx="1161.39" cy="2330.29" r="22.03" style="fill:none;stroke:#1A476F;stroke-width:8.64"/>
	<circle cx="1044.45" cy="2345.75" r="26.35" style="fill:#1A476F"/>
	<circle cx="1044.45" cy="2345.75" r="22.03" style="fill:none;stroke:#1A476F;stroke-width:8.64"/>
	<circle cx="866.25" cy="2359.37" r="26.35" style="fill:#1A476F"/>
	<circle cx="866.25" cy="2359.37" r="22.03" style="fill:none;stroke:#1A476F;stroke-width:8.64"/>
	<circle cx="1155.83" cy="2321.25" r="26.35" style="fill:#1A476F"/>
	<circle cx="1155.83" cy="2321.25" r="22.03" style="fill:none;stroke:#1A476F;stroke-width:8.64"/>
	<circle cx="1166.96" cy="2347.49" r="26.35" style="fill:#1A476F"/>
	<circle cx="1166.96" cy="2347.49" r="22.03" style="fill:none;stroke:#1A476F;stroke-width:8.64"/>
	<circle cx="615.53" cy="2311.72" r="26.35" style="fill:#1A476F"/>
	<circle cx="615.53" cy="2311.72" r="22.03" style="fill:none;stroke:#1A476F;stroke-width:8.64"/>
	<circle cx="1205.94" cy="2325.21" r="26.35" style="fill:#1A476F"/>
	<circle cx="1205.94" cy="2325.21" r="22.03" style="fill:none;stroke:#1A476F;stroke-width:8.64"/>
	<circle cx="1050.02" cy="2304.79" r="26.35" style="fill:#1A476F"/>
	<circle cx="1050.02" cy="2304.79" r="22.03" style="fill:none;stroke:#1A476F;stroke-width:8.64"/>
	<circle cx="1116.84" cy="2350.58" r="26.35" style="fill:#1A476F"/>
	<circle cx="1116.84" cy="2350.58" r="22.03" style="fill:none;stroke:#1A476F;stroke-width:8.64"/>
	<circle cx="1172.53" cy="2342.66" r="26.35" style="fill:#1A476F"/>
	<circle cx="1172.53" cy="2342.66" r="22.03" style="fill:none;stroke:#1A476F;stroke-width:8.64"/>
	<circle cx="1016.61" cy="2363.82" r="26.35" style="fill:#1A476F"/>
	<circle cx="1016.61" cy="2363.82" r="22.03" style="fill:none;stroke:#1A476F;stroke-width:8.64"/>
	<circle cx="860.68" cy="2259.99" r="26.35" style="fill:#1A476F"/>
	<circle cx="860.68" cy="2259.99" r="22.03" style="fill:none;stroke:#1A476F;stroke-width:8.64"/>
	<circle cx="1267.20" cy="2281.28" r="26.35" style="fill:#1A476F"/>
	<circle cx="1267.20" cy="2281.28" r="22.03" style="fill:none;stroke:#1A476F;stroke-width:8.64"/>
	<circle cx="1222.65" cy="2375.70" r="26.35" style="fill:#1A476F"/>
	<circle cx="1222.65" cy="2375.70" r="22.03" style="fill:none;stroke:#1A476F;stroke-width:8.64"/>
	<circle cx="949.78" cy="2350.09" r="26.35" style="fill:#1A476F"/>
	<circle cx="949.78" cy="2350.09" r="22.03" style="fill:none;stroke:#1A476F;stroke-width:8.64"/>
	<circle cx="1233.79" cy="2358.38" r="26.35" style="fill:#1A476F"/>
	<circle cx="1233.79" cy="2358.38" r="22.03" style="fill:none;stroke:#1A476F;stroke-width:8.64"/>
	<circle cx="1172.53" cy="2315.56" r="26.35" style="fill:#1A476F"/>
	<circle cx="1172.53" cy="2315.56" r="22.03" style="fill:none;stroke:#1A476F;stroke-width:8.64"/>
	<circle cx="1261.63" cy="2317.29" r="26.35" style="fill:#1A476F"/>
	<circle cx="1261.63" cy="2317.29" r="22.03" style="fill:none;stroke:#1A476F;stroke-width:8.64"/>
	<circle cx="1272.77" cy="2304.05" r="26.35" style="fill:#1A476F"/>
	<circle cx="1272.77" cy="2304.05" r="22.03" style="fill:none;stroke:#1A476F;stroke-width:8.64"/>
	<circle cx="955.35" cy="2285.73" r="26.35" style="fill:#1A476F"/>
	<circle cx="955.35" cy="2285.73" r="22.03" style="fill:none;stroke:#1A476F;stroke-width:8.64"/>
	<circle cx="1317.32" cy="2346.74" r="26.35" style="fill:#1A476F"/>
	<circle cx="1317.32" cy="2346.74" r="22.03" style="fill:none;stroke:#1A476F;stroke-width:8.64"/>
	<circle cx="1127.98" cy="2326.70" r="26.35" style="fill:#1A476F"/>
	<circle cx="1127.98" cy="2326.70" r="22.03" style="fill:none;stroke:#1A476F;stroke-width:8.64"/>
	<circle cx="1217.08" cy="2342.17" r="26.35" style="fill:#1A476F"/>
	<circle cx="1217.08" cy="2342.17" r="22.03" style="fill:none;stroke:#1A476F;stroke-width:8.64"/>
	<circle cx="1256.06" cy="2331.52" r="26.35" style="fill:#1A476F"/>
	<circle cx="1256.06" cy="2331.52" r="22.03" style="fill:none;stroke:#1A476F;stroke-width:8.64"/>
	<line x1="390.80" y1="2489.19" x2="390.80" y2="100.86" style="stroke:#000000;stroke-width:5.76"/>
	<line x1="390.80" y1="2425.82" x2="350.83" y2="2425.82" style="stroke:#000000;stroke-width:5.76"/>
	<text x="300.72" y="2425.82" style="font-family:'Helvetica';font-size:99.99px;fill:#000000" transform="rotate(-90 300.72,2425.82)" text-anchor="middle">0</text>
	<line x1="390.80" y1="1671.91" x2="350.83" y2="1671.91" style="stroke:#000000;stroke-width:5.76"/>
	<text x="300.72" y="1671.91" style="font-family:'Helvetica';font-size:99.99px;fill:#000000" transform="rotate(-90 300.72,1671.91)" text-anchor="middle">5000</text>
	<line x1="390.80" y1="918.01" x2="350.83" y2="918.01" style="stroke:#000000;stroke-width:5.76"/>
	<text x="300.72" y="918.01" style="font-family:'Helvetica';font-size:99.99px;fill:#000000" transform="rotate(-90 300.72,918.01)" text-anchor="middle">10000</text>
	<line x1="390.80" y1="164.22" x2="350.83" y2="164.22" style="stroke:#000000;stroke-width:5.76"/>
	<text x="300.72" y="164.22" style="font-family:'Helvetica';font-size:99.99px;fill:#000000" transform="rotate(-90 300.72,164.22)" text-anchor="middle">15000</text>
	<text x="190.71" y="1294.96" style="font-family:'Helvetica';font-size:99.99px;fill:#000000" transform="rotate(-90 190.71,1294.96)" text-anchor="middle">1990 salary, thousands $</text>
	<line x1="390.80" y1="2489.19" x2="3859.02" y2="2489.19" style="stroke:#000000;stroke-width:5.76"/>
	<line x1="454.16" y1="2489.19" x2="454.16" y2="2529.16" style="stroke:#000000;stroke-width:5.76"/>
	<text x="454.16" y="2619.14" style="font-family:'Helvetica';font-size:99.99px;fill:#000000" text-anchor="middle">0</text>
	<line x1="1568.04" y1="2489.19" x2="1568.04" y2="2529.16" style="stroke:#000000;stroke-width:5.76"/>
	<text x="1568.04" y="2619.14" style="font-family:'Helvetica';font-size:99.99px;fill:#000000" text-anchor="middle">20</text>
	<line x1="2681.91" y1="2489.19" x2="2681.91" y2="2529.16" style="stroke:#000000;stroke-width:5.76"/>
	<text x="2681.91" y="2619.14" style="font-family:'Helvetica';font-size:99.99px;fill:#000000" text-anchor="middle">40</text>
	<line x1="3795.66" y1="2489.19" x2="3795.66" y2="2529.16" style="stroke:#000000;stroke-width:5.76"/>
	<text x="3795.66" y="2619.14" style="font-family:'Helvetica';font-size:99.99px;fill:#000000" text-anchor="middle">60</text>
	<text x="2124.91" y="2729.16" style="font-family:'Helvetica';font-size:99.99px;fill:#000000" text-anchor="middle">return on equity, 88-90 avg</text>
</svg>
