<?xml version="1.0" encoding="UTF-8" standalone="no"?>
<!-- This is a Stata 17.0 generated SVG file (http://www.stata.com) -->

<svg version="1.1" width="5.500in" height="4.000in" viewBox="0 0 3960 2880" xmlns="http://www.w3.org/2000/svg" xmlns:xlink="http://www.w3.org/1999/xlink">
	<desc>Stata Graph - Graph</desc>
	<rect x="0" y="0" width="3960" height="2880" style="fill:#EAF2F3;stroke:none"/>
	<rect x="0.00" y="0.00" width="3959.88" height="2880.00" style="fill:#EAF2F3"/>
	<rect x="2.88" y="2.88" width="3954.12" height="2874.24" style="fill:none;stroke:#EAF2F3;stroke-width:5.76"/>
	<rect x="390.80" y="100.86" width="3468.22" height="2388.33" style="fill:#FFFFFF"/>
	<rect x="393.68" y="103.74" width="3462.46" height="2382.57" style="fill:none;stroke:#FFFFFF;stroke-width:5.76"/>
	<line x1="390.80" y1="2368.53" x2="3859.02" y2="2368.53" style="stroke:#EAF2F3;stroke-width:8.64"/>
	<line x1="390.80" y1="1817.45" x2="3859.02" y2="1817.45" style="stroke:#EAF2F3;stroke-width:8.64"/>
	<line x1="390.80" y1="1266.37" x2="3859.02" y2="1266.37" style="stroke:#EAF2F3;stroke-width:8.64"/>
	<line x1="390.80" y1="715.30" x2="3859.02" y2="715.30" style="stroke:#EAF2F3;stroke-width:8.64"/>
	<line x1="390.80" y1="164.22" x2="3859.02" y2="164.22" style="stroke:#EAF2F3;stroke-width:8.64"/>
	<circle cx="1632.02" cy="1712.75" r="26.35" style="fill:#1A476F"/>
	<circle cx="1632.02" cy="1712.75" r="22.03" style="fill:none;stroke:#1A476F;stroke-width:8.64"/>
	<circle cx="1364.72" cy="1816.46" r="26.35" style="fill:#1A476F"/>
	<circle cx="1364.72" cy="1816.46" r="22.03" style="fill:none;stroke:#1A476F;stroke-width:8.64"/>
	<circle cx="2417.21" cy="1683.05" r="26.35" style="fill:#1A476F"/>
	<circle cx="2417.21" cy="1683.05" r="22.03" style="fill:none;stroke:#1A476F;stroke-width:8.64"/>
	<circle cx="1022.18" cy="2282.64" r="26.35" style="fill:#1A476F"/>
	<circle cx="1022.18" cy="2282.64" r="22.03" style="fill:none;stroke:#1A476F;stroke-width:8.64"/>
	<circle cx="1606.89" cy="1411.91" r="26.35" style="fill:#1A476F"/>
	<circle cx="1606.89" cy="1411.91" r="22.03" style="fill:none;stroke:#1A476F;stroke-width:8.64"/>
	<circle cx="2124.91" cy="1657.68" r="26.35" style="fill:#1A476F"/>
	<circle cx="2124.91" cy="1657.68" r="22.03" style="fill:none;stroke:#1A476F;stroke-width:8.64"/>
	<circle cx="1824.08" cy="1731.56" r="26.35" style="fill:#1A476F"/>
	<circle cx="1824.08" cy="1731.56" r="22.03" style="fill:none;stroke:#1A476F;stroke-width:8.64"/>
	<circle cx="1815.78" cy="1713.87" r="26.35" style="fill:#1A476F"/>
	<circle cx="1815.78" cy="1713.87" r="22.03" style="fill:none;stroke:#1A476F;stroke-width:8.64"/>
	<circle cx="1331.30" cy="1556.33" r="26.35" style="fill:#1A476F"/>
	<circle cx="1331.30" cy="1556.33" r="22.03" style="fill:none;stroke:#1A476F;stroke-width:8.64"/>
	<circle cx="2651.22" cy="2001.60" r="26.35" style="fill:#1A476F"/>
	<circle cx="2651.22" cy="2001.60" r="22.03" style="fill:none;stroke:#1A476F;stroke-width:8.64"/>
	<circle cx="2617.81" cy="2294.77" r="26.35" style="fill:#1A476F"/>
	<circle cx="2617.81" cy="2294.77" r="22.03" style="fill:none;stroke:#1A476F;stroke-width:8.64"/>
	<circle cx="2692.92" cy="1891.33" r="26.35" style="fill:#1A476F"/>
	<circle cx="2692.92" cy="1891.33" r="22.03" style="fill:none;stroke:#1A476F;stroke-width:8.64"/>
	<circle cx="1690.43" cy="1443.84" r="26.35" style="fill:#1A476F"/>
	<circle cx="1690.43" cy="1443.84" r="22.03" style="fill:none;stroke:#1A476F;stroke-width:8.64"/>
	<circle cx="2316.97" cy="1887.00" r="26.35" style="fill:#1A476F"/>
	<circle cx="2316.97" cy="1887.00" r="22.03" style="fill:none;stroke:#1A476F;stroke-width:8.64"/>
	<circle cx="3386.30" cy="703.17" r="26.35" style="fill:#1A476F"/>
	<circle cx="3386.30" cy="703.17" r="22.03" style="fill:none;stroke:#1A476F;stroke-width:8.64"/>
	<circle cx="1506.66" cy="1172.69" r="26.35" style="fill:#1A476F"/>
	<circle cx="1506.66" cy="1172.69" r="22.03" style="fill:none;stroke:#1A476F;stroke-width:8.64"/>
	<circle cx="2158.32" cy="1922.27" r="26.35" style="fill:#1A476F"/>
	<circle cx="2158.32" cy="1922.27" r="22.03" style="fill:none;stroke:#1A476F;stroke-width:8.64"/>
	<circle cx="1022.18" cy="1753.59" r="26.35" style="fill:#1A476F"/>
	<circle cx="1022.18" cy="1753.59" r="22.03" style="fill:none;stroke:#1A476F;stroke-width:8.64"/>
	<circle cx="2116.50" cy="1903.46" r="26.35" style="fill:#1A476F"/>
	<circle cx="2116.50" cy="1903.46" r="22.03" style="fill:none;stroke:#1A476F;stroke-width:8.64"/>
	<circle cx="1740.54" cy="1575.02" r="26.35" style="fill:#1A476F"/>
	<circle cx="1740.54" cy="1575.02" r="22.03" style="fill:none;stroke:#1A476F;stroke-width:8.64"/>
	<circle cx="3386.30" cy="1793.19" r="26.35" style="fill:#1A476F"/>
	<circle cx="3386.30" cy="1793.19" r="22.03" style="fill:none;stroke:#1A476F;stroke-width:8.64"/>
	<circle cx="1824.08" cy="2083.15" r="26.35" style="fill:#1A476F"/>
	<circle cx="1824.08" cy="2083.15" r="22.03" style="fill:none;stroke:#1A476F;stroke-width:8.64"/>
	<circle cx="2492.45" cy="1361.17" r="26.35" style="fill:#1A476F"/>
	<circle cx="2492.45" cy="1361.17" r="22.03" style="fill:none;stroke:#1A476F;stroke-width:8.64"/>
	<circle cx="1757.25" cy="1772.28" r="26.35" style="fill:#1A476F"/>
	<circle cx="1757.25" cy="1772.28" r="22.03" style="fill:none;stroke:#1A476F;stroke-width:8.64"/>
	<circle cx="1657.01" cy="1059.21" r="26.35" style="fill:#1A476F"/>
	<circle cx="1657.01" cy="1059.21" r="22.03" style="fill:none;stroke:#1A476F;stroke-width:8.64"/>
	<circle cx="2041.38" cy="354.93" r="26.35" style="fill:#1A476F"/>
	<circle cx="2041.38" cy="354.93" r="22.03" style="fill:none;stroke:#1A476F;stroke-width:8.64"/>
	<circle cx="1799.08" cy="1641.10" r="26.35" style="fill:#1A476F"/>
	<circle cx="1799.08" cy="1641.10" r="22.03" style="fill:none;stroke:#1A476F;stroke-width:8.64"/>
	<circle cx="1464.95" cy="354.93" r="26.35" style="fill:#1A476F"/>
	<circle cx="1464.95" cy="354.93" r="22.03" style="fill:none;stroke:#1A476F;stroke-width:8.64"/>
	<circle cx="1807.37" cy="2395.01" r="26.35" style="fill:#1A476F"/>
	<circle cx="1807.37" cy="2395.01" r="22.03" style="fill:none;stroke:#1A476F;stroke-width:8.64"/>
	<circle cx="1991.26" cy="1275.28" r="26.35" style="fill:#1A476F"/>
	<circle cx="1991.26" cy="1275.28" r="22.03" style="fill:none;stroke:#1A476F;stroke-width:8.64"/>
	<circle cx="1640.31" cy="1791.09" r="26.35" style="fill:#1A476F"/>
	<circle cx="1640.31" cy="1791.09" r="22.03" style="fill:none;stroke:#1A476F;stroke-width:8.64"/>
	<circle cx="1698.84" cy="1163.91" r="26.35" style="fill:#1A476F"/>
	<circle cx="1698.84" cy="1163.91" r="22.03" style="fill:none;stroke:#1A476F;stroke-width:8.64"/>
	<circle cx="1489.95" cy="2425.95" r="26.35" style="fill:#1A476F"/>
	<circle cx="1489.95" cy="2425.95" r="22.03" style="fill:none;stroke:#1A476F;stroke-width:8.64"/>
	<circle cx="1882.61" cy="2005.93" r="26.35" style="fill:#1A476F"/>
	<circle cx="1882.61" cy="2005.93" r="22.03" style="fill:none;stroke:#1A476F;stroke-width:8.64"/>
	<circle cx="1865.90" cy="2041.20" r="26.35" style="fill:#1A476F"/>
	<circle cx="1865.90" cy="2041.20" r="22.03" style="fill:none;stroke:#1A476F;stroke-width:8.64"/>
	<circle cx="1966.14" cy="2283.75" r="26.35" style="fill:#1A476F"/>
	<circle cx="1966.14" cy="2283.75" r="22.03" style="fill:none;stroke:#1A476F;stroke-width:8.64"/>
	<circle cx="1364.72" cy="1440.50" r="26.35" style="fill:#1A476F"/>
	<circle cx="1364.72" cy="1440.50" r="22.03" style="fill:none;stroke:#1A476F;stroke-width:8.64"/>
	<circle cx="2066.38" cy="964.41" r="26.35" style="fill:#1A476F"/>
	<circle cx="2066.38" cy="964.41" r="22.03" style="fill:none;stroke:#1A476F;stroke-width:8.64"/>
	<circle cx="1982.85" cy="2138.22" r="26.35" style="fill:#1A476F"/>
	<circle cx="1982.85" cy="2138.22" r="22.03" style="fill:none;stroke:#1A476F;stroke-width:8.64"/>
	<circle cx="1991.26" cy="1971.77" r="26.35" style="fill:#1A476F"/>
	<circle cx="1991.26" cy="1971.77" r="22.03" style="fill:none;stroke:#1A476F;stroke-width:8.64"/>
	<circle cx="1606.89" cy="1447.18" r="26.35" style="fill:#1A476F"/>
	<circle cx="1606.89" cy="1447.18" r="22.03" style="fill:none;stroke:#1A476F;stroke-width:8.64"/>
	<circle cx="1598.60" cy="2350.95" r="26.35" style="fill:#1A476F"/>
	<circle cx="1598.60" cy="2350.95" r="22.03" style="fill:none;stroke:#1A476F;stroke-width:8.64"/>
	<circle cx="1515.07" cy="1893.56" r="26.35" style="fill:#1A476F"/>
	<circle cx="1515.07" cy="1893.56" r="22.03" style="fill:none;stroke:#1A476F;stroke-width:8.64"/>
	<circle cx="1715.55" cy="2021.40" r="26.35" style="fill:#1A476F"/>
	<circle cx="1715.55" cy="2021.40" r="22.03" style="fill:none;stroke:#1A476F;stroke-width:8.64"/>
	<circle cx="1832.49" cy="1066.88" r="26.35" style="fill:#1A476F"/>
	<circle cx="1832.49" cy="1066.88" r="22.03" style="fill:none;stroke:#1A476F;stroke-width:8.64"/>
	<circle cx="1306.18" cy="2293.65" r="26.35" style="fill:#1A476F"/>
	<circle cx="1306.18" cy="2293.65" r="22.03" style="fill:none;stroke:#1A476F;stroke-width:8.64"/>
	<circle cx="2091.50" cy="2065.45" r="26.35" style="fill:#1A476F"/>
	<circle cx="2091.50" cy="2065.45" r="22.03" style="fill:none;stroke:#1A476F;stroke-width:8.64"/>
	<circle cx="1523.36" cy="1610.29" r="26.35" style="fill:#1A476F"/>
	<circle cx="1523.36" cy="1610.29" r="22.03" style="fill:none;stroke:#1A476F;stroke-width:8.64"/>
	<circle cx="1782.37" cy="2057.78" r="26.35" style="fill:#1A476F"/>
	<circle cx="1782.37" cy="2057.78" r="22.03" style="fill:none;stroke:#1A476F;stroke-width:8.64"/>
	<circle cx="1899.32" cy="1630.09" r="26.35" style="fill:#1A476F"/>
	<circle cx="1899.32" cy="1630.09" r="22.03" style="fill:none;stroke:#1A476F;stroke-width:8.64"/>
	<circle cx="1164.12" cy="1300.53" r="26.35" style="fill:#1A476F"/>
	<circle cx="1164.12" cy="1300.53" r="22.03" style="fill:none;stroke:#1A476F;stroke-width:8.64"/>
	<circle cx="1824.08" cy="1910.14" r="26.35" style="fill:#1A476F"/>
	<circle cx="1824.08" cy="1910.14" r="22.03" style="fill:none;stroke:#1A476F;stroke-width:8.64"/>
	<circle cx="2083.08" cy="1740.35" r="26.35" style="fill:#1A476F"/>
	<circle cx="2083.08" cy="1740.35" r="22.03" style="fill:none;stroke:#1A476F;stroke-width:8.64"/>
	<circle cx="2058.09" cy="1934.27" r="26.35" style="fill:#1A476F"/>
	<circle cx="2058.09" cy="1934.27" r="22.03" style="fill:none;stroke:#1A476F;stroke-width:8.64"/>
	<circle cx="1782.37" cy="2005.93" r="26.35" style="fill:#1A476F"/>
	<circle cx="1782.37" cy="2005.93" r="22.03" style="fill:none;stroke:#1A476F;stroke-width:8.64"/>
	<circle cx="2116.50" cy="2060.01" r="26.35" style="fill:#1A476F"/>
	<circle cx="2116.50" cy="2060.01" r="22.03" style="fill:none;stroke:#1A476F;stroke-width:8.64"/>
	<circle cx="2801.58" cy="354.93" r="26.35" style="fill:#1A476F"/>
	<circle cx="2801.58" cy="354.93" r="22.03" style="fill:none;stroke:#1A476F;stroke-width:8.64"/>
	<circle cx="2542.57" cy="2129.43" r="26.35" style="fill:#1A476F"/>
	<circle cx="2542.57" cy="2129.43" r="22.03" style="fill:none;stroke:#1A476F;stroke-width:8.64"/>
	<circle cx="1707.13" cy="1411.91" r="26.35" style="fill:#1A476F"/>
	<circle cx="1707.13" cy="1411.91" r="22.03" style="fill:none;stroke:#1A476F;stroke-width:8.64"/>
	<circle cx="1506.66" cy="684.48" r="26.35" style="fill:#1A476F"/>
	<circle cx="1506.66" cy="684.48" r="22.03" style="fill:none;stroke:#1A476F;stroke-width:8.64"/>
	<circle cx="2149.91" cy="1602.61" r="26.35" style="fill:#1A476F"/>
	<circle cx="2149.91" cy="1602.61" r="22.03" style="fill:none;stroke:#1A476F;stroke-width:8.64"/>
	<circle cx="2350.38" cy="2425.95" r="26.35" style="fill:#1A476F"/>
	<circle cx="2350.38" cy="2425.95" r="22.03" style="fill:none;stroke:#1A476F;stroke-width:8.64"/>
	<circle cx="1690.43" cy="2065.45" r="26.35" style="fill:#1A476F"/>
	<circle cx="1690.43" cy="2065.45" r="22.03" style="fill:none;stroke:#1A476F;stroke-width:8.64"/>
	<circle cx="1556.78" cy="1368.97" r="26.35" style="fill:#1A476F"/>
	<circle cx="1556.78" cy="1368.97" r="22.03" style="fill:none;stroke:#1A476F;stroke-width:8.64"/>
	<circle cx="1314.60" cy="2321.25" r="26.35" style="fill:#1A476F"/>
	<circle cx="1314.60" cy="2321.25" r="22.03" style="fill:none;stroke:#1A476F;stroke-width:8.64"/>
	<circle cx="1932.73" cy="1956.42" r="26.35" style="fill:#1A476F"/>
	<circle cx="1932.73" cy="1956.42" r="22.03" style="fill:none;stroke:#1A476F;stroke-width:8.64"/>
	<circle cx="1289.47" cy="1501.13" r="26.35" style="fill:#1A476F"/>
	<circle cx="1289.47" cy="1501.13" r="22.03" style="fill:none;stroke:#1A476F;stroke-width:8.64"/>
	<circle cx="1757.25" cy="1544.20" r="26.35" style="fill:#1A476F"/>
	<circle cx="1757.25" cy="1544.20" r="22.03" style="fill:none;stroke:#1A476F;stroke-width:8.64"/>
	<circle cx="1022.18" cy="1955.31" r="26.35" style="fill:#1A476F"/>
	<circle cx="1022.18" cy="1955.31" r="22.03" style="fill:none;stroke:#1A476F;stroke-width:8.64"/>
	<circle cx="1489.95" cy="1900.12" r="26.35" style="fill:#1A476F"/>
	<circle cx="1489.95" cy="1900.12" r="22.03" style="fill:none;stroke:#1A476F;stroke-width:8.64"/>
	<circle cx="1548.48" cy="2040.08" r="26.35" style="fill:#1A476F"/>
	<circle cx="1548.48" cy="2040.08" r="22.03" style="fill:none;stroke:#1A476F;stroke-width:8.64"/>
	<circle cx="1773.96" cy="2082.04" r="26.35" style="fill:#1A476F"/>
	<circle cx="1773.96" cy="2082.04" r="22.03" style="fill:none;stroke:#1A476F;stroke-width:8.64"/>
	<circle cx="1523.36" cy="2258.38" r="26.35" style="fill:#1A476F"/>
	<circle cx="1523.36" cy="2258.38" r="22.03" style="fill:none;stroke:#1A476F;stroke-width:8.64"/>
	<circle cx="1732.25" cy="1827.47" r="26.35" style="fill:#1A476F"/>
	<circle cx="1732.25" cy="1827.47" r="22.03" style="fill:none;stroke:#1A476F;stroke-width:8.64"/>
	<circle cx="1022.18" cy="1189.27" r="26.35" style="fill:#1A476F"/>
	<circle cx="1022.18" cy="1189.27" r="22.03" style="fill:none;stroke:#1A476F;stroke-width:8.64"/>
	<circle cx="1832.49" cy="1915.59" r="26.35" style="fill:#1A476F"/>
	<circle cx="1832.49" cy="1915.59" r="22.03" style="fill:none;stroke:#1A476F;stroke-width:8.64"/>
	<circle cx="1715.55" cy="1420.69" r="26.35" style="fill:#1A476F"/>
	<circle cx="1715.55" cy="1420.69" r="22.03" style="fill:none;stroke:#1A476F;stroke-width:8.64"/>
	<circle cx="1540.07" cy="2148.12" r="26.35" style="fill:#1A476F"/>
	<circle cx="1540.07" cy="2148.12" r="22.03" style="fill:none;stroke:#1A476F;stroke-width:8.64"/>
	<circle cx="1381.42" cy="2102.95" r="26.35" style="fill:#1A476F"/>
	<circle cx="1381.42" cy="2102.95" r="22.03" style="fill:none;stroke:#1A476F;stroke-width:8.64"/>
	<circle cx="1197.53" cy="1710.65" r="26.35" style="fill:#1A476F"/>
	<circle cx="1197.53" cy="1710.65" r="22.03" style="fill:none;stroke:#1A476F;stroke-width:8.64"/>
	<circle cx="1916.02" cy="1869.30" r="26.35" style="fill:#1A476F"/>
	<circle cx="1916.02" cy="1869.30" r="22.03" style="fill:none;stroke:#1A476F;stroke-width:8.64"/>
	<circle cx="1782.37" cy="2425.95" r="26.35" style="fill:#1A476F"/>
	<circle cx="1782.37" cy="2425.95" r="22.03" style="fill:none;stroke:#1A476F;stroke-width:8.64"/>
	<circle cx="1640.31" cy="2263.83" r="26.35" style="fill:#1A476F"/>
	<circle cx="1640.31" cy="2263.83" r="22.03" style="fill:none;stroke:#1A476F;stroke-width:8.64"/>
	<circle cx="1230.94" cy="1743.69" r="26.35" style="fill:#1A476F"/>
	<circle cx="1230.94" cy="1743.69" r="22.03" style="fill:none;stroke:#1A476F;stroke-width:8.64"/>
	<circle cx="1247.65" cy="1489.01" r="26.35" style="fill:#1A476F"/>
	<circle cx="1247.65" cy="1489.01" r="22.03" style="fill:none;stroke:#1A476F;stroke-width:8.64"/>
	<circle cx="1748.96" cy="937.93" r="26.35" style="fill:#1A476F"/>
	<circle cx="1748.96" cy="937.93" r="22.03" style="fill:none;stroke:#1A476F;stroke-width:8.64"/>
	<circle cx="1657.01" cy="354.93" r="26.35" style="fill:#1A476F"/>
	<circle cx="1657.01" cy="354.93" r="22.03" style="fill:none;stroke:#1A476F;stroke-width:8.64"/>
	<circle cx="1381.42" cy="1447.18" r="26.35" style="fill:#1A476F"/>
	<circle cx="1381.42" cy="1447.18" r="22.03" style="fill:none;stroke:#1A476F;stroke-width:8.64"/>
	<circle cx="1782.37" cy="990.90" r="26.35" style="fill:#1A476F"/>
	<circle cx="1782.37" cy="990.90" r="22.03" style="fill:none;stroke:#1A476F;stroke-width:8.64"/>
	<circle cx="1824.08" cy="1914.47" r="26.35" style="fill:#1A476F"/>
	<circle cx="1824.08" cy="1914.47" r="22.03" style="fill:none;stroke:#1A476F;stroke-width:8.64"/>
	<circle cx="1172.53" cy="834.35" r="26.35" style="fill:#1A476F"/>
	<circle cx="1172.53" cy="834.35" r="22.03" style="fill:none;stroke:#1A476F;stroke-width:8.64"/>
	<circle cx="2509.16" cy="2001.60" r="26.35" style="fill:#1A476F"/>
	<circle cx="2509.16" cy="2001.60" r="22.03" style="fill:none;stroke:#1A476F;stroke-width:8.64"/>
	<circle cx="1740.54" cy="1661.02" r="26.35" style="fill:#1A476F"/>
	<circle cx="1740.54" cy="1661.02" r="22.03" style="fill:none;stroke:#1A476F;stroke-width:8.64"/>
	<circle cx="1865.90" cy="1642.21" r="26.35" style="fill:#1A476F"/>
	<circle cx="1865.90" cy="1642.21" r="22.03" style="fill:none;stroke:#1A476F;stroke-width:8.64"/>
	<circle cx="1055.59" cy="1505.59" r="26.35" style="fill:#1A476F"/>
	<circle cx="1055.59" cy="1505.59" r="22.03" style="fill:none;stroke:#1A476F;stroke-width:8.64"/>
	<circle cx="1423.13" cy="595.13" r="26.35" style="fill:#1A476F"/>
	<circle cx="1423.13" cy="595.13" r="22.03" style="fill:none;stroke:#1A476F;stroke-width:8.64"/>
	<circle cx="2659.51" cy="1774.51" r="26.35" style="fill:#1A476F"/>
	<circle cx="2659.51" cy="1774.51" r="22.03" style="fill:none;stroke:#1A476F;stroke-width:8.64"/>
	<circle cx="2241.86" cy="1826.36" r="26.35" style="fill:#1A476F"/>
	<circle cx="2241.86" cy="1826.36" r="22.03" style="fill:none;stroke:#1A476F;stroke-width:8.64"/>
	<circle cx="2058.09" cy="1538.63" r="26.35" style="fill:#1A476F"/>
	<circle cx="2058.09" cy="1538.63" r="22.03" style="fill:none;stroke:#1A476F;stroke-width:8.64"/>
	<circle cx="1715.55" cy="2124.98" r="26.35" style="fill:#1A476F"/>
	<circle cx="1715.55" cy="2124.98" r="22.03" style="fill:none;stroke:#1A476F;stroke-width:8.64"/>
	<circle cx="1205.94" cy="1430.59" r="26.35" style="fill:#1A476F"/>
	<circle cx="1205.94" cy="1430.59" r="22.03" style="fill:none;stroke:#1A476F;stroke-width:8.64"/>
	<circle cx="1239.36" cy="1386.54" r="26.35" style="fill:#1A476F"/>
	<circle cx="1239.36" cy="1386.54" r="22.03" style="fill:none;stroke:#1A476F;stroke-width:8.64"/>
	<circle cx="2041.38" cy="1547.42" r="26.35" style="fill:#1A476F"/>
	<circle cx="2041.38" cy="1547.42" r="22.03" style="fill:none;stroke:#1A476F;stroke-width:8.64"/>
	<circle cx="1022.18" cy="1211.30" r="26.35" style="fill:#1A476F"/>
	<circle cx="1022.18" cy="1211.30" r="22.03" style="fill:none;stroke:#1A476F;stroke-width:8.64"/>
	<circle cx="2300.27" cy="549.96" r="26.35" style="fill:#1A476F"/>
	<circle cx="2300.27" cy="549.96" r="22.03" style="fill:none;stroke:#1A476F;stroke-width:8.64"/>
	<circle cx="1364.72" cy="885.09" r="26.35" style="fill:#1A476F"/>
	<circle cx="1364.72" cy="885.09" r="22.03" style="fill:none;stroke:#1A476F;stroke-width:8.64"/>
	<circle cx="1715.55" cy="2288.09" r="26.35" style="fill:#1A476F"/>
	<circle cx="1715.55" cy="2288.09" r="22.03" style="fill:none;stroke:#1A476F;stroke-width:8.64"/>
	<circle cx="1306.18" cy="354.93" r="26.35" style="fill:#1A476F"/>
	<circle cx="1306.18" cy="354.93" r="22.03" style="fill:none;stroke:#1A476F;stroke-width:8.64"/>
	<circle cx="1899.32" cy="1862.74" r="26.35" style="fill:#1A476F"/>
	<circle cx="1899.32" cy="1862.74" r="22.03" style="fill:none;stroke:#1A476F;stroke-width:8.64"/>
	<circle cx="3235.94" cy="2245.14" r="26.35" style="fill:#1A476F"/>
	<circle cx="3235.94" cy="2245.14" r="22.03" style="fill:none;stroke:#1A476F;stroke-width:8.64"/>
	<circle cx="2358.80" cy="913.67" r="26.35" style="fill:#1A476F"/>
	<circle cx="2358.80" cy="913.67" r="22.03" style="fill:none;stroke:#1A476F;stroke-width:8.64"/>
	<circle cx="1381.42" cy="1364.51" r="26.35" style="fill:#1A476F"/>
	<circle cx="1381.42" cy="1364.51" r="22.03" style="fill:none;stroke:#1A476F;stroke-width:8.64"/>
	<circle cx="1489.95" cy="1788.86" r="26.35" style="fill:#1A476F"/>
	<circle cx="1489.95" cy="1788.86" r="22.03" style="fill:none;stroke:#1A476F;stroke-width:8.64"/>
	<circle cx="2200.03" cy="1501.13" r="26.35" style="fill:#1A476F"/>
	<circle cx="2200.03" cy="1501.13" r="22.03" style="fill:none;stroke:#1A476F;stroke-width:8.64"/>
	<circle cx="1022.18" cy="2037.98" r="26.35" style="fill:#1A476F"/>
	<circle cx="1022.18" cy="2037.98" r="22.03" style="fill:none;stroke:#1A476F;stroke-width:8.64"/>
	<circle cx="1047.17" cy="1690.73" r="26.35" style="fill:#1A476F"/>
	<circle cx="1047.17" cy="1690.73" r="22.03" style="fill:none;stroke:#1A476F;stroke-width:8.64"/>
	<circle cx="1439.83" cy="1122.08" r="26.35" style="fill:#1A476F"/>
	<circle cx="1439.83" cy="1122.08" r="22.03" style="fill:none;stroke:#1A476F;stroke-width:8.64"/>
	<circle cx="1623.60" cy="814.55" r="26.35" style="fill:#1A476F"/>
	<circle cx="1623.60" cy="814.55" r="22.03" style="fill:none;stroke:#1A476F;stroke-width:8.64"/>
	<circle cx="1297.77" cy="1821.90" r="26.35" style="fill:#1A476F"/>
	<circle cx="1297.77" cy="1821.90" r="22.03" style="fill:none;stroke:#1A476F;stroke-width:8.64"/>
	<circle cx="1022.18" cy="1907.91" r="26.35" style="fill:#1A476F"/>
	<circle cx="1022.18" cy="1907.91" r="22.03" style="fill:none;stroke:#1A476F;stroke-width:8.64"/>
	<circle cx="1489.95" cy="1529.85" r="26.35" style="fill:#1A476F"/>
	<circle cx="1489.95" cy="1529.85" r="22.03" style="fill:none;stroke:#1A476F;stroke-width:8.64"/>
	<circle cx="1924.31" cy="1759.04" r="26.35" style="fill:#1A476F"/>
	<circle cx="1924.31" cy="1759.04" r="22.03" style="fill:none;stroke:#1A476F;stroke-width:8.64"/>
	<circle cx="1715.55" cy="1573.90" r="26.35" style="fill:#1A476F"/>
	<circle cx="1715.55" cy="1573.90" r="22.03" style="fill:none;stroke:#1A476F;stroke-width:8.64"/>
	<circle cx="2425.62" cy="1004.14" r="26.35" style="fill:#1A476F"/>
	<circle cx="2425.62" cy="1004.14" r="22.03" style="fill:none;stroke:#1A476F;stroke-width:8.64"/>
	<circle cx="3386.30" cy="354.93" r="26.35" style="fill:#1A476F"/>
	<circle cx="3386.30" cy="354.93" r="22.03" style="fill:none;stroke:#1A476F;stroke-width:8.64"/>
	<circle cx="2392.21" cy="825.56" r="26.35" style="fill:#1A476F"/>
	<circle cx="2392.21" cy="825.56" r="22.03" style="fill:none;stroke:#1A476F;stroke-width:8.64"/>
	<circle cx="1489.95" cy="2425.95" r="26.35" style="fill:#1A476F"/>
	<circle cx="1489.95" cy="2425.95" r="22.03" style="fill:none;stroke:#1A476F;stroke-width:8.64"/>
	<circle cx="3386.30" cy="1045.97" r="26.35" style="fill:#1A476F"/>
	<circle cx="3386.30" cy="1045.97" r="22.03" style="fill:none;stroke:#1A476F;stroke-width:8.64"/>
	<circle cx="1022.18" cy="2425.95" r="26.35" style="fill:#1A476F"/>
	<circle cx="1022.18" cy="2425.95" r="22.03" style="fill:none;stroke:#1A476F;stroke-width:8.64"/>
	<circle cx="1991.26" cy="2413.82" r="26.35" style="fill:#1A476F"/>
	<circle cx="1991.26" cy="2413.82" r="22.03" style="fill:none;stroke:#1A476F;stroke-width:8.64"/>
	<circle cx="1799.08" cy="1442.72" r="26.35" style="fill:#1A476F"/>
	<circle cx="1799.08" cy="1442.72" r="22.03" style="fill:none;stroke:#1A476F;stroke-width:8.64"/>
	<circle cx="1715.55" cy="2116.19" r="26.35" style="fill:#1A476F"/>
	<circle cx="1715.55" cy="2116.19" r="22.03" style="fill:none;stroke:#1A476F;stroke-width:8.64"/>
	<circle cx="2350.38" cy="2425.95" r="26.35" style="fill:#1A476F"/>
	<circle cx="2350.38" cy="2425.95" r="22.03" style="fill:none;stroke:#1A476F;stroke-width:8.64"/>
	<circle cx="2408.92" cy="604.04" r="26.35" style="fill:#1A476F"/>
	<circle cx="2408.92" cy="604.04" r="22.03" style="fill:none;stroke:#1A476F;stroke-width:8.64"/>
	<circle cx="2601.10" cy="1727.11" r="26.35" style="fill:#1A476F"/>
	<circle cx="2601.10" cy="1727.11" r="22.03" style="fill:none;stroke:#1A476F;stroke-width:8.64"/>
	<circle cx="2709.63" cy="956.74" r="26.35" style="fill:#1A476F"/>
	<circle cx="2709.63" cy="956.74" r="22.03" style="fill:none;stroke:#1A476F;stroke-width:8.64"/>
	<circle cx="2116.50" cy="2047.88" r="26.35" style="fill:#1A476F"/>
	<circle cx="2116.50" cy="2047.88" r="22.03" style="fill:none;stroke:#1A476F;stroke-width:8.64"/>
	<circle cx="3386.30" cy="613.94" r="26.35" style="fill:#1A476F"/>
	<circle cx="3386.30" cy="613.94" r="22.03" style="fill:none;stroke:#1A476F;stroke-width:8.64"/>
	<circle cx="1824.08" cy="1185.93" r="26.35" style="fill:#1A476F"/>
	<circle cx="1824.08" cy="1185.93" r="22.03" style="fill:none;stroke:#1A476F;stroke-width:8.64"/>
	<circle cx="1423.13" cy="1767.95" r="26.35" style="fill:#1A476F"/>
	<circle cx="1423.13" cy="1767.95" r="22.03" style="fill:none;stroke:#1A476F;stroke-width:8.64"/>
	<circle cx="2525.86" cy="1052.53" r="26.35" style="fill:#1A476F"/>
	<circle cx="2525.86" cy="1052.53" r="22.03" style="fill:none;stroke:#1A476F;stroke-width:8.64"/>
	<circle cx="2642.81" cy="2420.38" r="26.35" style="fill:#1A476F"/>
	<circle cx="2642.81" cy="2420.38" r="22.03" style="fill:none;stroke:#1A476F;stroke-width:8.64"/>
	<circle cx="3386.30" cy="1674.27" r="26.35" style="fill:#1A476F"/>
	<circle cx="3386.30" cy="1674.27" r="22.03" style="fill:none;stroke:#1A476F;stroke-width:8.64"/>
	<circle cx="2316.97" cy="1449.41" r="26.35" style="fill:#1A476F"/>
	<circle cx="2316.97" cy="1449.41" r="22.03" style="fill:none;stroke:#1A476F;stroke-width:8.64"/>
	<circle cx="2316.97" cy="1438.39" r="26.35" style="fill:#1A476F"/>
	<circle cx="2316.97" cy="1438.39" r="22.03" style="fill:none;stroke:#1A476F;stroke-width:8.64"/>
	<circle cx="3386.30" cy="1172.69" r="26.35" style="fill:#1A476F"/>
	<circle cx="3386.30" cy="1172.69" r="22.03" style="fill:none;stroke:#1A476F;stroke-width:8.64"/>
	<circle cx="1548.48" cy="774.82" r="26.35" style="fill:#1A476F"/>
	<circle cx="1548.48" cy="774.82" r="22.03" style="fill:none;stroke:#1A476F;stroke-width:8.64"/>
	<circle cx="1373.01" cy="1135.19" r="26.35" style="fill:#1A476F"/>
	<circle cx="1373.01" cy="1135.19" r="22.03" style="fill:none;stroke:#1A476F;stroke-width:8.64"/>
	<circle cx="2074.79" cy="1134.20" r="26.35" style="fill:#1A476F"/>
	<circle cx="2074.79" cy="1134.20" r="22.03" style="fill:none;stroke:#1A476F;stroke-width:8.64"/>
	<circle cx="2834.99" cy="1853.83" r="26.35" style="fill:#1A476F"/>
	<circle cx="2834.99" cy="1853.83" r="22.03" style="fill:none;stroke:#1A476F;stroke-width:8.64"/>
	<circle cx="3386.30" cy="1342.48" r="26.35" style="fill:#1A476F"/>
	<circle cx="3386.30" cy="1342.48" r="22.03" style="fill:none;stroke:#1A476F;stroke-width:8.64"/>
	<circle cx="2692.92" cy="1562.89" r="26.35" style="fill:#1A476F"/>
	<circle cx="2692.92" cy="1562.89" r="22.03" style="fill:none;stroke:#1A476F;stroke-width:8.64"/>
	<circle cx="1765.67" cy="2071.02" r="26.35" style="fill:#1A476F"/>
	<circle cx="1765.67" cy="2071.02" r="22.03" style="fill:none;stroke:#1A476F;stroke-width:8.64"/>
	<circle cx="1707.13" cy="1162.79" r="26.35" style="fill:#1A476F"/>
	<circle cx="1707.13" cy="1162.79" r="22.03" style="fill:none;stroke:#1A476F;stroke-width:8.64"/>
	<circle cx="2809.87" cy="1191.50" r="26.35" style="fill:#1A476F"/>
	<circle cx="2809.87" cy="1191.50" r="22.03" style="fill:none;stroke:#1A476F;stroke-width:8.64"/>
	<circle cx="1740.54" cy="1823.02" r="26.35" style="fill:#1A476F"/>
	<circle cx="1740.54" cy="1823.02" r="22.03" style="fill:none;stroke:#1A476F;stroke-width:8.64"/>
	<circle cx="2124.91" cy="1732.68" r="26.35" style="fill:#1A476F"/>
	<circle cx="2124.91" cy="1732.68" r="22.03" style="fill:none;stroke:#1A476F;stroke-width:8.64"/>
	<circle cx="3386.30" cy="1640.11" r="26.35" style="fill:#1A476F"/>
	<circle cx="3386.30" cy="1640.11" r="22.03" style="fill:none;stroke:#1A476F;stroke-width:8.64"/>
	<circle cx="2091.50" cy="1375.52" r="26.35" style="fill:#1A476F"/>
	<circle cx="2091.50" cy="1375.52" r="22.03" style="fill:none;stroke:#1A476F;stroke-width:8.64"/>
	<circle cx="1807.37" cy="1677.48" r="26.35" style="fill:#1A476F"/>
	<circle cx="1807.37" cy="1677.48" r="22.03" style="fill:none;stroke:#1A476F;stroke-width:8.64"/>
	<circle cx="2250.15" cy="354.93" r="26.35" style="fill:#1A476F"/>
	<circle cx="2250.15" cy="354.93" r="22.03" style="fill:none;stroke:#1A476F;stroke-width:8.64"/>
	<circle cx="2918.52" cy="2115.08" r="26.35" style="fill:#1A476F"/>
	<circle cx="2918.52" cy="2115.08" r="22.03" style="fill:none;stroke:#1A476F;stroke-width:8.64"/>
	<circle cx="2342.09" cy="2116.19" r="26.35" style="fill:#1A476F"/>
	<circle cx="2342.09" cy="2116.19" r="22.03" style="fill:none;stroke:#1A476F;stroke-width:8.64"/>
	<circle cx="2367.09" cy="354.93" r="26.35" style="fill:#1A476F"/>
	<circle cx="2367.09" cy="354.93" r="22.03" style="fill:none;stroke:#1A476F;stroke-width:8.64"/>
	<circle cx="1540.07" cy="1873.76" r="26.35" style="fill:#1A476F"/>
	<circle cx="1540.07" cy="1873.76" r="22.03" style="fill:none;stroke:#1A476F;stroke-width:8.64"/>
	<circle cx="1105.71" cy="354.93" r="26.35" style="fill:#1A476F"/>
	<circle cx="1105.71" cy="354.93" r="22.03" style="fill:none;stroke:#1A476F;stroke-width:8.64"/>
	<circle cx="3386.30" cy="1264.15" r="26.35" style="fill:#1A476F"/>
	<circle cx="3386.30" cy="1264.15" r="22.03" style="fill:none;stroke:#1A476F;stroke-width:8.64"/>
	<circle cx="1957.85" cy="2030.18" r="26.35" style="fill:#1A476F"/>
	<circle cx="1957.85" cy="2030.18" r="22.03" style="fill:none;stroke:#1A476F;stroke-width:8.64"/>
	<circle cx="1957.85" cy="2133.89" r="26.35" style="fill:#1A476F"/>
	<circle cx="1957.85" cy="2133.89" r="22.03" style="fill:none;stroke:#1A476F;stroke-width:8.64"/>
	<circle cx="2266.85" cy="1278.50" r="26.35" style="fill:#1A476F"/>
	<circle cx="2266.85" cy="1278.50" r="22.03" style="fill:none;stroke:#1A476F;stroke-width:8.64"/>
	<circle cx="2233.44" cy="2108.52" r="26.35" style="fill:#1A476F"/>
	<circle cx="2233.44" cy="2108.52" r="22.03" style="fill:none;stroke:#1A476F;stroke-width:8.64"/>
	<circle cx="2701.34" cy="1568.46" r="26.35" style="fill:#1A476F"/>
	<circle cx="2701.34" cy="1568.46" r="22.03" style="fill:none;stroke:#1A476F;stroke-width:8.64"/>
	<circle cx="3002.05" cy="2321.25" r="26.35" style="fill:#1A476F"/>
	<circle cx="3002.05" cy="2321.25" r="22.03" style="fill:none;stroke:#1A476F;stroke-width:8.64"/>
	<circle cx="2074.79" cy="354.93" r="26.35" style="fill:#1A476F"/>
	<circle cx="2074.79" cy="354.93" r="22.03" style="fill:none;stroke:#1A476F;stroke-width:8.64"/>
	<circle cx="1757.25" cy="1938.73" r="26.35" style="fill:#1A476F"/>
	<circle cx="1757.25" cy="1938.73" r="22.03" style="fill:none;stroke:#1A476F;stroke-width:8.64"/>
	<circle cx="2074.79" cy="1126.41" r="26.35" style="fill:#1A476F"/>
	<circle cx="2074.79" cy="1126.41" r="22.03" style="fill:none;stroke:#1A476F;stroke-width:8.64"/>
	<circle cx="2885.11" cy="354.93" r="26.35" style="fill:#1A476F"/>
	<circle cx="2885.11" cy="354.93" r="22.03" style="fill:none;stroke:#1A476F;stroke-width:8.64"/>
	<circle cx="3386.30" cy="441.93" r="26.35" style="fill:#1A476F"/>
	<circle cx="3386.30" cy="441.93" r="22.03" style="fill:none;stroke:#1A476F;stroke-width:8.64"/>
	<circle cx="1598.60" cy="2052.21" r="26.35" style="fill:#1A476F"/>
	<circle cx="1598.60" cy="2052.21" r="22.03" style="fill:none;stroke:#1A476F;stroke-width:8.64"/>
	<circle cx="1381.42" cy="2397.24" r="26.35" style="fill:#1A476F"/>
	<circle cx="1381.42" cy="2397.24" r="22.03" style="fill:none;stroke:#1A476F;stroke-width:8.64"/>
	<circle cx="1356.30" cy="2425.95" r="26.35" style="fill:#1A476F"/>
	<circle cx="1356.30" cy="2425.95" r="22.03" style="fill:none;stroke:#1A476F;stroke-width:8.64"/>
	<circle cx="1022.18" cy="2407.14" r="26.35" style="fill:#1A476F"/>
	<circle cx="1022.18" cy="2407.14" r="22.03" style="fill:none;stroke:#1A476F;stroke-width:8.64"/>
	<circle cx="1481.66" cy="2264.94" r="26.35" style="fill:#1A476F"/>
	<circle cx="1481.66" cy="2264.94" r="22.03" style="fill:none;stroke:#1A476F;stroke-width:8.64"/>
	<circle cx="1072.29" cy="2161.36" r="26.35" style="fill:#1A476F"/>
	<circle cx="1072.29" cy="2161.36" r="22.03" style="fill:none;stroke:#1A476F;stroke-width:8.64"/>
	<circle cx="1022.18" cy="2250.71" r="26.35" style="fill:#1A476F"/>
	<circle cx="1022.18" cy="2250.71" r="22.03" style="fill:none;stroke:#1A476F;stroke-width:8.64"/>
	<circle cx="1515.07" cy="2220.89" r="26.35" style="fill:#1A476F"/>
	<circle cx="1515.07" cy="2220.89" r="22.03" style="fill:none;stroke:#1A476F;stroke-width:8.64"/>
	<circle cx="1339.59" cy="2333.38" r="26.35" style="fill:#1A476F"/>
	<circle cx="1339.59" cy="2333.38" r="22.03" style="fill:none;stroke:#1A476F;stroke-width:8.64"/>
	<circle cx="1072.29" cy="2425.95" r="26.35" style="fill:#1A476F"/>
	<circle cx="1072.29" cy="2425.95" r="22.03" style="fill:none;stroke:#1A476F;stroke-width:8.64"/>
	<circle cx="1506.66" cy="2154.80" r="26.35" style="fill:#1A476F"/>
	<circle cx="1506.66" cy="2154.80" r="22.03" style="fill:none;stroke:#1A476F;stroke-width:8.64"/>
	<circle cx="1523.36" cy="2346.50" r="26.35" style="fill:#1A476F"/>
	<circle cx="1523.36" cy="2346.50" r="22.03" style="fill:none;stroke:#1A476F;stroke-width:8.64"/>
	<circle cx="1022.18" cy="2085.38" r="26.35" style="fill:#1A476F"/>
	<circle cx="1022.18" cy="2085.38" r="22.03" style="fill:none;stroke:#1A476F;stroke-width:8.64"/>
	<circle cx="1581.90" cy="2183.39" r="26.35" style="fill:#1A476F"/>
	<circle cx="1581.90" cy="2183.39" r="22.03" style="fill:none;stroke:#1A476F;stroke-width:8.64"/>
	<circle cx="1348.01" cy="2034.64" r="26.35" style="fill:#1A476F"/>
	<circle cx="1348.01" cy="2034.64" r="22.03" style="fill:none;stroke:#1A476F;stroke-width:8.64"/>
	<circle cx="1448.25" cy="2368.65" r="26.35" style="fill:#1A476F"/>
	<circle cx="1448.25" cy="2368.65" r="22.03" style="fill:none;stroke:#1A476F;stroke-width:8.64"/>
	<circle cx="1531.78" cy="2311.23" r="26.35" style="fill:#1A476F"/>
	<circle cx="1531.78" cy="2311.23" r="22.03" style="fill:none;stroke:#1A476F;stroke-width:8.64"/>
	<circle cx="1297.77" cy="2425.95" r="26.35" style="fill:#1A476F"/>
	<circle cx="1297.77" cy="2425.95" r="22.03" style="fill:none;stroke:#1A476F;stroke-width:8.64"/>
	<circle cx="1063.88" cy="1707.31" r="26.35" style="fill:#1A476F"/>
	<circle cx="1063.88" cy="1707.31" r="22.03" style="fill:none;stroke:#1A476F;stroke-width:8.64"/>
	<circle cx="1673.72" cy="1862.74" r="26.35" style="fill:#1A476F"/>
	<circle cx="1673.72" cy="1862.74" r="22.03" style="fill:none;stroke:#1A476F;stroke-width:8.64"/>
	<circle cx="1606.89" cy="2425.95" r="26.35" style="fill:#1A476F"/>
	<circle cx="1606.89" cy="2425.95" r="22.03" style="fill:none;stroke:#1A476F;stroke-width:8.64"/>
	<circle cx="1197.53" cy="2365.31" r="26.35" style="fill:#1A476F"/>
	<circle cx="1197.53" cy="2365.31" r="22.03" style="fill:none;stroke:#1A476F;stroke-width:8.64"/>
	<circle cx="1623.60" cy="2425.95" r="26.35" style="fill:#1A476F"/>
	<circle cx="1623.60" cy="2425.95" r="22.03" style="fill:none;stroke:#1A476F;stroke-width:8.64"/>
	<circle cx="1531.78" cy="2112.85" r="26.35" style="fill:#1A476F"/>
	<circle cx="1531.78" cy="2112.85" r="22.03" style="fill:none;stroke:#1A476F;stroke-width:8.64"/>
	<circle cx="1665.43" cy="2126.09" r="26.35" style="fill:#1A476F"/>
	<circle cx="1665.43" cy="2126.09" r="22.03" style="fill:none;stroke:#1A476F;stroke-width:8.64"/>
	<circle cx="1682.13" cy="2029.07" r="26.35" style="fill:#1A476F"/>
	<circle cx="1682.13" cy="2029.07" r="22.03" style="fill:none;stroke:#1A476F;stroke-width:8.64"/>
	<circle cx="1205.94" cy="1894.67" r="26.35" style="fill:#1A476F"/>
	<circle cx="1205.94" cy="1894.67" r="22.03" style="fill:none;stroke:#1A476F;stroke-width:8.64"/>
	<circle cx="1748.96" cy="2341.05" r="26.35" style="fill:#1A476F"/>
	<circle cx="1748.96" cy="2341.05" r="22.03" style="fill:none;stroke:#1A476F;stroke-width:8.64"/>
	<circle cx="1464.95" cy="2194.40" r="26.35" style="fill:#1A476F"/>
	<circle cx="1464.95" cy="2194.40" r="22.03" style="fill:none;stroke:#1A476F;stroke-width:8.64"/>
	<circle cx="1598.60" cy="2308.01" r="26.35" style="fill:#1A476F"/>
	<circle cx="1598.60" cy="2308.01" r="22.03" style="fill:none;stroke:#1A476F;stroke-width:8.64"/>
	<circle cx="1657.01" cy="2229.67" r="26.35" style="fill:#1A476F"/>
	<circle cx="1657.01" cy="2229.67" r="22.03" style="fill:none;stroke:#1A476F;stroke-width:8.64"/>
	<line x1="390.80" y1="2489.19" x2="390.80" y2="100.86" style="stroke:#000000;stroke-width:5.76"/>
	<line x1="390.80" y1="2368.53" x2="350.83" y2="2368.53" style="stroke:#000000;stroke-width:5.76"/>
	<text x="300.72" y="2368.53" style="font-family:'Helvetica';font-size:99.99px;fill:#000000" transform="rotate(-90 300.72,2368.53)" text-anchor="middle">500</text>
	<line x1="390.80" y1="1817.45" x2="350.83" y2="1817.45" style="stroke:#000000;stroke-width:5.76"/>
	<text x="300.72" y="1817.45" style="font-family:'Helvetica';font-size:99.99px;fill:#000000" transform="rotate(-90 300.72,1817.45)" text-anchor="middle">1000</text>
	<line x1="390.80" y1="1266.37" x2="350.83" y2="1266.37" style="stroke:#000000;stroke-width:5.76"/>
	<text x="300.72" y="1266.37" style="font-family:'Helvetica';font-size:99.99px;fill:#000000" transform="rotate(-90 300.72,1266.37)" text-anchor="middle">1500</text>
	<line x1="390.80" y1="715.30" x2="350.83" y2="715.30" style="stroke:#000000;stroke-width:5.76"/>
	<text x="300.72" y="715.30" style="font-family:'Helvetica';font-size:99.99px;fill:#000000" transform="rotate(-90 300.72,715.30)" text-anchor="middle">2000</text>
	<line x1="390.80" y1="164.22" x2="350.83" y2="164.22" style="stroke:#000000;stroke-width:5.76"/>
	<text x="300.72" y="164.22" style="font-family:'Helvetica';font-size:99.99px;fill:#000000" transform="rotate(-90 300.72,164.22)" text-anchor="middle">2500</text>
	<text x="190.71" y="1294.96" style="font-family:'Helvetica';font-size:99.99px;fill:#000000" transform="rotate(-90 190.71,1294.96)" text-anchor="middle">salary, Winsorized fraction .05</text>
	<line x1="390.80" y1="2489.19" x2="3859.02" y2="2489.19" style="stroke:#000000;stroke-width:5.76"/>
	<line x1="454.16" y1="2489.19" x2="454.16" y2="2529.16" style="stroke:#000000;stroke-width:5.76"/>
	<text x="454.16" y="2619.14" style="font-family:'Helvetica';font-size:99.99px;fill:#000000" text-anchor="middle">0</text>
	<line x1="1289.47" y1="2489.19" x2="1289.47" y2="2529.16" style="stroke:#000000;stroke-width:5.76"/>
	<text x="1289.47" y="2619.14" style="font-family:'Helvetica';font-size:99.99px;fill:#000000" text-anchor="middle">10</text>
	<line x1="2124.91" y1="2489.19" x2="2124.91" y2="2529.16" style="stroke:#000000;stroke-width:5.76"/>
	<text x="2124.91" y="2619.14" style="font-family:'Helvetica';font-size:99.99px;fill:#000000" text-anchor="middle">20</text>
	<line x1="2960.35" y1="2489.19" x2="2960.35" y2="2529.16" style="stroke:#000000;stroke-width:5.76"/>
	<text x="2960.35" y="2619.14" style="font-family:'Helvetica';font-size:99.99px;fill:#000000" text-anchor="middle">30</text>
	<line x1="3795.66" y1="2489.19" x2="3795.66" y2="2529.16" style="stroke:#000000;stroke-width:5.76"/>
	<text x="3795.66" y="2619.14" style="font-family:'Helvetica';font-size:99.99px;fill:#000000" text-anchor="middle">40</text>
	<text x="2124.91" y="2729.16" style="font-family:'Helvetica';font-size:99.99px;fill:#000000" text-anchor="middle">roe, Winsorized fraction .05</text>
</svg>
